<?xml version="1.0" encoding="utf-8"?>
<!-- Generator: Adobe Illustrator 25.2.3, SVG Export Plug-In . SVG Version: 6.00 Build 0)  -->
<!DOCTYPE svg PUBLIC "-//W3C//DTD SVG 1.1//EN" "http://www.w3.org/Graphics/SVG/1.1/DTD/svg11.dtd" [
	<!ENTITY ns_extend "http://ns.adobe.com/Extensibility/1.0/">
	<!ENTITY ns_ai "http://ns.adobe.com/AdobeIllustrator/10.0/">
	<!ENTITY ns_graphs "http://ns.adobe.com/Graphs/1.0/">
	<!ENTITY ns_vars "http://ns.adobe.com/Variables/1.0/">
	<!ENTITY ns_imrep "http://ns.adobe.com/ImageReplacement/1.0/">
	<!ENTITY ns_sfw "http://ns.adobe.com/SaveForWeb/1.0/">
	<!ENTITY ns_custom "http://ns.adobe.com/GenericCustomNamespace/1.0/">
	<!ENTITY ns_adobe_xpath "http://ns.adobe.com/XPath/1.0/">
]>
<svg version="1.1" id="Layer_1" xmlns:x="&ns_extend;" xmlns:i="&ns_ai;" xmlns:graph="&ns_graphs;"
	 xmlns="http://www.w3.org/2000/svg" xmlns:xlink="http://www.w3.org/1999/xlink" x="0px" y="0px" viewBox="0 0 800 400"
	 style="enable-background:new 0 0 800 400;" xml:space="preserve">
<style type="text/css">
	.st0{fill:#FFFFFF;}
	.st1{fill:none;stroke:#000000;stroke-width:3;stroke-miterlimit:10;}
	.st2{fill:none;stroke:#000000;stroke-width:3;stroke-linecap:round;stroke-miterlimit:10;}
	.st3{fill:none;stroke:#000000;stroke-width:2;stroke-miterlimit:10;}
	.st4{fill:#FFFFFF;stroke:#000000;stroke-width:2;stroke-miterlimit:10;}
	.st5{fill:none;stroke:#000000;stroke-miterlimit:10;}
	.st6{fill:none;stroke:#010101;stroke-width:3;stroke-miterlimit:10;}
	.st7{fill:none;stroke:#010101;stroke-width:3;stroke-linecap:round;stroke-miterlimit:10;}
	.st8{fill:none;stroke:#000000;stroke-width:3;stroke-linecap:round;stroke-linejoin:bevel;stroke-miterlimit:10;}
	.st9{fill:none;stroke:#A0A0A0;stroke-linecap:round;stroke-miterlimit:10;}
	.st10{fill:none;stroke:#A0A0A0;stroke-linecap:round;stroke-miterlimit:10;stroke-dasharray:2.3333,2.3333;}
	.st11{fill:none;stroke:#A0A0A0;stroke-linecap:round;stroke-miterlimit:10;stroke-dasharray:2.9394,2.9394;}
	.st12{fill:none;stroke:#A0A0A0;stroke-miterlimit:10;}
	.st13{fill:#A0A0A0;}
	.st14{fill:none;stroke:#000000;stroke-width:3;stroke-linejoin:bevel;stroke-miterlimit:10;}
	.st15{fill:none;stroke:#A0A0A0;stroke-linecap:round;stroke-miterlimit:10;stroke-dasharray:2.9623,2.9623;}
	.st16{fill:none;stroke:#A0A0A0;stroke-linecap:round;stroke-miterlimit:10;stroke-dasharray:3.0444,3.0444;}
</style>
<metadata>
	<sfw  xmlns="&ns_sfw;">
		<slices></slices>
		<sliceSourceBounds  bottomLeftOrigin="true" height="400" width="800" x="0" y="-412.33"></sliceSourceBounds>
	</sfw>
</metadata>
<rect class="st0" width="800" height="400"/>
<g>
	<path d="M50.38,202.93h-1.27v-8.14c0-0.68,0.02-1.32,0.06-1.92c-0.11,0.11-0.23,0.22-0.37,0.34c-0.14,0.12-0.76,0.63-1.86,1.52
		l-0.69-0.89l3.02-2.34h1.09V202.93z"/>
</g>
<g>
	<path d="M53.08,227.93h-7.51v-1.12l3.01-3.02c0.92-0.93,1.52-1.59,1.81-1.98c0.29-0.4,0.51-0.78,0.66-1.16
		c0.15-0.38,0.22-0.78,0.22-1.21c0-0.61-0.19-1.09-0.55-1.45c-0.37-0.36-0.88-0.54-1.54-0.54c-0.47,0-0.92,0.08-1.35,0.23
		c-0.42,0.16-0.9,0.44-1.42,0.85l-0.69-0.88c1.05-0.88,2.2-1.31,3.44-1.31c1.07,0,1.91,0.27,2.52,0.82
		c0.61,0.55,0.91,1.29,0.91,2.21c0,0.72-0.2,1.44-0.61,2.15c-0.41,0.71-1.17,1.6-2.28,2.69l-2.5,2.45v0.06h5.88V227.93z"/>
</g>
<g>
	<path d="M52.65,244.19c0,0.73-0.2,1.33-0.61,1.79c-0.41,0.46-0.99,0.77-1.74,0.93v0.06c0.92,0.12,1.6,0.41,2.04,0.88
		c0.44,0.47,0.66,1.08,0.66,1.84c0,1.09-0.38,1.93-1.13,2.51c-0.76,0.59-1.83,0.88-3.22,0.88c-0.6,0-1.16-0.05-1.66-0.14
		c-0.5-0.09-0.99-0.25-1.46-0.48v-1.23c0.49,0.25,1.02,0.43,1.58,0.56c0.56,0.13,1.09,0.19,1.59,0.19c1.97,0,2.96-0.77,2.96-2.32
		c0-1.38-1.09-2.08-3.27-2.08h-1.12v-1.12h1.14c0.89,0,1.6-0.2,2.12-0.59c0.52-0.39,0.78-0.94,0.78-1.64c0-0.56-0.19-0.99-0.57-1.31
		c-0.38-0.32-0.9-0.48-1.56-0.48c-0.5,0-0.97,0.07-1.41,0.2c-0.44,0.14-0.95,0.39-1.52,0.75l-0.66-0.88
		c0.47-0.37,1.01-0.66,1.62-0.87c0.61-0.21,1.26-0.32,1.93-0.32c1.11,0,1.97,0.25,2.59,0.76C52.35,242.61,52.65,243.31,52.65,244.19
		z"/>
</g>
<g>
	<path d="M53.62,275.3h-1.7v2.62h-1.24v-2.62h-5.55v-1.13l5.42-7.73h1.38v7.68h1.7V275.3z M50.69,274.12v-3.8
		c0-0.75,0.03-1.59,0.08-2.52H50.7c-0.25,0.5-0.48,0.91-0.7,1.24l-3.57,5.08H50.69z"/>
</g>
<g>
	<path d="M49.15,295.95c1.2,0,2.15,0.3,2.84,0.89c0.69,0.6,1.04,1.41,1.04,2.45c0,1.18-0.38,2.11-1.13,2.78
		c-0.75,0.67-1.79,1.01-3.11,1.01c-1.29,0-2.27-0.21-2.95-0.62v-1.25c0.36,0.23,0.82,0.42,1.36,0.55c0.54,0.13,1.08,0.2,1.6,0.2
		c0.92,0,1.63-0.22,2.14-0.65s0.76-1.06,0.76-1.88c0-1.59-0.98-2.39-2.93-2.39c-0.5,0-1.16,0.08-1.98,0.23l-0.67-0.43l0.43-5.34
		h5.68v1.2h-4.57l-0.29,3.43C47.96,296.01,48.55,295.95,49.15,295.95z"/>
</g>
<g>
	<path d="M45.71,323.05c0-2.25,0.44-3.92,1.31-5.04c0.87-1.11,2.16-1.67,3.87-1.67c0.59,0,1.05,0.05,1.39,0.15v1.12
		c-0.4-0.13-0.86-0.2-1.38-0.2c-1.22,0-2.16,0.38-2.8,1.14c-0.65,0.76-1,1.96-1.06,3.6h0.09c0.57-0.9,1.48-1.34,2.72-1.34
		c1.03,0,1.83,0.31,2.43,0.93c0.59,0.62,0.89,1.46,0.89,2.52c0,1.19-0.32,2.12-0.97,2.8s-1.52,1.02-2.63,1.02
		c-1.18,0-2.12-0.44-2.81-1.33C46.06,325.86,45.71,324.63,45.71,323.05z M49.54,326.98c0.74,0,1.31-0.23,1.72-0.7
		c0.41-0.47,0.61-1.14,0.61-2.02c0-0.75-0.19-1.35-0.57-1.78c-0.38-0.43-0.95-0.65-1.7-0.65c-0.47,0-0.9,0.1-1.29,0.29
		s-0.7,0.46-0.93,0.8c-0.23,0.34-0.35,0.69-0.35,1.05c0,0.54,0.1,1.04,0.31,1.5c0.21,0.46,0.5,0.83,0.89,1.1
		S49.06,326.98,49.54,326.98z"/>
</g>
<rect x="39.37" y="187.24" class="st1" width="20" height="20"/>
<rect x="39.37" y="212.24" class="st1" width="20" height="20"/>
<rect x="39.37" y="237.24" class="st1" width="20" height="20"/>
<rect x="39.37" y="262.24" class="st1" width="20" height="20"/>
<rect x="39.37" y="287.24" class="st1" width="20" height="20"/>
<rect x="39.37" y="312.24" class="st1" width="20" height="20"/>
<line class="st2" x1="59.37" y1="197.24" x2="84.37" y2="197.24"/>
<line class="st1" x1="84.37" y1="197.24" x2="84.37" y2="172.24"/>
<g>
	<line class="st3" x1="79.07" y1="177.54" x2="89.67" y2="166.94"/>
	<line class="st3" x1="89.67" y1="177.54" x2="79.07" y2="166.94"/>
</g>
<line class="st2" x1="59.37" y1="322.24" x2="84.37" y2="322.24"/>
<line class="st1" x1="84.37" y1="322.24" x2="84.37" y2="347.24"/>
<g>
	<line class="st3" x1="74.37" y1="347.24" x2="94.37" y2="347.24"/>
	<line class="st3" x1="76.87" y1="352.24" x2="91.87" y2="352.24"/>
	<line class="st3" x1="79.37" y1="357.24" x2="89.37" y2="357.24"/>
	<line class="st3" x1="81.87" y1="362.24" x2="86.87" y2="362.24"/>
</g>
<g>
	<path d="M8.9,227.93v-11.42h1.33v11.42H8.9z"/>
	<path d="M23.28,222.2c0,1.83-0.46,3.27-1.39,4.31c-0.92,1.05-2.21,1.57-3.86,1.57c-1.68,0-2.98-0.51-3.89-1.54
		c-0.91-1.03-1.37-2.48-1.37-4.36c0-1.86,0.46-3.3,1.38-4.32c0.92-1.02,2.22-1.54,3.91-1.54c1.64,0,2.92,0.52,3.84,1.56
		C22.82,218.93,23.28,220.37,23.28,222.2z M14.18,222.2c0,1.55,0.33,2.72,0.99,3.52c0.66,0.8,1.62,1.2,2.87,1.2
		c1.27,0,2.22-0.4,2.87-1.2c0.65-0.8,0.97-1.97,0.97-3.52c0-1.54-0.32-2.7-0.96-3.5c-0.64-0.79-1.6-1.19-2.86-1.19
		c-1.27,0-2.23,0.4-2.89,1.2C14.51,219.51,14.18,220.68,14.18,222.2z"/>
	<path d="M29.84,227.93h-1.27v-8.14c0-0.68,0.02-1.32,0.06-1.92c-0.11,0.11-0.23,0.22-0.37,0.34c-0.14,0.12-0.76,0.63-1.86,1.52
		l-0.69-0.89l3.02-2.34h1.09V227.93z"/>
</g>
<g>
	<path d="M8.9,252.93v-11.42h1.33v11.42H8.9z"/>
	<path d="M23.28,247.2c0,1.83-0.46,3.27-1.39,4.31c-0.92,1.05-2.21,1.57-3.86,1.57c-1.68,0-2.98-0.51-3.89-1.54
		s-1.37-2.48-1.37-4.36c0-1.86,0.46-3.3,1.38-4.32c0.92-1.02,2.22-1.54,3.91-1.54c1.64,0,2.92,0.52,3.84,1.56
		S23.28,245.37,23.28,247.2z M14.18,247.2c0,1.55,0.33,2.72,0.99,3.52c0.66,0.8,1.62,1.2,2.87,1.2c1.27,0,2.22-0.4,2.87-1.2
		c0.65-0.8,0.97-1.97,0.97-3.52c0-1.54-0.32-2.7-0.96-3.5c-0.64-0.79-1.6-1.19-2.86-1.19c-1.27,0-2.23,0.4-2.89,1.2
		C14.51,244.51,14.18,245.68,14.18,247.2z"/>
	<path d="M32.54,252.93h-7.51v-1.12l3.01-3.02c0.92-0.93,1.52-1.59,1.81-1.98c0.29-0.4,0.51-0.78,0.66-1.16
		c0.15-0.38,0.22-0.78,0.22-1.21c0-0.61-0.19-1.09-0.55-1.45c-0.37-0.36-0.88-0.54-1.54-0.54c-0.47,0-0.92,0.08-1.35,0.23
		c-0.42,0.16-0.9,0.44-1.42,0.85l-0.69-0.88c1.05-0.88,2.2-1.31,3.44-1.31c1.07,0,1.91,0.27,2.52,0.82s0.91,1.29,0.91,2.21
		c0,0.72-0.2,1.44-0.61,2.15s-1.17,1.6-2.28,2.69l-2.5,2.45v0.06h5.88V252.93z"/>
</g>
<g>
	<path d="M8.9,277.93v-11.42h1.33v11.42H8.9z"/>
	<path d="M23.28,272.2c0,1.83-0.46,3.27-1.39,4.31c-0.92,1.05-2.21,1.57-3.86,1.57c-1.68,0-2.98-0.51-3.89-1.54
		s-1.37-2.48-1.37-4.36c0-1.86,0.46-3.3,1.38-4.32c0.92-1.02,2.22-1.54,3.91-1.54c1.64,0,2.92,0.52,3.84,1.56
		S23.28,270.37,23.28,272.2z M14.18,272.2c0,1.55,0.33,2.72,0.99,3.52c0.66,0.8,1.62,1.2,2.87,1.2c1.27,0,2.22-0.4,2.87-1.2
		c0.65-0.8,0.97-1.97,0.97-3.52c0-1.54-0.32-2.7-0.96-3.5c-0.64-0.79-1.6-1.19-2.86-1.19c-1.27,0-2.23,0.4-2.89,1.2
		C14.51,269.51,14.18,270.68,14.18,272.2z"/>
	<path d="M32.12,269.19c0,0.73-0.2,1.33-0.61,1.79c-0.41,0.46-0.99,0.77-1.74,0.93v0.06c0.92,0.11,1.6,0.41,2.04,0.88
		c0.44,0.47,0.66,1.08,0.66,1.84c0,1.09-0.38,1.93-1.13,2.51c-0.76,0.59-1.83,0.88-3.22,0.88c-0.6,0-1.16-0.05-1.66-0.14
		c-0.5-0.09-0.99-0.25-1.46-0.48v-1.23c0.49,0.25,1.02,0.43,1.58,0.56c0.56,0.13,1.09,0.19,1.59,0.19c1.97,0,2.96-0.77,2.96-2.32
		c0-1.39-1.09-2.08-3.27-2.08h-1.12v-1.12h1.14c0.89,0,1.6-0.2,2.12-0.59c0.52-0.39,0.78-0.94,0.78-1.64c0-0.56-0.19-1-0.57-1.31
		s-0.9-0.48-1.56-0.48c-0.5,0-0.97,0.07-1.41,0.2c-0.44,0.14-0.95,0.39-1.52,0.75l-0.66-0.88c0.47-0.37,1.01-0.66,1.62-0.87
		c0.61-0.21,1.26-0.32,1.93-0.32c1.11,0,1.97,0.25,2.59,0.76C31.81,267.61,32.12,268.31,32.12,269.19z"/>
</g>
<g>
	<path d="M8.9,302.93v-11.42h1.33v11.42H8.9z"/>
	<path d="M23.28,297.2c0,1.83-0.46,3.27-1.39,4.31c-0.92,1.05-2.21,1.57-3.86,1.57c-1.68,0-2.98-0.51-3.89-1.54
		s-1.37-2.48-1.37-4.36c0-1.86,0.46-3.3,1.38-4.32c0.92-1.02,2.22-1.54,3.91-1.54c1.64,0,2.92,0.52,3.84,1.56
		S23.28,295.37,23.28,297.2z M14.18,297.2c0,1.55,0.33,2.72,0.99,3.52c0.66,0.8,1.62,1.2,2.87,1.2c1.27,0,2.22-0.4,2.87-1.2
		c0.65-0.8,0.97-1.97,0.97-3.52c0-1.54-0.32-2.7-0.96-3.5c-0.64-0.79-1.6-1.19-2.86-1.19c-1.27,0-2.23,0.4-2.89,1.2
		C14.51,294.51,14.18,295.68,14.18,297.2z"/>
	<path d="M33.08,300.3h-1.7v2.62h-1.24v-2.62h-5.55v-1.13l5.42-7.73h1.38v7.68h1.7V300.3z M30.15,299.12v-3.8
		c0-0.75,0.03-1.59,0.08-2.52h-0.06c-0.25,0.5-0.48,0.91-0.7,1.24l-3.57,5.08H30.15z"/>
</g>
<line class="st1" x1="59.37" y1="222.24" x2="159.37" y2="222.24"/>
<line class="st1" x1="59.37" y1="247.24" x2="159.37" y2="247.24"/>
<line class="st1" x1="59.37" y1="272.24" x2="159.37" y2="272.24"/>
<line class="st1" x1="59.37" y1="298.57" x2="159.37" y2="298.57"/>
<g>
	<path d="M70.83,206.53c-1.26,0-2.25,0.42-2.97,1.25s-1.09,1.98-1.09,3.43c0,1.5,0.35,2.65,1.05,3.46c0.7,0.82,1.7,1.22,3,1.22
		c0.8,0,1.71-0.14,2.73-0.43v1.16c-0.79,0.3-1.77,0.45-2.93,0.45c-1.68,0-2.98-0.51-3.89-1.53c-0.91-1.02-1.37-2.47-1.37-4.35
		c0-1.18,0.22-2.21,0.66-3.09c0.44-0.89,1.08-1.57,1.91-2.05c0.83-0.48,1.81-0.72,2.93-0.72c1.2,0,2.24,0.22,3.14,0.66l-0.56,1.14
		C72.56,206.73,71.69,206.53,70.83,206.53z"/>
	<path d="M84.71,216.93h-1.33v-5.38h-6.02v5.38h-1.33v-11.42h1.33v4.86h6.02v-4.86h1.33V216.93z"/>
	<path d="M91.85,216.93h-1.27v-8.14c0-0.68,0.02-1.32,0.06-1.92c-0.11,0.11-0.23,0.22-0.37,0.34c-0.14,0.12-0.76,0.63-1.86,1.52
		l-0.69-0.89l3.02-2.34h1.09V216.93z"/>
</g>
<g>
	<path d="M70.83,231.53c-1.26,0-2.25,0.42-2.97,1.25s-1.09,1.98-1.09,3.43c0,1.5,0.35,2.65,1.05,3.46c0.7,0.82,1.7,1.22,3,1.22
		c0.8,0,1.71-0.14,2.73-0.43v1.16c-0.79,0.3-1.77,0.45-2.93,0.45c-1.68,0-2.98-0.51-3.89-1.53s-1.37-2.47-1.37-4.35
		c0-1.18,0.22-2.21,0.66-3.09c0.44-0.89,1.08-1.57,1.91-2.05c0.83-0.48,1.81-0.72,2.93-0.72c1.2,0,2.24,0.22,3.14,0.66l-0.56,1.14
		C72.56,231.73,71.69,231.53,70.83,231.53z"/>
	<path d="M84.71,241.93h-1.33v-5.38h-6.02v5.38h-1.33v-11.42h1.33v4.86h6.02v-4.86h1.33V241.93z"/>
	<path d="M94.56,241.93h-7.51v-1.12l3.01-3.02c0.92-0.93,1.52-1.59,1.81-1.98c0.29-0.4,0.51-0.78,0.66-1.16
		c0.15-0.38,0.22-0.78,0.22-1.21c0-0.61-0.19-1.09-0.55-1.45c-0.37-0.36-0.88-0.54-1.54-0.54c-0.47,0-0.92,0.08-1.35,0.23
		c-0.42,0.16-0.9,0.44-1.42,0.85l-0.69-0.88c1.05-0.88,2.2-1.31,3.44-1.31c1.07,0,1.91,0.27,2.52,0.82
		c0.61,0.55,0.91,1.29,0.91,2.21c0,0.72-0.2,1.44-0.61,2.15c-0.41,0.71-1.17,1.6-2.28,2.69l-2.5,2.45v0.06h5.88V241.93z"/>
</g>
<g>
	<path d="M70.83,256.53c-1.26,0-2.25,0.42-2.97,1.25s-1.09,1.98-1.09,3.43c0,1.5,0.35,2.65,1.05,3.46c0.7,0.82,1.7,1.22,3,1.22
		c0.8,0,1.71-0.14,2.73-0.43v1.16c-0.79,0.3-1.77,0.45-2.93,0.45c-1.68,0-2.98-0.51-3.89-1.53s-1.37-2.47-1.37-4.35
		c0-1.18,0.22-2.21,0.66-3.09c0.44-0.89,1.08-1.57,1.91-2.05c0.83-0.48,1.81-0.72,2.93-0.72c1.2,0,2.24,0.22,3.14,0.66l-0.56,1.14
		C72.56,256.73,71.69,256.53,70.83,256.53z"/>
	<path d="M84.71,266.93h-1.33v-5.38h-6.02v5.38h-1.33v-11.42h1.33v4.86h6.02v-4.86h1.33V266.93z"/>
	<path d="M94.13,258.19c0,0.73-0.2,1.33-0.61,1.79c-0.41,0.46-0.99,0.77-1.74,0.93v0.06c0.92,0.11,1.6,0.41,2.04,0.88
		c0.44,0.47,0.66,1.08,0.66,1.84c0,1.09-0.38,1.93-1.13,2.51c-0.76,0.59-1.83,0.88-3.22,0.88c-0.6,0-1.16-0.05-1.66-0.14
		c-0.5-0.09-0.99-0.25-1.46-0.48v-1.23c0.49,0.25,1.02,0.43,1.58,0.56c0.56,0.13,1.09,0.19,1.59,0.19c1.97,0,2.96-0.77,2.96-2.32
		c0-1.39-1.09-2.08-3.27-2.08h-1.12v-1.12h1.14c0.89,0,1.6-0.2,2.12-0.59c0.52-0.39,0.78-0.94,0.78-1.64c0-0.56-0.19-1-0.57-1.31
		s-0.9-0.48-1.56-0.48c-0.5,0-0.97,0.07-1.41,0.2c-0.44,0.14-0.95,0.39-1.52,0.75l-0.66-0.88c0.47-0.37,1.01-0.66,1.62-0.87
		c0.61-0.21,1.26-0.32,1.93-0.32c1.11,0,1.97,0.25,2.59,0.76C93.82,256.61,94.13,257.31,94.13,258.19z"/>
</g>
<g>
	<path d="M70.83,281.53c-1.26,0-2.25,0.42-2.97,1.25s-1.09,1.98-1.09,3.43c0,1.5,0.35,2.65,1.05,3.46c0.7,0.82,1.7,1.22,3,1.22
		c0.8,0,1.71-0.14,2.73-0.43v1.16c-0.79,0.3-1.77,0.45-2.93,0.45c-1.68,0-2.98-0.51-3.89-1.53s-1.37-2.47-1.37-4.35
		c0-1.18,0.22-2.21,0.66-3.09c0.44-0.89,1.08-1.57,1.91-2.05c0.83-0.48,1.81-0.72,2.93-0.72c1.2,0,2.24,0.22,3.14,0.66l-0.56,1.14
		C72.56,281.73,71.69,281.53,70.83,281.53z"/>
	<path d="M84.71,291.93h-1.33v-5.38h-6.02v5.38h-1.33v-11.42h1.33v4.86h6.02v-4.86h1.33V291.93z"/>
	<path d="M95.1,289.3h-1.7v2.62h-1.24v-2.62H86.6v-1.13l5.42-7.73h1.38v7.68h1.7V289.3z M92.16,288.12v-3.8
		c0-0.75,0.03-1.59,0.08-2.52h-0.06c-0.25,0.5-0.48,0.91-0.7,1.24l-3.57,5.08H92.16z"/>
</g>
<g>
	<path d="M147.45,216.93l4.73-10.23h-6.23v-1.2h7.6v1.04l-4.67,10.38H147.45z"/>
</g>
<g>
	<path d="M149.78,230.34c1.04,0,1.87,0.24,2.48,0.73s0.91,1.15,0.91,2.01c0,0.56-0.17,1.08-0.52,1.54
		c-0.35,0.46-0.91,0.89-1.67,1.27c0.93,0.44,1.59,0.91,1.98,1.39c0.39,0.49,0.59,1.05,0.59,1.69c0,0.95-0.33,1.7-0.99,2.27
		c-0.66,0.57-1.57,0.85-2.72,0.85c-1.22,0-2.16-0.27-2.81-0.8s-0.98-1.29-0.98-2.27c0-1.31,0.8-2.33,2.39-3.05
		c-0.72-0.41-1.23-0.84-1.55-1.32c-0.31-0.47-0.47-1-0.47-1.58c0-0.83,0.31-1.49,0.92-1.98
		C147.94,230.59,148.76,230.34,149.78,230.34z M147.31,239.05c0,0.62,0.22,1.11,0.65,1.46c0.43,0.35,1.05,0.52,1.83,0.52
		c0.78,0,1.38-0.18,1.81-0.55c0.43-0.36,0.65-0.86,0.65-1.5c0-0.5-0.2-0.95-0.61-1.35c-0.41-0.39-1.11-0.77-2.12-1.14
		c-0.78,0.33-1.34,0.7-1.69,1.11C147.49,238,147.31,238.48,147.31,239.05z M149.77,231.4c-0.65,0-1.16,0.16-1.53,0.47
		c-0.37,0.31-0.55,0.73-0.55,1.25c0,0.48,0.15,0.89,0.46,1.23c0.31,0.34,0.88,0.69,1.7,1.03c0.74-0.31,1.27-0.65,1.58-1.01
		c0.31-0.36,0.46-0.78,0.46-1.26c0-0.53-0.19-0.94-0.57-1.25C150.95,231.55,150.43,231.4,149.77,231.4z"/>
</g>
<g>
	<path d="M141.66,266.93h-1.27v-8.14c0-0.68,0.02-1.32,0.06-1.92c-0.11,0.11-0.23,0.22-0.37,0.34c-0.14,0.12-0.76,0.63-1.86,1.52
		l-0.69-0.89l3.02-2.34h1.09V266.93z"/>
	<path d="M153.57,261.2c0,1.97-0.31,3.45-0.93,4.42c-0.62,0.97-1.57,1.46-2.86,1.46c-1.23,0-2.16-0.5-2.8-1.5s-0.96-2.46-0.96-4.39
		c0-1.99,0.31-3.47,0.93-4.43c0.62-0.96,1.56-1.45,2.84-1.45c1.24,0,2.18,0.5,2.82,1.51C153.25,257.84,153.57,259.3,153.57,261.2z
		 M147.33,261.2c0,1.66,0.2,2.87,0.59,3.63s1.01,1.14,1.87,1.14c0.86,0,1.49-0.38,1.88-1.15c0.39-0.77,0.58-1.97,0.58-3.61
		s-0.19-2.84-0.58-3.61c-0.39-0.76-1.01-1.14-1.88-1.14c-0.85,0-1.48,0.38-1.87,1.13S147.33,259.54,147.33,261.2z"/>
</g>
<g>
	<path d="M153.51,285.38c0,4.47-1.73,6.7-5.19,6.7c-0.6,0-1.08-0.05-1.44-0.16v-1.12c0.42,0.14,0.89,0.2,1.42,0.2
		c1.25,0,2.19-0.39,2.83-1.16c0.64-0.77,0.99-1.96,1.04-3.56h-0.09c-0.29,0.43-0.67,0.76-1.14,0.99c-0.47,0.23-1.01,0.34-1.6,0.34
		c-1.01,0-1.81-0.3-2.41-0.91s-0.89-1.45-0.89-2.53c0-1.19,0.33-2.12,1-2.81s1.54-1.03,2.62-1.03c0.78,0,1.45,0.2,2.04,0.6
		c0.58,0.4,1.03,0.98,1.34,1.74S153.51,284.35,153.51,285.38z M149.67,281.45c-0.75,0-1.32,0.24-1.73,0.72s-0.61,1.15-0.61,2
		c0,0.75,0.19,1.34,0.56,1.77s0.95,0.64,1.71,0.64c0.47,0,0.91-0.1,1.31-0.29s0.71-0.46,0.94-0.79c0.23-0.33,0.34-0.68,0.34-1.05
		c0-0.55-0.11-1.05-0.32-1.52c-0.21-0.46-0.51-0.83-0.89-1.09S150.16,281.45,149.67,281.45z"/>
</g>
<g>
	<path d="M172.46,212.84h1.43l-4.12,11.42h-1.31l-4.09-11.42h1.41l2.62,7.39c0.3,0.85,0.54,1.67,0.72,2.48
		c0.19-0.84,0.43-1.68,0.73-2.52L172.46,212.84z"/>
	<path d="M174.81,229.59v-6.66h0.77v6.66H174.81z"/>
	<path d="M182.61,229.59h-0.88l-3.64-5.59h-0.04c0.05,0.66,0.07,1.26,0.07,1.8v3.79h-0.71v-6.66h0.87l3.63,5.57h0.04
		c-0.01-0.08-0.02-0.35-0.04-0.79c-0.02-0.44-0.03-0.76-0.02-0.95v-3.82h0.72V229.59z"/>
	<path d="M188.39,226.25c0,1.15-0.18,2.01-0.54,2.58s-0.92,0.85-1.66,0.85c-0.72,0-1.26-0.29-1.64-0.87s-0.56-1.43-0.56-2.56
		c0-1.16,0.18-2.02,0.54-2.58c0.36-0.56,0.91-0.84,1.65-0.84c0.72,0,1.27,0.29,1.65,0.88S188.39,225.14,188.39,226.25z
		 M184.76,226.25c0,0.97,0.11,1.67,0.34,2.12c0.23,0.44,0.59,0.66,1.09,0.66c0.5,0,0.87-0.22,1.1-0.67s0.34-1.15,0.34-2.11
		c0-0.96-0.11-1.66-0.34-2.1s-0.59-0.67-1.1-0.67c-0.5,0-0.86,0.22-1.09,0.66C184.87,224.58,184.76,225.29,184.76,226.25z"/>
</g>
<g>
	<path d="M172.46,237.84h1.43l-4.12,11.42h-1.31l-4.09-11.42h1.41l2.62,7.39c0.3,0.85,0.54,1.67,0.72,2.48
		c0.19-0.84,0.43-1.68,0.73-2.52L172.46,237.84z"/>
	<path d="M174.81,254.59v-6.66h0.77v6.66H174.81z"/>
	<path d="M182.61,254.59h-0.88l-3.64-5.59h-0.04c0.05,0.66,0.07,1.26,0.07,1.8v3.79h-0.71v-6.66h0.87l3.63,5.57h0.04
		c-0.01-0.08-0.02-0.34-0.04-0.79c-0.02-0.44-0.03-0.76-0.02-0.95v-3.82h0.72V254.59z"/>
	<path d="M186.78,254.59h-0.74v-4.75c0-0.39,0.01-0.77,0.04-1.12c-0.06,0.06-0.14,0.13-0.21,0.2c-0.08,0.07-0.44,0.37-1.08,0.89
		l-0.4-0.52l1.76-1.36h0.64V254.59z"/>
</g>
<g>
	<path d="M172.46,262.84h1.43l-4.12,11.42h-1.31l-4.09-11.42h1.41l2.62,7.39c0.3,0.85,0.54,1.67,0.72,2.48
		c0.19-0.84,0.43-1.68,0.73-2.52L172.46,262.84z"/>
	<path d="M174.81,279.59v-6.66h0.77v6.66H174.81z"/>
	<path d="M182.61,279.59h-0.88l-3.64-5.59h-0.04c0.05,0.66,0.07,1.26,0.07,1.8v3.79h-0.71v-6.66h0.87l3.63,5.57h0.04
		c-0.01-0.08-0.02-0.34-0.04-0.79c-0.02-0.44-0.03-0.76-0.02-0.95v-3.82h0.72V279.59z"/>
	<path d="M188.36,279.59h-4.38v-0.65l1.75-1.76c0.53-0.54,0.89-0.93,1.06-1.16c0.17-0.23,0.3-0.46,0.38-0.67s0.13-0.45,0.13-0.71
		c0-0.36-0.11-0.64-0.32-0.84c-0.22-0.21-0.51-0.31-0.9-0.31c-0.28,0-0.54,0.05-0.79,0.14c-0.25,0.09-0.52,0.26-0.83,0.5l-0.4-0.51
		c0.61-0.51,1.28-0.77,2-0.77c0.63,0,1.12,0.16,1.47,0.48c0.36,0.32,0.53,0.75,0.53,1.29c0,0.42-0.12,0.84-0.36,1.25
		s-0.68,0.94-1.33,1.57l-1.46,1.43v0.04h3.43V279.59z"/>
</g>
<g>
	<path d="M172.46,289.17h1.43l-4.12,11.42h-1.31l-4.09-11.42h1.41l2.62,7.39c0.3,0.85,0.54,1.67,0.72,2.48
		c0.19-0.84,0.43-1.68,0.73-2.52L172.46,289.17z"/>
	<path d="M174.81,305.92v-6.66h0.77v6.66H174.81z"/>
	<path d="M182.61,305.92h-0.88l-3.64-5.59h-0.04c0.05,0.66,0.07,1.26,0.07,1.8v3.79h-0.71v-6.66h0.87l3.63,5.57h0.04
		c-0.01-0.08-0.02-0.34-0.04-0.79c-0.02-0.44-0.03-0.76-0.02-0.95v-3.82h0.72V305.92z"/>
	<path d="M188.11,300.83c0,0.43-0.12,0.77-0.36,1.04c-0.24,0.27-0.58,0.45-1.01,0.54v0.04c0.53,0.07,0.93,0.24,1.19,0.51
		c0.26,0.27,0.39,0.63,0.39,1.08c0,0.63-0.22,1.12-0.66,1.46c-0.44,0.34-1.07,0.51-1.88,0.51c-0.35,0-0.67-0.03-0.97-0.08
		c-0.29-0.05-0.58-0.15-0.85-0.28v-0.72c0.29,0.14,0.6,0.25,0.92,0.33c0.33,0.07,0.64,0.11,0.93,0.11c1.15,0,1.73-0.45,1.73-1.35
		c0-0.81-0.63-1.21-1.9-1.21h-0.66v-0.65h0.67c0.52,0,0.93-0.12,1.23-0.34c0.3-0.23,0.46-0.55,0.46-0.95c0-0.32-0.11-0.58-0.33-0.76
		s-0.53-0.28-0.91-0.28c-0.29,0-0.57,0.04-0.82,0.12c-0.26,0.08-0.55,0.22-0.88,0.44l-0.38-0.51c0.27-0.22,0.59-0.38,0.95-0.51
		s0.73-0.18,1.13-0.18c0.65,0,1.15,0.15,1.51,0.44S188.11,300.32,188.11,300.83z"/>
</g>
<g>
	<path d="M191.04,175.04h1.43l-4.12,11.42h-1.31l-4.09-11.42h1.41l2.62,7.39c0.3,0.85,0.54,1.67,0.72,2.48
		c0.19-0.84,0.43-1.68,0.73-2.52L191.04,175.04z"/>
	<path d="M203.15,180.64c0,1.89-0.51,3.33-1.54,4.32c-1.02,1-2.5,1.5-4.42,1.5h-3.16v-11.42h3.5c1.78,0,3.16,0.49,4.14,1.48
		S203.15,178.88,203.15,180.64z M201.75,180.69c0-1.49-0.37-2.61-1.12-3.37c-0.75-0.75-1.86-1.13-3.33-1.13h-1.93v9.12h1.62
		c1.58,0,2.77-0.39,3.57-1.17C201.35,183.37,201.75,182.22,201.75,180.69z"/>
	<path d="M214.82,180.64c0,1.89-0.51,3.33-1.54,4.32c-1.02,1-2.5,1.5-4.42,1.5h-3.16v-11.42h3.5c1.78,0,3.16,0.49,4.14,1.48
		S214.82,178.88,214.82,180.64z M213.41,180.69c0-1.49-0.37-2.61-1.12-3.37c-0.75-0.75-1.86-1.13-3.33-1.13h-1.93v9.12h1.62
		c1.58,0,2.77-0.39,3.57-1.17C213.01,183.37,213.41,182.22,213.41,180.69z"/>
</g>
<g>
	<path d="M243.92,175.04h1.43l-4.12,11.42h-1.31l-4.09-11.42h1.41l2.62,7.39c0.3,0.85,0.54,1.67,0.72,2.48
		c0.19-0.84,0.43-1.68,0.73-2.52L243.92,175.04z"/>
	<path d="M253.37,183.42c0,1.01-0.36,1.79-1.09,2.35c-0.73,0.56-1.72,0.84-2.97,0.84c-1.35,0-2.4-0.17-3.12-0.52v-1.28
		c0.47,0.2,0.98,0.35,1.53,0.47c0.55,0.11,1.1,0.17,1.64,0.17c0.89,0,1.55-0.17,2-0.5c0.45-0.34,0.67-0.8,0.67-1.4
		c0-0.4-0.08-0.72-0.24-0.97c-0.16-0.25-0.42-0.49-0.8-0.7c-0.37-0.21-0.94-0.46-1.7-0.73c-1.06-0.38-1.82-0.83-2.28-1.35
		c-0.46-0.52-0.68-1.2-0.68-2.04c0-0.88,0.33-1.58,0.99-2.1c0.66-0.52,1.54-0.78,2.62-0.78c1.14,0,2.18,0.21,3.13,0.62l-0.41,1.16
		c-0.94-0.4-1.86-0.59-2.75-0.59c-0.7,0-1.25,0.15-1.65,0.45c-0.4,0.3-0.59,0.72-0.59,1.26c0,0.4,0.07,0.72,0.22,0.97
		c0.15,0.25,0.39,0.48,0.74,0.7c0.35,0.21,0.88,0.44,1.59,0.7c1.2,0.43,2.02,0.89,2.47,1.38
		C253.14,182.01,253.37,182.64,253.37,183.42z"/>
	<path d="M262.15,183.42c0,1.01-0.36,1.79-1.09,2.35c-0.73,0.56-1.72,0.84-2.97,0.84c-1.35,0-2.4-0.17-3.12-0.52v-1.28
		c0.47,0.2,0.98,0.35,1.53,0.47c0.55,0.11,1.1,0.17,1.64,0.17c0.89,0,1.55-0.17,2-0.5c0.45-0.34,0.67-0.8,0.67-1.4
		c0-0.4-0.08-0.72-0.24-0.97c-0.16-0.25-0.42-0.49-0.8-0.7c-0.37-0.21-0.94-0.46-1.7-0.73c-1.06-0.38-1.82-0.83-2.28-1.35
		c-0.46-0.52-0.68-1.2-0.68-2.04c0-0.88,0.33-1.58,0.99-2.1c0.66-0.52,1.54-0.78,2.62-0.78c1.14,0,2.18,0.21,3.13,0.62l-0.41,1.16
		c-0.94-0.4-1.86-0.59-2.75-0.59c-0.7,0-1.25,0.15-1.65,0.45c-0.4,0.3-0.59,0.72-0.59,1.26c0,0.4,0.07,0.72,0.22,0.97
		c0.15,0.25,0.39,0.48,0.74,0.7c0.35,0.21,0.88,0.44,1.59,0.7c1.2,0.43,2.02,0.89,2.47,1.38
		C261.92,182.01,262.15,182.64,262.15,183.42z"/>
</g>
<g>
	<path d="M292.61,175.04h1.43l-4.12,11.42h-1.31l-4.09-11.42h1.41l2.62,7.39c0.3,0.85,0.54,1.67,0.72,2.48
		c0.19-0.84,0.43-1.68,0.73-2.52L292.61,175.04z"/>
	<path d="M300.5,176.06c-1.26,0-2.25,0.42-2.97,1.25s-1.09,1.98-1.09,3.43c0,1.5,0.35,2.65,1.05,3.46c0.7,0.82,1.7,1.22,3,1.22
		c0.8,0,1.71-0.14,2.73-0.43v1.16c-0.79,0.3-1.77,0.45-2.93,0.45c-1.68,0-2.98-0.51-3.89-1.53c-0.91-1.02-1.37-2.47-1.37-4.35
		c0-1.18,0.22-2.21,0.66-3.09c0.44-0.89,1.08-1.57,1.91-2.05c0.83-0.48,1.81-0.72,2.93-0.72c1.2,0,2.24,0.22,3.14,0.66l-0.56,1.14
		C302.23,176.27,301.36,176.06,300.5,176.06z"/>
	<path d="M310.59,176.06c-1.26,0-2.25,0.42-2.97,1.25s-1.09,1.98-1.09,3.43c0,1.5,0.35,2.65,1.05,3.46c0.7,0.82,1.7,1.22,3,1.22
		c0.8,0,1.71-0.14,2.73-0.43v1.16c-0.79,0.3-1.77,0.45-2.93,0.45c-1.68,0-2.98-0.51-3.89-1.53c-0.91-1.02-1.37-2.47-1.37-4.35
		c0-1.18,0.22-2.21,0.66-3.09c0.44-0.89,1.08-1.57,1.91-2.05c0.83-0.48,1.81-0.72,2.93-0.72c1.2,0,2.24,0.22,3.14,0.66l-0.56,1.14
		C312.32,176.27,311.46,176.06,310.59,176.06z"/>
</g>
<g>
	<path d="M305.38,223.89c0,1.01-0.36,1.79-1.09,2.35c-0.73,0.56-1.72,0.84-2.97,0.84c-1.35,0-2.4-0.17-3.12-0.52v-1.28
		c0.47,0.2,0.98,0.35,1.53,0.47c0.55,0.11,1.1,0.17,1.64,0.17c0.89,0,1.55-0.17,2-0.5c0.45-0.34,0.67-0.8,0.67-1.4
		c0-0.4-0.08-0.72-0.24-0.97c-0.16-0.25-0.42-0.49-0.8-0.7c-0.37-0.21-0.94-0.46-1.7-0.73c-1.06-0.38-1.82-0.83-2.28-1.35
		c-0.46-0.52-0.68-1.2-0.68-2.04c0-0.88,0.33-1.58,0.99-2.1c0.66-0.52,1.54-0.78,2.62-0.78c1.14,0,2.18,0.21,3.13,0.62l-0.41,1.16
		c-0.94-0.4-1.86-0.59-2.75-0.59c-0.7,0-1.25,0.15-1.65,0.45c-0.4,0.3-0.59,0.72-0.59,1.26c0,0.4,0.07,0.72,0.22,0.97
		c0.15,0.25,0.39,0.48,0.74,0.7c0.35,0.21,0.88,0.44,1.59,0.7c1.2,0.43,2.02,0.89,2.47,1.38
		C305.16,222.47,305.38,223.11,305.38,223.89z"/>
	<path d="M312.61,216.53c-1.26,0-2.25,0.42-2.97,1.25s-1.09,1.98-1.09,3.43c0,1.5,0.35,2.65,1.05,3.46c0.7,0.82,1.7,1.22,3,1.22
		c0.8,0,1.71-0.14,2.73-0.43v1.16c-0.79,0.3-1.77,0.45-2.93,0.45c-1.68,0-2.98-0.51-3.89-1.53c-0.91-1.02-1.37-2.47-1.37-4.35
		c0-1.18,0.22-2.21,0.66-3.09c0.44-0.89,1.08-1.57,1.91-2.05c0.83-0.48,1.81-0.72,2.93-0.72c1.2,0,2.24,0.22,3.14,0.66l-0.56,1.14
		C314.34,216.73,313.47,216.53,312.61,216.53z"/>
	<path d="M317.81,226.93v-11.42h1.33v10.22h5.04v1.2H317.81z"/>
	<path d="M334.37,226.93h-1.56l-4.16-5.54l-1.2,1.06v4.48h-1.33v-11.42h1.33v5.66l5.18-5.66h1.57l-4.59,4.96L334.37,226.93z"/>
</g>
<g>
	<path d="M314.18,243.44c0,1.89-0.51,3.33-1.54,4.32s-2.5,1.5-4.42,1.5h-3.16v-11.42h3.5c1.78,0,3.16,0.49,4.14,1.48
		S314.18,241.68,314.18,243.44z M312.77,243.49c0-1.49-0.37-2.61-1.12-3.37c-0.75-0.75-1.86-1.13-3.33-1.13h-1.93v9.12H308
		c1.58,0,2.77-0.39,3.57-1.17S312.77,245.02,312.77,243.49z"/>
	<path d="M321.85,251.25c0,1.07-0.27,1.9-0.81,2.51c-0.54,0.61-1.29,0.92-2.25,0.92c-0.98,0-1.74-0.3-2.27-0.9s-0.8-1.45-0.8-2.54
		c0-1.08,0.27-1.92,0.8-2.52c0.53-0.6,1.29-0.89,2.28-0.89c0.96,0,1.7,0.3,2.24,0.91C321.58,249.35,321.85,250.19,321.85,251.25z
		 M316.54,251.25c0,0.9,0.19,1.59,0.58,2.05c0.38,0.47,0.94,0.7,1.67,0.7c0.74,0,1.29-0.23,1.67-0.7c0.38-0.46,0.56-1.15,0.56-2.05
		c0-0.9-0.19-1.58-0.56-2.04s-0.93-0.69-1.66-0.69c-0.74,0-1.3,0.23-1.68,0.7C316.73,249.69,316.54,250.36,316.54,251.25z"/>
	<path d="M328.36,247.93v4.31c0,0.76-0.23,1.36-0.69,1.79c-0.46,0.43-1.09,0.65-1.89,0.65c-0.8,0-1.42-0.22-1.86-0.66
		c-0.44-0.44-0.66-1.04-0.66-1.8v-4.29h0.77v4.34c0,0.56,0.15,0.98,0.46,1.28c0.3,0.3,0.75,0.45,1.34,0.45
		c0.56,0,0.99-0.15,1.3-0.45c0.3-0.3,0.46-0.73,0.46-1.29v-4.34H328.36z"/>
	<path d="M332.17,254.59h-0.77v-5.97h-2.11v-0.69h4.99v0.69h-2.11V254.59z"/>
</g>
<g>
	<path d="M323.76,268.44c0,1.89-0.51,3.33-1.54,4.32s-2.5,1.5-4.42,1.5h-3.16v-11.42h3.5c1.78,0,3.16,0.49,4.14,1.48
		S323.76,266.68,323.76,268.44z M322.35,268.49c0-1.49-0.37-2.61-1.12-3.37c-0.75-0.75-1.86-1.13-3.33-1.13h-1.93v9.12h1.62
		c1.58,0,2.77-0.39,3.57-1.17S322.35,270.02,322.35,268.49z"/>
	<path d="M325.65,279.59v-6.66h0.77v6.66H325.65z"/>
	<path d="M333.45,279.59h-0.88l-3.64-5.59h-0.04c0.05,0.66,0.07,1.26,0.07,1.8v3.79h-0.71v-6.66h0.87l3.63,5.57h0.04
		c-0.01-0.08-0.02-0.34-0.04-0.79c-0.02-0.44-0.03-0.76-0.02-0.95v-3.82h0.72V279.59z"/>
</g>
<g>
	<path d="M315.33,291.84l-4.26,11.42h-1.3l4.26-11.42H315.33z"/>
	<path d="M321.96,292.86c-1.26,0-2.25,0.42-2.97,1.25s-1.09,1.98-1.09,3.43c0,1.5,0.35,2.65,1.05,3.46c0.7,0.82,1.7,1.22,3,1.22
		c0.8,0,1.71-0.14,2.73-0.43v1.16c-0.79,0.3-1.77,0.45-2.93,0.45c-1.68,0-2.98-0.51-3.89-1.53s-1.37-2.47-1.37-4.35
		c0-1.18,0.22-2.21,0.66-3.09c0.44-0.89,1.08-1.57,1.91-2.05c0.83-0.48,1.81-0.72,2.93-0.72c1.2,0,2.24,0.22,3.14,0.66l-0.56,1.14
		C323.68,293.07,322.82,292.86,321.96,292.86z"/>
	<path d="M333.6,300.22c0,1-0.36,1.79-1.09,2.35c-0.73,0.56-1.72,0.84-2.97,0.84c-1.35,0-2.4-0.17-3.12-0.52v-1.28
		c0.47,0.2,0.98,0.35,1.53,0.47c0.55,0.11,1.1,0.17,1.64,0.17c0.89,0,1.55-0.17,2-0.5c0.45-0.34,0.67-0.8,0.67-1.4
		c0-0.4-0.08-0.72-0.24-0.97c-0.16-0.25-0.42-0.49-0.8-0.7c-0.37-0.21-0.94-0.46-1.7-0.73c-1.06-0.38-1.82-0.83-2.28-1.35
		c-0.46-0.52-0.68-1.2-0.68-2.04c0-0.88,0.33-1.58,0.99-2.1c0.66-0.52,1.54-0.78,2.62-0.78c1.14,0,2.18,0.21,3.13,0.62l-0.41,1.16
		c-0.94-0.4-1.86-0.59-2.75-0.59c-0.7,0-1.25,0.15-1.65,0.45c-0.4,0.3-0.59,0.72-0.59,1.26c0,0.4,0.07,0.72,0.22,0.97
		c0.15,0.25,0.39,0.48,0.74,0.7c0.35,0.21,0.88,0.44,1.59,0.7c1.2,0.43,2.02,0.89,2.47,1.38C333.38,298.8,333.6,299.44,333.6,300.22
		z"/>
</g>
<rect x="159.37" y="169.75" class="st1" width="180" height="180"/>
<line class="st1" x1="339.37" y1="222.24" x2="439.37" y2="222.24"/>
<line class="st1" x1="339.37" y1="247.24" x2="439.37" y2="247.24"/>
<line class="st1" x1="339.37" y1="272.24" x2="439.37" y2="272.24"/>
<line class="st1" x1="339.37" y1="298.57" x2="439.37" y2="298.57"/>
<g>
	<path d="M349.96,216.93h-1.27v-8.14c0-0.68,0.02-1.32,0.06-1.92c-0.11,0.11-0.23,0.22-0.37,0.34c-0.14,0.12-0.75,0.63-1.86,1.52
		l-0.69-0.89l3.02-2.34h1.09V216.93z"/>
	<path d="M354.43,212.05c0-2.24,0.44-3.92,1.31-5.04c0.87-1.11,2.16-1.67,3.87-1.67c0.59,0,1.05,0.05,1.39,0.15v1.12
		c-0.4-0.13-0.86-0.2-1.38-0.2c-1.22,0-2.16,0.38-2.8,1.14c-0.65,0.76-1,1.96-1.06,3.6h0.09c0.57-0.9,1.48-1.34,2.72-1.34
		c1.03,0,1.83,0.31,2.43,0.93c0.59,0.62,0.89,1.46,0.89,2.52c0,1.19-0.32,2.12-0.97,2.8s-1.52,1.02-2.63,1.02
		c-1.18,0-2.12-0.44-2.81-1.33C354.78,214.86,354.43,213.63,354.43,212.05z M358.27,215.98c0.74,0,1.31-0.23,1.72-0.7
		c0.41-0.47,0.61-1.14,0.61-2.02c0-0.75-0.19-1.35-0.57-1.78c-0.38-0.43-0.95-0.65-1.7-0.65c-0.47,0-0.9,0.1-1.29,0.29
		c-0.39,0.19-0.7,0.46-0.93,0.8c-0.23,0.34-0.35,0.69-0.35,1.05c0,0.54,0.1,1.04,0.31,1.5c0.21,0.46,0.5,0.83,0.89,1.1
		C357.34,215.85,357.78,215.98,358.27,215.98z"/>
</g>
<g>
	<path d="M349.96,241.93h-1.27v-8.14c0-0.68,0.02-1.32,0.06-1.92c-0.11,0.11-0.23,0.22-0.37,0.34c-0.14,0.12-0.75,0.63-1.86,1.52
		l-0.69-0.89l3.02-2.34h1.09V241.93z"/>
	<path d="M362.35,239.3h-1.7v2.62h-1.24v-2.62h-5.55v-1.13l5.42-7.73h1.38v7.68h1.7V239.3z M359.41,238.12v-3.8
		c0-0.74,0.03-1.59,0.08-2.52h-0.06c-0.25,0.5-0.48,0.91-0.7,1.24l-3.57,5.08H359.41z"/>
</g>
<g>
	<path d="M352.66,266.93h-7.51v-1.12l3.01-3.02c0.92-0.93,1.52-1.59,1.81-1.98s0.51-0.78,0.66-1.16s0.22-0.78,0.22-1.21
		c0-0.61-0.18-1.09-0.55-1.45s-0.88-0.54-1.54-0.54c-0.47,0-0.92,0.08-1.35,0.23s-0.9,0.44-1.42,0.85l-0.69-0.88
		c1.05-0.87,2.2-1.31,3.44-1.31c1.07,0,1.91,0.27,2.52,0.82c0.61,0.55,0.91,1.29,0.91,2.21c0,0.72-0.2,1.44-0.61,2.15
		s-1.17,1.6-2.28,2.69l-2.5,2.45v0.06h5.88V266.93z"/>
</g>
<g>
	<path d="M349.96,293.26h-1.27v-8.14c0-0.68,0.02-1.32,0.06-1.92c-0.11,0.11-0.23,0.22-0.37,0.34s-0.75,0.63-1.86,1.52l-0.69-0.89
		l3.02-2.34h1.09V293.26z"/>
</g>
<line class="st1" x1="249.37" y1="349.75" x2="249.37" y2="374.75"/>
<g>
	<line class="st3" x1="239.37" y1="374.75" x2="259.37" y2="374.75"/>
	<line class="st3" x1="241.87" y1="379.75" x2="256.87" y2="379.75"/>
	<line class="st3" x1="244.37" y1="384.75" x2="254.37" y2="384.75"/>
	<line class="st3" x1="246.87" y1="389.75" x2="251.87" y2="389.75"/>
</g>
<g>
	<path d="M447.27,222.18v4.75h-1.33v-11.42h3.13c1.4,0,2.44,0.27,3.11,0.8c0.67,0.54,1,1.34,1,2.42c0,1.51-0.77,2.53-2.3,3.06
		l3.1,5.13h-1.57l-2.77-4.75H447.27z M447.27,221.04h1.82c0.94,0,1.62-0.19,2.06-0.56c0.44-0.37,0.66-0.93,0.66-1.68
		c0-0.75-0.22-1.3-0.67-1.63c-0.45-0.33-1.16-0.5-2.14-0.5h-1.73V221.04z"/>
	<path d="M460.72,216.53c-1.25,0-2.25,0.42-2.97,1.25s-1.09,1.98-1.09,3.43c0,1.5,0.35,2.65,1.05,3.46c0.7,0.82,1.7,1.22,3,1.22
		c0.8,0,1.71-0.14,2.73-0.43v1.16c-0.79,0.3-1.77,0.45-2.93,0.45c-1.68,0-2.98-0.51-3.89-1.53c-0.91-1.02-1.37-2.47-1.37-4.35
		c0-1.18,0.22-2.21,0.66-3.09c0.44-0.89,1.08-1.57,1.91-2.05c0.83-0.48,1.81-0.72,2.93-0.72c1.2,0,2.25,0.22,3.14,0.66l-0.56,1.14
		C462.45,216.73,461.59,216.53,460.72,216.53z"/>
	<path d="M472.71,221.2c0,1.97-0.31,3.45-0.93,4.42c-0.62,0.97-1.57,1.46-2.86,1.46c-1.23,0-2.16-0.5-2.8-1.5
		c-0.64-1-0.96-2.46-0.96-4.39c0-1.99,0.31-3.47,0.93-4.43c0.62-0.96,1.57-1.45,2.84-1.45c1.24,0,2.18,0.5,2.82,1.51
		C472.38,217.84,472.71,219.3,472.71,221.2z M466.46,221.2c0,1.66,0.2,2.87,0.59,3.63s1.01,1.14,1.87,1.14
		c0.87,0,1.49-0.38,1.88-1.15c0.39-0.77,0.58-1.97,0.58-3.61s-0.19-2.84-0.58-3.61c-0.39-0.76-1.01-1.14-1.88-1.14
		c-0.85,0-1.48,0.38-1.87,1.13C466.66,218.33,466.46,219.54,466.46,221.2z"/>
</g>
<g>
	<path d="M447.27,247.18v4.75h-1.33v-11.42h3.13c1.4,0,2.44,0.27,3.11,0.8s1,1.34,1,2.42c0,1.51-0.77,2.53-2.3,3.06l3.1,5.13h-1.57
		l-2.77-4.75H447.27z M447.27,246.04h1.82c0.94,0,1.62-0.19,2.06-0.56s0.66-0.93,0.66-1.68c0-0.75-0.22-1.3-0.67-1.63
		s-1.16-0.5-2.14-0.5h-1.73V246.04z"/>
	<path d="M460.72,241.53c-1.25,0-2.25,0.42-2.97,1.25s-1.09,1.98-1.09,3.43c0,1.5,0.35,2.65,1.05,3.46s1.7,1.22,3,1.22
		c0.8,0,1.71-0.14,2.73-0.43v1.16c-0.79,0.3-1.77,0.45-2.93,0.45c-1.68,0-2.98-0.51-3.89-1.53s-1.37-2.47-1.37-4.35
		c0-1.18,0.22-2.21,0.66-3.09s1.08-1.57,1.91-2.05s1.81-0.72,2.93-0.72c1.2,0,2.25,0.22,3.14,0.66l-0.56,1.14
		C462.45,241.73,461.59,241.53,460.72,241.53z"/>
	<path d="M469.94,251.93h-1.27v-8.14c0-0.68,0.02-1.32,0.06-1.92c-0.11,0.11-0.23,0.22-0.37,0.34s-0.75,0.63-1.86,1.52l-0.69-0.89
		l3.02-2.34h1.09V251.93z"/>
</g>
<g>
	<path d="M447.27,272.18v4.75h-1.33v-11.42h3.13c1.4,0,2.44,0.27,3.11,0.8s1,1.34,1,2.42c0,1.51-0.77,2.53-2.3,3.06l3.1,5.13h-1.57
		l-2.77-4.75H447.27z M447.27,271.04h1.82c0.94,0,1.62-0.19,2.06-0.56s0.66-0.93,0.66-1.68c0-0.75-0.22-1.3-0.67-1.63
		s-1.16-0.5-2.14-0.5h-1.73V271.04z"/>
	<path d="M463.01,276.93l-1.42-3.63h-4.58l-1.41,3.63h-1.34l4.52-11.47h1.12l4.49,11.47H463.01z M461.17,272.1l-1.33-3.54
		c-0.17-0.45-0.35-1-0.53-1.65c-0.11,0.5-0.28,1.05-0.49,1.65l-1.34,3.54H461.17z"/>
	<path d="M473.21,274.3h-1.7v2.62h-1.24v-2.62h-5.55v-1.13l5.42-7.73h1.38v7.68h1.7V274.3z M470.28,273.12v-3.8
		c0-0.75,0.03-1.59,0.08-2.52h-0.06c-0.25,0.5-0.48,0.91-0.7,1.24l-3.57,5.08H470.28z"/>
</g>
<g>
	<path d="M447.27,298.51v4.75h-1.33v-11.42h3.13c1.4,0,2.44,0.27,3.11,0.8s1,1.34,1,2.42c0,1.51-0.77,2.53-2.3,3.06l3.1,5.13h-1.57
		l-2.77-4.75H447.27z M447.27,297.37h1.82c0.94,0,1.62-0.19,2.06-0.56s0.66-0.93,0.66-1.68c0-0.75-0.22-1.3-0.67-1.63
		s-1.16-0.5-2.14-0.5h-1.73V297.37z"/>
	<path d="M460.72,292.86c-1.25,0-2.25,0.42-2.97,1.25s-1.09,1.98-1.09,3.43c0,1.5,0.35,2.65,1.05,3.46s1.7,1.22,3,1.22
		c0.8,0,1.71-0.14,2.73-0.43v1.16c-0.79,0.3-1.77,0.45-2.93,0.45c-1.68,0-2.98-0.51-3.89-1.53s-1.37-2.47-1.37-4.35
		c0-1.18,0.22-2.21,0.66-3.09s1.08-1.57,1.91-2.05s1.81-0.72,2.93-0.72c1.2,0,2.25,0.22,3.14,0.66l-0.56,1.14
		C462.45,293.07,461.59,292.86,460.72,292.86z"/>
	<path d="M472.21,294.53c0,0.73-0.2,1.33-0.61,1.79s-0.99,0.77-1.74,0.93v0.06c0.92,0.11,1.6,0.41,2.04,0.88s0.66,1.08,0.66,1.84
		c0,1.09-0.38,1.93-1.13,2.51s-1.83,0.88-3.22,0.88c-0.6,0-1.16-0.05-1.66-0.14s-0.99-0.25-1.46-0.48v-1.23
		c0.5,0.25,1.02,0.43,1.58,0.56s1.09,0.19,1.59,0.19c1.97,0,2.96-0.77,2.96-2.32c0-1.39-1.09-2.08-3.27-2.08h-1.12v-1.12h1.14
		c0.89,0,1.6-0.2,2.12-0.59s0.78-0.94,0.78-1.64c0-0.56-0.19-1-0.57-1.31s-0.9-0.48-1.56-0.48c-0.5,0-0.97,0.07-1.41,0.2
		s-0.95,0.39-1.52,0.75l-0.66-0.88c0.47-0.37,1.01-0.66,1.62-0.87s1.26-0.32,1.93-0.32c1.11,0,1.97,0.25,2.59,0.76
		S472.21,293.64,472.21,294.53z"/>
</g>
<g>
	<path d="M511.4,226.93v-11.42h1.33v11.42H511.4z"/>
	<path d="M520.75,216.53c-1.25,0-2.25,0.42-2.97,1.25s-1.09,1.98-1.09,3.43c0,1.5,0.35,2.65,1.05,3.46c0.7,0.82,1.7,1.22,3,1.22
		c0.8,0,1.71-0.14,2.73-0.43v1.16c-0.79,0.3-1.77,0.45-2.93,0.45c-1.68,0-2.98-0.51-3.89-1.53c-0.91-1.02-1.37-2.47-1.37-4.35
		c0-1.18,0.22-2.21,0.66-3.09c0.44-0.89,1.08-1.57,1.91-2.05c0.83-0.48,1.81-0.72,2.93-0.72c1.2,0,2.25,0.22,3.14,0.66l-0.56,1.14
		C522.48,216.73,521.62,216.53,520.75,216.53z"/>
	<path d="M532.4,223.89c0,1.01-0.36,1.79-1.09,2.35c-0.73,0.56-1.72,0.84-2.97,0.84c-1.35,0-2.4-0.17-3.12-0.52v-1.28
		c0.47,0.2,0.98,0.35,1.53,0.47c0.55,0.11,1.1,0.17,1.64,0.17c0.89,0,1.55-0.17,2-0.5c0.45-0.34,0.67-0.8,0.67-1.4
		c0-0.4-0.08-0.72-0.24-0.97c-0.16-0.25-0.42-0.49-0.8-0.7c-0.37-0.21-0.94-0.46-1.7-0.73c-1.06-0.38-1.82-0.83-2.28-1.35
		c-0.46-0.52-0.68-1.2-0.68-2.04c0-0.88,0.33-1.58,0.99-2.1c0.66-0.52,1.54-0.78,2.62-0.78c1.14,0,2.18,0.21,3.13,0.62l-0.41,1.16
		c-0.94-0.4-1.86-0.59-2.75-0.59c-0.7,0-1.25,0.15-1.65,0.45c-0.4,0.3-0.59,0.72-0.59,1.26c0,0.4,0.07,0.72,0.22,0.97
		c0.15,0.25,0.39,0.48,0.74,0.7c0.35,0.21,0.88,0.44,1.59,0.7c1.2,0.43,2.02,0.89,2.47,1.38
		C532.18,222.47,532.4,223.11,532.4,223.89z"/>
	<path d="M541.98,218.83c0,1.16-0.39,2.05-1.18,2.67c-0.79,0.62-1.92,0.93-3.39,0.93h-1.34v4.49h-1.33v-11.42h2.96
		C540.55,215.51,541.98,216.62,541.98,218.83z M536.06,221.3h1.2c1.18,0,2.03-0.19,2.55-0.57c0.53-0.38,0.79-0.99,0.79-1.83
		c0-0.75-0.25-1.32-0.74-1.69c-0.49-0.37-1.27-0.55-2.31-0.55h-1.48V221.3z"/>
	<path d="M549.26,216.53c-1.25,0-2.25,0.42-2.97,1.25s-1.09,1.98-1.09,3.43c0,1.5,0.35,2.65,1.05,3.46c0.7,0.82,1.7,1.22,3,1.22
		c0.8,0,1.71-0.14,2.73-0.43v1.16c-0.79,0.3-1.77,0.45-2.93,0.45c-1.68,0-2.98-0.51-3.89-1.53c-0.91-1.02-1.37-2.47-1.37-4.35
		c0-1.18,0.22-2.21,0.66-3.09c0.44-0.89,1.08-1.57,1.91-2.05c0.83-0.48,1.81-0.72,2.93-0.72c1.2,0,2.25,0.22,3.14,0.66l-0.56,1.14
		C550.99,216.73,550.12,216.53,549.26,216.53z"/>
	<path d="M554.46,226.93v-11.42h1.33v10.22h5.04v1.2H554.46z"/>
	<path d="M571.02,226.93h-1.56l-4.16-5.54l-1.2,1.06v4.48h-1.33v-11.42h1.33v5.66l5.18-5.66h1.57l-4.59,4.96L571.02,226.93z"/>
	<path d="M580.88,215.51l-4.26,11.42h-1.3l4.26-11.42H580.88z"/>
	<path d="M588.1,222.18v4.75h-1.33v-11.42h3.13c1.4,0,2.44,0.27,3.11,0.8c0.67,0.54,1,1.34,1,2.42c0,1.51-0.77,2.53-2.3,3.06
		l3.1,5.13h-1.57l-2.77-4.75H588.1z M588.1,221.04h1.82c0.94,0,1.62-0.19,2.06-0.56c0.44-0.37,0.66-0.93,0.66-1.68
		c0-0.75-0.22-1.3-0.67-1.63c-0.45-0.33-1.16-0.5-2.14-0.5h-1.73V221.04z"/>
	<path d="M603.85,226.93l-1.42-3.63h-4.58l-1.41,3.63h-1.34l4.52-11.47h1.12l4.49,11.47H603.85z M602.01,222.1l-1.33-3.54
		c-0.17-0.45-0.35-1-0.53-1.65c-0.11,0.5-0.28,1.05-0.49,1.65l-1.34,3.54H602.01z"/>
	<path d="M610.81,226.93h-1.27v-8.14c0-0.68,0.02-1.32,0.06-1.92c-0.11,0.11-0.23,0.22-0.37,0.34c-0.13,0.12-0.75,0.63-1.86,1.52
		l-0.69-0.89l3.02-2.34h1.09V226.93z"/>
</g>
<g>
	<path d="M508.98,251.93v-11.42h1.33v11.42H508.98z"/>
	<path d="M518.33,241.53c-1.25,0-2.25,0.42-2.97,1.25s-1.09,1.98-1.09,3.43c0,1.5,0.35,2.65,1.05,3.46c0.7,0.82,1.7,1.22,3,1.22
		c0.8,0,1.71-0.14,2.73-0.43v1.16c-0.79,0.3-1.77,0.45-2.93,0.45c-1.68,0-2.98-0.51-3.89-1.53s-1.37-2.47-1.37-4.35
		c0-1.18,0.22-2.21,0.66-3.09c0.44-0.89,1.08-1.57,1.91-2.05c0.83-0.48,1.81-0.72,2.93-0.72c1.2,0,2.25,0.22,3.14,0.66l-0.56,1.14
		C520.06,241.73,519.2,241.53,518.33,241.53z"/>
	<path d="M529.98,248.89c0,1-0.36,1.79-1.09,2.35c-0.73,0.56-1.72,0.84-2.97,0.84c-1.35,0-2.4-0.17-3.12-0.52v-1.28
		c0.47,0.2,0.98,0.35,1.53,0.47c0.55,0.11,1.1,0.17,1.64,0.17c0.89,0,1.55-0.17,2-0.5c0.45-0.34,0.67-0.8,0.67-1.4
		c0-0.4-0.08-0.72-0.24-0.97c-0.16-0.25-0.42-0.49-0.8-0.7c-0.37-0.21-0.94-0.46-1.7-0.73c-1.06-0.38-1.82-0.83-2.28-1.35
		c-0.46-0.52-0.68-1.2-0.68-2.04c0-0.88,0.33-1.58,0.99-2.1c0.66-0.52,1.54-0.78,2.62-0.78c1.14,0,2.18,0.21,3.13,0.62l-0.41,1.16
		c-0.94-0.4-1.86-0.59-2.75-0.59c-0.7,0-1.25,0.15-1.65,0.45c-0.4,0.3-0.59,0.72-0.59,1.26c0,0.4,0.07,0.72,0.22,0.97
		c0.15,0.25,0.39,0.48,0.74,0.7c0.35,0.21,0.88,0.44,1.59,0.7c1.2,0.43,2.02,0.89,2.47,1.38
		C529.75,247.47,529.98,248.11,529.98,248.89z"/>
	<path d="M539.56,243.83c0,1.16-0.39,2.05-1.18,2.67s-1.92,0.93-3.39,0.93h-1.34v4.49h-1.33v-11.42h2.96
		C538.13,240.51,539.56,241.62,539.56,243.83z M533.64,246.3h1.2c1.18,0,2.03-0.19,2.55-0.57c0.53-0.38,0.79-0.99,0.79-1.83
		c0-0.75-0.25-1.32-0.74-1.69c-0.49-0.37-1.27-0.55-2.31-0.55h-1.48V246.3z"/>
	<path d="M551.06,246.11c0,1.89-0.51,3.33-1.54,4.32s-2.5,1.5-4.42,1.5h-3.16v-11.42h3.5c1.78,0,3.16,0.49,4.14,1.48
		S551.06,244.34,551.06,246.11z M549.66,246.15c0-1.49-0.37-2.61-1.12-3.37c-0.75-0.75-1.86-1.13-3.33-1.13h-1.93v9.12h1.62
		c1.58,0,2.77-0.39,3.57-1.17S549.66,247.68,549.66,246.15z"/>
	<path d="M560.79,251.93l-1.42-3.63h-4.58l-1.41,3.63h-1.34l4.52-11.47h1.12l4.49,11.47H560.79z M558.96,247.1l-1.33-3.54
		c-0.17-0.45-0.35-1-0.53-1.65c-0.11,0.5-0.28,1.05-0.49,1.65l-1.34,3.54H558.96z"/>
	<path d="M567.25,251.93h-1.33v-10.24h-3.62v-1.18h8.56v1.18h-3.62V251.93z"/>
	<path d="M580.88,240.51l-4.26,11.42h-1.3l4.26-11.42H580.88z"/>
	<path d="M588.1,247.18v4.75h-1.33v-11.42h3.13c1.4,0,2.44,0.27,3.11,0.8c0.67,0.54,1,1.34,1,2.42c0,1.51-0.77,2.53-2.3,3.06
		l3.1,5.13h-1.57l-2.77-4.75H588.1z M588.1,246.04h1.82c0.94,0,1.62-0.19,2.06-0.56s0.66-0.93,0.66-1.68c0-0.75-0.22-1.3-0.67-1.63
		s-1.16-0.5-2.14-0.5h-1.73V246.04z"/>
	<path d="M603.85,251.93l-1.42-3.63h-4.58l-1.41,3.63h-1.34l4.52-11.47h1.12l4.49,11.47H603.85z M602.01,247.1l-1.33-3.54
		c-0.17-0.45-0.35-1-0.53-1.65c-0.11,0.5-0.28,1.05-0.49,1.65l-1.34,3.54H602.01z"/>
	<path d="M613.57,246.2c0,1.97-0.31,3.45-0.93,4.42c-0.62,0.97-1.57,1.46-2.86,1.46c-1.23,0-2.16-0.5-2.8-1.5s-0.96-2.46-0.96-4.39
		c0-1.99,0.31-3.47,0.93-4.43c0.62-0.96,1.57-1.45,2.84-1.45c1.24,0,2.18,0.5,2.82,1.51C613.25,242.84,613.57,244.3,613.57,246.2z
		 M607.33,246.2c0,1.66,0.2,2.87,0.59,3.63s1.01,1.14,1.87,1.14c0.87,0,1.49-0.38,1.88-1.15c0.39-0.77,0.58-1.97,0.58-3.61
		s-0.19-2.84-0.58-3.61c-0.39-0.76-1.01-1.14-1.88-1.14c-0.85,0-1.48,0.38-1.87,1.13S607.33,244.54,607.33,246.2z"/>
</g>
<g>
	<path d="M588.1,272.18v4.75h-1.33v-11.42h3.13c1.4,0,2.44,0.27,3.11,0.8c0.67,0.54,1,1.34,1,2.42c0,1.51-0.77,2.53-2.3,3.06
		l3.1,5.13h-1.57l-2.77-4.75H588.1z M588.1,271.04h1.82c0.94,0,1.62-0.19,2.06-0.56s0.66-0.93,0.66-1.68c0-0.75-0.22-1.3-0.67-1.63
		s-1.16-0.5-2.14-0.5h-1.73V271.04z"/>
	<path d="M603.85,276.93l-1.42-3.63h-4.58l-1.41,3.63h-1.34l4.52-11.47h1.12l4.49,11.47H603.85z M602.01,272.1l-1.33-3.54
		c-0.17-0.45-0.35-1-0.53-1.65c-0.11,0.5-0.28,1.05-0.49,1.65l-1.34,3.54H602.01z"/>
	<path d="M613.51,276.93H606v-1.12l3.01-3.02c0.92-0.93,1.52-1.59,1.81-1.98c0.29-0.4,0.51-0.78,0.66-1.16
		c0.15-0.38,0.22-0.78,0.22-1.21c0-0.61-0.18-1.09-0.55-1.45c-0.37-0.36-0.88-0.54-1.54-0.54c-0.47,0-0.92,0.08-1.35,0.23
		c-0.42,0.16-0.9,0.44-1.42,0.85l-0.69-0.88c1.05-0.88,2.2-1.31,3.44-1.31c1.07,0,1.91,0.27,2.52,0.82s0.91,1.29,0.91,2.21
		c0,0.72-0.2,1.44-0.61,2.15s-1.17,1.6-2.28,2.69l-2.5,2.45v0.06h5.88V276.93z"/>
</g>
<g>
	<path d="M578.26,303.26l-3.88-10.12h-0.06c0.07,0.8,0.11,1.75,0.11,2.86v7.27h-1.23v-11.42h2l3.62,9.42h0.06l3.65-9.42h1.98v11.42
		h-1.33v-7.36c0-0.84,0.04-1.76,0.11-2.75h-0.06l-3.91,10.11H578.26z"/>
	<path d="M592.54,292.86c-1.25,0-2.25,0.42-2.97,1.25s-1.09,1.98-1.09,3.43c0,1.5,0.35,2.65,1.05,3.46c0.7,0.82,1.7,1.22,3,1.22
		c0.8,0,1.71-0.14,2.73-0.43v1.16c-0.79,0.3-1.77,0.45-2.93,0.45c-1.68,0-2.98-0.51-3.89-1.53s-1.37-2.47-1.37-4.35
		c0-1.18,0.22-2.21,0.66-3.09c0.44-0.89,1.08-1.57,1.91-2.05c0.83-0.48,1.81-0.72,2.93-0.72c1.2,0,2.25,0.22,3.14,0.66l-0.56,1.14
		C594.27,293.07,593.41,292.86,592.54,292.86z"/>
	<path d="M597.74,303.26v-11.42h1.33v10.22h5.04v1.2H597.74z"/>
	<path d="M607.38,298.51v4.75h-1.33v-11.42h3.13c1.4,0,2.44,0.27,3.11,0.8c0.67,0.54,1,1.34,1,2.42c0,1.51-0.77,2.53-2.3,3.06
		l3.1,5.13h-1.57l-2.77-4.75H607.38z M607.38,297.37h1.82c0.94,0,1.62-0.19,2.06-0.56s0.66-0.93,0.66-1.68
		c0-0.75-0.22-1.3-0.67-1.63s-1.16-0.5-2.14-0.5h-1.73V297.37z"/>
</g>
<rect x="439.37" y="169.75" class="st1" width="180" height="180"/>
<line class="st1" x1="529.37" y1="349.75" x2="529.37" y2="374.75"/>
<g>
	<line class="st3" x1="519.37" y1="374.75" x2="539.37" y2="374.75"/>
	<line class="st3" x1="521.87" y1="379.75" x2="536.87" y2="379.75"/>
	<line class="st3" x1="524.37" y1="384.75" x2="534.37" y2="384.75"/>
	<line class="st3" x1="526.87" y1="389.75" x2="531.87" y2="389.75"/>
</g>
<g>
	<path d="M421.66,216.93h-1.27v-8.14c0-0.68,0.02-1.32,0.06-1.92c-0.11,0.11-0.23,0.22-0.37,0.34c-0.14,0.12-0.76,0.63-1.86,1.52
		l-0.69-0.89l3.02-2.34h1.09V216.93z"/>
	<path d="M433.57,211.2c0,1.97-0.31,3.45-0.93,4.42c-0.62,0.97-1.57,1.46-2.86,1.46c-1.23,0-2.16-0.5-2.8-1.5
		c-0.64-1-0.96-2.46-0.96-4.39c0-1.99,0.31-3.47,0.93-4.43c0.62-0.96,1.57-1.45,2.84-1.45c1.24,0,2.18,0.5,2.82,1.51
		C433.25,207.84,433.57,209.3,433.57,211.2z M427.33,211.2c0,1.66,0.2,2.87,0.59,3.63s1.01,1.14,1.87,1.14
		c0.86,0,1.49-0.38,1.88-1.15c0.39-0.77,0.58-1.97,0.58-3.61s-0.19-2.84-0.58-3.61c-0.39-0.76-1.01-1.14-1.88-1.14
		c-0.85,0-1.48,0.38-1.87,1.13C427.53,208.33,427.33,209.54,427.33,211.2z"/>
</g>
<g>
	<path d="M433.51,235.38c0,4.47-1.73,6.7-5.19,6.7c-0.6,0-1.08-0.05-1.44-0.16v-1.12c0.42,0.14,0.89,0.2,1.42,0.2
		c1.25,0,2.19-0.39,2.83-1.16s0.99-1.96,1.04-3.56h-0.09c-0.29,0.43-0.67,0.76-1.14,0.99s-1.01,0.34-1.6,0.34
		c-1.01,0-1.81-0.3-2.41-0.91c-0.59-0.6-0.89-1.45-0.89-2.53c0-1.19,0.33-2.12,1-2.81s1.54-1.03,2.62-1.03c0.78,0,1.45,0.2,2.04,0.6
		s1.03,0.98,1.34,1.74C433.35,233.45,433.51,234.35,433.51,235.38z M429.67,231.45c-0.75,0-1.32,0.24-1.73,0.72
		c-0.41,0.48-0.61,1.15-0.61,2c0,0.75,0.19,1.34,0.56,1.77s0.95,0.64,1.71,0.64c0.47,0,0.91-0.1,1.31-0.29
		c0.4-0.19,0.71-0.46,0.94-0.79c0.23-0.33,0.34-0.68,0.34-1.05c0-0.55-0.11-1.05-0.32-1.52c-0.21-0.46-0.51-0.83-0.89-1.09
		S430.16,231.45,429.67,231.45z"/>
</g>
<g>
	<path d="M433.08,258.19c0,0.73-0.2,1.33-0.61,1.79s-0.99,0.77-1.74,0.93v0.06c0.92,0.11,1.6,0.41,2.04,0.88s0.66,1.08,0.66,1.84
		c0,1.09-0.38,1.93-1.13,2.51s-1.83,0.88-3.22,0.88c-0.6,0-1.16-0.05-1.66-0.14s-0.99-0.25-1.46-0.48v-1.23
		c0.5,0.25,1.02,0.43,1.58,0.56s1.09,0.19,1.59,0.19c1.97,0,2.96-0.77,2.96-2.32c0-1.39-1.09-2.08-3.27-2.08h-1.12v-1.12h1.14
		c0.89,0,1.6-0.2,2.12-0.59s0.78-0.94,0.78-1.64c0-0.56-0.19-1-0.57-1.31s-0.9-0.48-1.56-0.48c-0.5,0-0.97,0.07-1.41,0.2
		s-0.95,0.39-1.52,0.75l-0.66-0.88c0.47-0.37,1.01-0.66,1.62-0.87s1.26-0.32,1.93-0.32c1.11,0,1.97,0.25,2.59,0.76
		C432.77,256.61,433.08,257.31,433.08,258.19z"/>
</g>
<g>
	<path d="M430.81,293.26h-1.27v-8.14c0-0.68,0.02-1.32,0.06-1.92c-0.11,0.11-0.23,0.22-0.37,0.34s-0.75,0.63-1.86,1.52l-0.69-0.89
		l3.02-2.34h1.09V293.26z"/>
</g>
<line class="st2" x1="299.37" y1="169.75" x2="299.37" y2="144.75"/>
<circle class="st4" cx="299.37" cy="144.75" r="7.5"/>
<g>
	<path d="M293.55,121.02h1.43l-4.12,11.42h-1.31l-4.09-11.42h1.41l2.62,7.39c0.3,0.85,0.54,1.67,0.72,2.48
		c0.19-0.84,0.43-1.68,0.73-2.52L293.55,121.02z"/>
	<path d="M301.44,122.04c-1.26,0-2.25,0.42-2.97,1.25s-1.09,1.98-1.09,3.43c0,1.5,0.35,2.65,1.05,3.46c0.7,0.82,1.7,1.22,3,1.22
		c0.8,0,1.71-0.14,2.73-0.43v1.16c-0.79,0.3-1.77,0.45-2.93,0.45c-1.68,0-2.98-0.51-3.89-1.53c-0.91-1.02-1.37-2.47-1.37-4.35
		c0-1.18,0.22-2.21,0.66-3.09c0.44-0.89,1.08-1.57,1.91-2.05c0.83-0.48,1.81-0.72,2.93-0.72c1.2,0,2.24,0.22,3.14,0.66l-0.56,1.14
		C303.17,122.24,302.31,122.04,301.44,122.04z"/>
	<path d="M311.54,122.04c-1.26,0-2.25,0.42-2.97,1.25s-1.09,1.98-1.09,3.43c0,1.5,0.35,2.65,1.05,3.46c0.7,0.82,1.7,1.22,3,1.22
		c0.8,0,1.71-0.14,2.73-0.43v1.16c-0.79,0.3-1.77,0.45-2.93,0.45c-1.68,0-2.98-0.51-3.89-1.53c-0.91-1.02-1.37-2.47-1.37-4.35
		c0-1.18,0.22-2.21,0.66-3.09c0.44-0.89,1.08-1.57,1.91-2.05c0.83-0.48,1.81-0.72,2.93-0.72c1.2,0,2.24,0.22,3.14,0.66l-0.56,1.14
		C313.27,122.24,312.4,122.04,311.54,122.04z"/>
</g>
<line class="st1" x1="249.37" y1="169.75" x2="249.37" y2="94.75"/>
<g>
	<path d="M261.69,70.74v-1.19h6.72v1.19H261.69z"/>
	<path d="M274.63,74.44h-1.27V66.3c0-0.68,0.02-1.32,0.06-1.92c-0.11,0.11-0.23,0.22-0.37,0.34c-0.14,0.12-0.76,0.63-1.86,1.52
		l-0.69-0.89l3.02-2.34h1.09V74.44z"/>
	<path d="M287.03,71.82h-1.7v2.62h-1.24v-2.62h-5.55v-1.13l5.42-7.73h1.38v7.68h1.7V71.82z M284.09,70.64v-3.8
		c0-0.74,0.03-1.59,0.08-2.52h-0.06c-0.25,0.5-0.48,0.91-0.7,1.24l-3.57,5.08H284.09z"/>
	<path d="M295.44,63.02h1.43l-4.12,11.42h-1.31l-4.09-11.42h1.41l2.62,7.39c0.3,0.85,0.54,1.67,0.72,2.48
		c0.19-0.84,0.43-1.68,0.73-2.52L295.44,63.02z"/>
</g>
<line class="st1" x1="249.37" y1="94.75" x2="249.37" y2="69.75"/>
<circle class="st4" cx="249.37" cy="69.75" r="7.5"/>
<line class="st2" x1="199.37" y1="169.75" x2="199.37" y2="44.75"/>
<circle cx="249.37" cy="94.75" r="5"/>
<circle cx="199.37" cy="44.75" r="5"/>
<line class="st1" x1="199.37" y1="44.27" x2="199.37" y2="19.27"/>
<g>
	<path d="M218.15,17.78h3.22v1.08h-3.22v3.33h-1.09v-3.33h-3.2v-1.08h3.2v-3.34h1.09V17.78z"/>
	<path d="M227.78,23.96h-1.27v-8.14c0-0.68,0.02-1.32,0.06-1.92c-0.11,0.11-0.23,0.22-0.37,0.34c-0.14,0.12-0.76,0.63-1.86,1.52
		l-0.69-0.89l3.02-2.34h1.09V23.96z"/>
	<path d="M240.17,21.33h-1.7v2.62h-1.24v-2.62h-5.55V20.2l5.42-7.73h1.38v7.68h1.7V21.33z M237.24,20.15v-3.8
		c0-0.74,0.03-1.59,0.08-2.52h-0.06c-0.25,0.5-0.48,0.91-0.7,1.24l-3.57,5.08H237.24z"/>
	<path d="M248.59,12.54h1.43l-4.12,11.42h-1.31l-4.09-11.42h1.41l2.62,7.39c0.3,0.85,0.54,1.67,0.72,2.48
		c0.19-0.84,0.43-1.68,0.73-2.52L248.59,12.54z"/>
</g>
<circle class="st4" cx="199.37" cy="19.27" r="7.5"/>
<rect x="314.37" y="32.25" class="st1" width="150" height="75"/>
<g>
	<path d="M352.46,64.84V53.42h1.33v10.22h5.04v1.2H352.46z"/>
	<path d="M367.96,60.55c0,1.4-0.35,2.49-1.05,3.27c-0.7,0.78-1.67,1.18-2.91,1.18c-0.77,0-1.45-0.18-2.04-0.54s-1.05-0.87-1.38-1.55
		c-0.32-0.67-0.48-1.46-0.48-2.36c0-1.4,0.35-2.48,1.05-3.26c0.7-0.78,1.67-1.17,2.91-1.17c1.2,0,2.15,0.4,2.86,1.2
		C367.61,58.11,367.96,59.19,367.96,60.55z M361.44,60.55c0,1.09,0.22,1.93,0.66,2.5c0.44,0.57,1.08,0.86,1.93,0.86
		c0.85,0,1.49-0.29,1.93-0.86c0.44-0.57,0.66-1.4,0.66-2.5c0-1.09-0.22-1.92-0.66-2.48c-0.44-0.56-1.09-0.85-1.95-0.85
		c-0.85,0-1.49,0.28-1.92,0.84C361.66,58.62,361.44,59.45,361.44,60.55z"/>
	<path d="M377.23,64.84l-1.57-5.02c-0.1-0.31-0.28-1-0.55-2.09h-0.06c-0.21,0.91-0.39,1.61-0.55,2.11l-1.62,5.01h-1.5l-2.34-8.56
		h1.36c0.55,2.15,0.97,3.79,1.26,4.91s0.45,1.88,0.5,2.27h0.06c0.06-0.3,0.15-0.68,0.28-1.15c0.13-0.47,0.24-0.84,0.33-1.12
		l1.57-4.91h1.41l1.53,4.91c0.29,0.9,0.49,1.65,0.59,2.26h0.06c0.02-0.19,0.08-0.48,0.17-0.87c0.09-0.39,0.63-2.49,1.63-6.3h1.34
		l-2.37,8.56H377.23z"/>
	<path d="M395.96,64.84h-1.52l-6.24-9.59h-0.06c0.08,1.12,0.12,2.16,0.12,3.09v6.49h-1.23V53.42h1.5l6.23,9.55h0.06
		c-0.01-0.14-0.03-0.59-0.07-1.36c-0.04-0.76-0.05-1.31-0.04-1.64v-6.55h1.24V64.84z"/>
	<path d="M406.29,60.55c0,1.4-0.35,2.49-1.05,3.27c-0.7,0.78-1.67,1.18-2.91,1.18c-0.77,0-1.45-0.18-2.04-0.54s-1.05-0.87-1.38-1.55
		c-0.32-0.67-0.48-1.46-0.48-2.36c0-1.4,0.35-2.48,1.05-3.26c0.7-0.78,1.67-1.17,2.91-1.17c1.2,0,2.15,0.4,2.86,1.2
		C405.94,58.11,406.29,59.19,406.29,60.55z M399.77,60.55c0,1.09,0.22,1.93,0.66,2.5c0.44,0.57,1.08,0.86,1.93,0.86
		c0.85,0,1.49-0.29,1.93-0.86c0.44-0.57,0.66-1.4,0.66-2.5c0-1.09-0.22-1.92-0.66-2.48c-0.44-0.56-1.09-0.85-1.95-0.85
		c-0.85,0-1.49,0.28-1.92,0.84C399.98,58.62,399.77,59.45,399.77,60.55z"/>
	<path d="M408.46,53.96c0-0.3,0.07-0.51,0.22-0.65c0.15-0.14,0.33-0.21,0.55-0.21c0.21,0,0.39,0.07,0.54,0.21
		c0.15,0.14,0.23,0.36,0.23,0.65c0,0.29-0.08,0.51-0.23,0.65c-0.15,0.14-0.33,0.21-0.54,0.21c-0.22,0-0.4-0.07-0.55-0.21
		C408.53,54.47,408.46,54.25,408.46,53.96z M409.86,64.84h-1.3v-8.56h1.3V64.84z"/>
	<path d="M418.13,62.5c0,0.8-0.3,1.41-0.89,1.84c-0.59,0.43-1.43,0.65-2.5,0.65c-1.14,0-2.02-0.18-2.66-0.54v-1.2
		c0.41,0.21,0.85,0.37,1.32,0.49c0.47,0.12,0.93,0.18,1.36,0.18c0.68,0,1.2-0.11,1.56-0.32c0.36-0.22,0.55-0.55,0.55-0.99
		c0-0.33-0.14-0.62-0.43-0.86c-0.29-0.24-0.85-0.52-1.69-0.84c-0.8-0.3-1.36-0.56-1.7-0.78c-0.34-0.22-0.59-0.47-0.75-0.75
		s-0.25-0.62-0.25-1.01c0-0.7,0.28-1.25,0.85-1.65c0.57-0.4,1.35-0.61,2.34-0.61c0.92,0,1.82,0.19,2.7,0.56l-0.46,1.05
		c-0.86-0.35-1.64-0.53-2.34-0.53c-0.61,0-1.08,0.1-1.39,0.29c-0.31,0.19-0.47,0.46-0.47,0.8c0,0.23,0.06,0.42,0.18,0.59
		c0.12,0.16,0.31,0.32,0.57,0.46c0.26,0.15,0.76,0.36,1.5,0.63c1.02,0.37,1.7,0.74,2.06,1.12C417.96,61.46,418.13,61.94,418.13,62.5
		z"/>
	<path d="M423.86,65c-1.27,0-2.26-0.39-3-1.16c-0.73-0.77-1.1-1.84-1.1-3.21c0-1.38,0.34-2.48,1.02-3.29s1.59-1.22,2.74-1.22
		c1.07,0,1.92,0.35,2.55,1.06c0.62,0.71,0.94,1.64,0.94,2.79v0.82h-5.9c0.03,1.01,0.28,1.77,0.76,2.29
		c0.48,0.52,1.16,0.78,2.04,0.78c0.92,0,1.83-0.19,2.73-0.58v1.16c-0.46,0.2-0.89,0.34-1.3,0.43C424.93,64.95,424.44,65,423.86,65z
		 M423.51,57.21c-0.69,0-1.24,0.22-1.64,0.67c-0.41,0.45-0.65,1.07-0.72,1.86h4.48c0-0.82-0.18-1.44-0.55-1.88
		C424.71,57.42,424.19,57.21,423.51,57.21z"/>
	<path d="M336.52,78.22c0,1.89-0.51,3.33-1.54,4.32c-1.02,1-2.5,1.5-4.42,1.5h-3.16V72.62h3.5c1.78,0,3.16,0.49,4.14,1.48
		S336.52,76.45,336.52,78.22z M335.11,78.27c0-1.49-0.37-2.61-1.12-3.37c-0.75-0.75-1.86-1.13-3.33-1.13h-1.93v9.12h1.62
		c1.58,0,2.77-0.39,3.57-1.17C334.71,80.94,335.11,79.79,335.11,78.27z"/>
	<path d="M343.96,73.64c-1.26,0-2.25,0.42-2.97,1.25s-1.09,1.98-1.09,3.43c0,1.5,0.35,2.65,1.05,3.46c0.7,0.82,1.7,1.22,3,1.22
		c0.8,0,1.71-0.14,2.73-0.43v1.16c-0.79,0.3-1.77,0.45-2.93,0.45c-1.68,0-2.98-0.51-3.89-1.53c-0.91-1.02-1.37-2.47-1.37-4.35
		c0-1.18,0.22-2.21,0.66-3.09c0.44-0.89,1.08-1.57,1.91-2.05c0.83-0.48,1.81-0.72,2.93-0.72c1.2,0,2.24,0.22,3.14,0.66l-0.56,1.14
		C345.68,73.84,344.82,73.64,343.96,73.64z"/>
	<path d="M348.24,80.34v-1.19h3.84v1.19H348.24z"/>
	<path d="M363.42,78.22c0,1.89-0.51,3.33-1.54,4.32c-1.02,1-2.5,1.5-4.42,1.5h-3.16V72.62h3.5c1.78,0,3.16,0.49,4.14,1.48
		S363.42,76.45,363.42,78.22z M362.02,78.27c0-1.49-0.37-2.61-1.12-3.37c-0.75-0.75-1.86-1.13-3.33-1.13h-1.93v9.12h1.62
		c1.58,0,2.77-0.39,3.57-1.17C361.62,80.94,362.02,79.79,362.02,78.27z"/>
	<path d="M370.86,73.64c-1.26,0-2.25,0.42-2.97,1.25s-1.09,1.98-1.09,3.43c0,1.5,0.35,2.65,1.05,3.46c0.7,0.82,1.7,1.22,3,1.22
		c0.8,0,1.71-0.14,2.73-0.43v1.16c-0.79,0.3-1.77,0.45-2.93,0.45c-1.68,0-2.98-0.51-3.89-1.53c-0.91-1.02-1.37-2.47-1.37-4.35
		c0-1.18,0.22-2.21,0.66-3.09c0.44-0.89,1.08-1.57,1.91-2.05c0.83-0.48,1.81-0.72,2.93-0.72c1.2,0,2.24,0.22,3.14,0.66l-0.56,1.14
		C372.59,73.84,371.73,73.64,370.86,73.64z"/>
	<path d="M385.11,73.64c-1.26,0-2.25,0.42-2.97,1.25s-1.09,1.98-1.09,3.43c0,1.5,0.35,2.65,1.05,3.46c0.7,0.82,1.7,1.22,3,1.22
		c0.8,0,1.71-0.14,2.73-0.43v1.16c-0.79,0.3-1.77,0.45-2.93,0.45c-1.68,0-2.98-0.51-3.89-1.53c-0.91-1.02-1.37-2.47-1.37-4.35
		c0-1.18,0.22-2.21,0.66-3.09c0.44-0.89,1.08-1.57,1.91-2.05c0.83-0.48,1.81-0.72,2.93-0.72c1.2,0,2.24,0.22,3.14,0.66l-0.56,1.14
		C386.84,73.84,385.98,73.64,385.11,73.64z"/>
	<path d="M397.51,79.75c0,1.4-0.35,2.49-1.05,3.27c-0.7,0.78-1.67,1.18-2.91,1.18c-0.77,0-1.45-0.18-2.04-0.54s-1.05-0.88-1.38-1.55
		c-0.32-0.67-0.48-1.46-0.48-2.36c0-1.4,0.35-2.48,1.05-3.26c0.7-0.78,1.67-1.17,2.91-1.17c1.2,0,2.15,0.4,2.86,1.2
		C397.16,77.31,397.51,78.39,397.51,79.75z M390.99,79.75c0,1.09,0.22,1.93,0.66,2.5c0.44,0.57,1.08,0.86,1.93,0.86
		c0.85,0,1.49-0.29,1.93-0.86c0.44-0.57,0.66-1.4,0.66-2.5c0-1.09-0.22-1.92-0.66-2.48c-0.44-0.56-1.09-0.85-1.95-0.85
		c-0.85,0-1.49,0.28-1.92,0.84C391.2,77.82,390.99,78.65,390.99,79.75z"/>
	<path d="M405.64,84.04V78.5c0-0.7-0.16-1.22-0.48-1.56c-0.32-0.34-0.82-0.52-1.49-0.52c-0.9,0-1.55,0.24-1.97,0.73
		c-0.42,0.48-0.62,1.28-0.62,2.4v4.49h-1.3v-8.56h1.05l0.21,1.17h0.06c0.27-0.42,0.64-0.75,1.12-0.98c0.48-0.23,1.01-0.35,1.6-0.35
		c1.03,0,1.81,0.25,2.33,0.75c0.52,0.5,0.78,1.29,0.78,2.39v5.59H405.64z"/>
	<path d="M411.48,84.04l-3.25-8.56h1.39l1.84,5.08c0.42,1.19,0.66,1.96,0.73,2.31h0.06c0.06-0.28,0.24-0.85,0.54-1.71
		s0.99-2.76,2.05-5.68h1.39l-3.25,8.56H411.48z"/>
	<path d="M421.24,84.2c-1.27,0-2.26-0.39-3-1.16c-0.73-0.77-1.1-1.84-1.1-3.21c0-1.38,0.34-2.48,1.02-3.29s1.59-1.22,2.74-1.22
		c1.07,0,1.92,0.35,2.55,1.06c0.62,0.71,0.94,1.64,0.94,2.79v0.82h-5.9c0.03,1.01,0.28,1.77,0.76,2.29
		c0.48,0.52,1.16,0.78,2.04,0.78c0.92,0,1.83-0.19,2.73-0.58v1.16c-0.46,0.2-0.89,0.34-1.3,0.43
		C422.31,84.15,421.81,84.2,421.24,84.2z M420.88,76.41c-0.69,0-1.24,0.22-1.64,0.67c-0.41,0.45-0.65,1.07-0.72,1.86h4.48
		c0-0.82-0.18-1.44-0.55-1.88C422.08,76.62,421.56,76.41,420.88,76.41z"/>
	<path d="M430.5,75.32c0.38,0,0.72,0.03,1.02,0.09l-0.18,1.2c-0.35-0.08-0.67-0.12-0.94-0.12c-0.69,0-1.29,0.28-1.78,0.84
		s-0.74,1.26-0.74,2.1v4.59h-1.3v-8.56h1.07l0.15,1.59h0.06c0.32-0.56,0.7-0.99,1.15-1.29C429.47,75.47,429.97,75.32,430.5,75.32z"
		/>
	<path d="M435.89,83.13c0.23,0,0.45-0.02,0.66-0.05c0.21-0.03,0.38-0.07,0.51-0.11v0.99c-0.14,0.07-0.35,0.12-0.62,0.17
		c-0.27,0.04-0.52,0.07-0.74,0.07c-1.66,0-2.48-0.87-2.48-2.62v-5.09h-1.23v-0.62l1.23-0.54l0.55-1.83h0.75v1.98H437v1.01h-2.48
		v5.04c0,0.52,0.12,0.91,0.37,1.19C435.13,82.99,435.47,83.13,435.89,83.13z"/>
	<path d="M442.39,84.2c-1.27,0-2.26-0.39-3-1.16c-0.73-0.77-1.1-1.84-1.1-3.21c0-1.38,0.34-2.48,1.02-3.29s1.59-1.22,2.74-1.22
		c1.07,0,1.92,0.35,2.55,1.06c0.62,0.71,0.94,1.64,0.94,2.79v0.82h-5.9c0.03,1.01,0.28,1.77,0.76,2.29
		c0.48,0.52,1.16,0.78,2.04,0.78c0.92,0,1.83-0.19,2.73-0.58v1.16c-0.46,0.2-0.89,0.34-1.3,0.43
		C443.46,84.15,442.97,84.2,442.39,84.2z M442.04,76.41c-0.69,0-1.24,0.22-1.64,0.67c-0.41,0.45-0.65,1.07-0.72,1.86h4.48
		c0-0.82-0.18-1.44-0.55-1.88C443.24,76.62,442.72,76.41,442.04,76.41z"/>
	<path d="M451.66,75.32c0.38,0,0.72,0.03,1.02,0.09l-0.18,1.2c-0.35-0.08-0.67-0.12-0.94-0.12c-0.69,0-1.29,0.28-1.78,0.84
		s-0.74,1.26-0.74,2.1v4.59h-1.3v-8.56h1.07l0.15,1.59h0.06c0.32-0.56,0.7-0.99,1.15-1.29C450.63,75.47,451.12,75.32,451.66,75.32z"
		/>
</g>
<line class="st1" x1="199.37" y1="44.75" x2="314.37" y2="44.75"/>
<line class="st1" x1="249.37" y1="94.75" x2="314.37" y2="94.75"/>
<line class="st2" x1="529.37" y1="169.75" x2="529.37" y2="69.75"/>
<line class="st2" x1="464.37" y1="69.75" x2="529.37" y2="69.75"/>
<circle cx="529.37" cy="69.75" r="5"/>
<line class="st1" x1="389.37" y1="107.25" x2="389.37" y2="132.25"/>
<g>
	<line class="st3" x1="379.37" y1="132.25" x2="399.37" y2="132.25"/>
	<line class="st3" x1="381.87" y1="137.25" x2="396.87" y2="137.25"/>
	<line class="st3" x1="384.37" y1="142.25" x2="394.37" y2="142.25"/>
	<line class="st3" x1="386.87" y1="147.25" x2="391.87" y2="147.25"/>
</g>
<line class="st3" x1="529.37" y1="69.75" x2="529.37" y2="44.75"/>
<circle class="st4" cx="529.37" cy="44.75" r="7.5"/>
<g>
	<path d="M523.55,21.02h1.43l-4.12,11.42h-1.31l-4.09-11.42h1.41l2.62,7.39c0.3,0.85,0.54,1.67,0.72,2.48
		c0.19-0.84,0.43-1.68,0.73-2.52L523.55,21.02z"/>
	<path d="M531.44,22.04c-1.25,0-2.25,0.42-2.97,1.25s-1.09,1.98-1.09,3.43c0,1.5,0.35,2.65,1.05,3.46c0.7,0.82,1.7,1.22,3,1.22
		c0.8,0,1.71-0.14,2.73-0.43v1.16c-0.79,0.3-1.77,0.45-2.93,0.45c-1.68,0-2.98-0.51-3.89-1.53c-0.91-1.02-1.37-2.47-1.37-4.35
		c0-1.18,0.22-2.21,0.66-3.09c0.44-0.89,1.08-1.57,1.91-2.05c0.83-0.48,1.81-0.72,2.93-0.72c1.2,0,2.25,0.22,3.14,0.66l-0.56,1.14
		C533.17,22.24,532.31,22.04,531.44,22.04z"/>
	<path d="M541.54,22.04c-1.25,0-2.25,0.42-2.97,1.25s-1.09,1.98-1.09,3.43c0,1.5,0.35,2.65,1.05,3.46c0.7,0.82,1.7,1.22,3,1.22
		c0.8,0,1.71-0.14,2.73-0.43v1.16c-0.79,0.3-1.77,0.45-2.93,0.45c-1.68,0-2.98-0.51-3.89-1.53c-0.91-1.02-1.37-2.47-1.37-4.35
		c0-1.18,0.22-2.21,0.66-3.09c0.44-0.89,1.08-1.57,1.91-2.05c0.83-0.48,1.81-0.72,2.93-0.72c1.2,0,2.25,0.22,3.14,0.66l-0.56,1.14
		C543.27,22.24,542.4,22.04,541.54,22.04z"/>
</g>
<g>
	<g>
		<g>
			<line class="st2" x1="626.25" y1="222.24" x2="719.37" y2="222.24"/>
			<g>
				<polygon points="627.35,225.98 620.87,222.24 627.35,218.5 				"/>
			</g>
		</g>
	</g>
	<g>
		<g>
			<line class="st2" x1="619.37" y1="247.24" x2="712.48" y2="247.24"/>
			<g>
				<polygon points="711.39,250.98 717.87,247.24 711.39,243.5 				"/>
			</g>
		</g>
	</g>
	<g>
		<g>
			<line class="st2" x1="626.26" y1="272.24" x2="719.37" y2="272.24"/>
			<g>
				<polygon points="627.35,275.98 620.87,272.24 627.35,268.5 				"/>
			</g>
		</g>
	</g>
	<g>
		<g>
			<line class="st2" x1="626.25" y1="298.57" x2="719.37" y2="298.57"/>
			<g>
				<polygon points="627.34,302.31 620.87,298.57 627.34,294.83 				"/>
			</g>
		</g>
	</g>
</g>
<g>
	<g>
		<path d="M725.44,202.93h-1.27v-8.14c0-0.68,0.02-1.32,0.06-1.92c-0.11,0.11-0.23,0.22-0.37,0.34c-0.14,0.12-0.76,0.63-1.86,1.52
			l-0.69-0.89l3.02-2.34h1.09V202.93z"/>
		<path d="M737.29,202.93h-7.51v-1.12l3.01-3.02c0.92-0.93,1.52-1.59,1.81-1.98c0.29-0.4,0.51-0.78,0.66-1.16
			c0.15-0.38,0.22-0.78,0.22-1.21c0-0.61-0.19-1.09-0.55-1.45c-0.37-0.36-0.88-0.54-1.54-0.54c-0.47,0-0.92,0.08-1.35,0.23
			c-0.42,0.16-0.9,0.44-1.42,0.85l-0.69-0.88c1.05-0.88,2.2-1.31,3.44-1.31c1.07,0,1.91,0.27,2.52,0.82
			c0.61,0.55,0.91,1.29,0.91,2.21c0,0.72-0.2,1.44-0.61,2.15c-0.41,0.71-1.17,1.6-2.28,2.69l-2.5,2.45v0.06h5.88V202.93z"/>
	</g>
	<g>
		<path d="M725.44,227.93h-1.27v-8.14c0-0.68,0.02-1.32,0.06-1.92c-0.11,0.11-0.23,0.22-0.37,0.34c-0.14,0.12-0.75,0.63-1.86,1.52
			l-0.69-0.89l3.02-2.34h1.09V227.93z"/>
		<path d="M734.59,227.93h-1.27v-8.14c0-0.68,0.02-1.32,0.06-1.92c-0.11,0.11-0.23,0.22-0.37,0.34c-0.14,0.12-0.75,0.63-1.86,1.52
			l-0.69-0.89l3.02-2.34h1.09V227.93z"/>
	</g>
	<g>
		<path d="M725.44,252.93h-1.27v-8.14c0-0.68,0.02-1.32,0.06-1.92c-0.11,0.11-0.23,0.22-0.37,0.34c-0.14,0.12-0.76,0.63-1.86,1.52
			l-0.69-0.89l3.02-2.34h1.09V252.93z"/>
		<path d="M737.35,247.2c0,1.97-0.31,3.45-0.93,4.42c-0.62,0.97-1.57,1.46-2.86,1.46c-1.23,0-2.16-0.5-2.8-1.5
			c-0.64-1-0.96-2.46-0.96-4.39c0-1.99,0.31-3.47,0.93-4.43c0.62-0.96,1.56-1.45,2.84-1.45c1.24,0,2.18,0.5,2.82,1.51
			C737.03,243.84,737.35,245.3,737.35,247.2z M731.11,247.2c0,1.66,0.2,2.87,0.59,3.63s1.01,1.14,1.87,1.14
			c0.86,0,1.49-0.38,1.88-1.15c0.39-0.77,0.58-1.97,0.58-3.61s-0.19-2.84-0.58-3.61c-0.39-0.76-1.01-1.14-1.88-1.14
			c-0.85,0-1.48,0.38-1.87,1.13C731.3,244.33,731.11,245.54,731.11,247.2z"/>
	</g>
	<g>
		<path d="M733.08,271.38c0,4.47-1.73,6.7-5.19,6.7c-0.6,0-1.08-0.05-1.44-0.16v-1.12c0.42,0.14,0.89,0.2,1.42,0.2
			c1.25,0,2.19-0.39,2.83-1.16c0.64-0.77,0.99-1.96,1.04-3.56h-0.09c-0.29,0.43-0.67,0.76-1.14,0.99c-0.47,0.23-1.01,0.34-1.6,0.34
			c-1.01,0-1.81-0.3-2.41-0.91s-0.89-1.45-0.89-2.53c0-1.19,0.33-2.12,1-2.81s1.54-1.03,2.62-1.03c0.78,0,1.45,0.2,2.04,0.6
			c0.58,0.4,1.03,0.98,1.34,1.74S733.08,270.35,733.08,271.38z M729.24,267.45c-0.75,0-1.32,0.24-1.73,0.72s-0.61,1.15-0.61,2
			c0,0.75,0.19,1.34,0.56,1.77s0.95,0.64,1.71,0.64c0.47,0,0.91-0.1,1.31-0.29s0.71-0.46,0.94-0.79c0.23-0.33,0.34-0.68,0.34-1.05
			c0-0.55-0.11-1.05-0.32-1.52c-0.21-0.46-0.51-0.83-0.89-1.09S729.73,267.45,729.24,267.45z"/>
	</g>
	<g>
		<path d="M729.36,291.34c1.04,0,1.87,0.24,2.48,0.73s0.91,1.15,0.91,2.01c0,0.56-0.17,1.08-0.52,1.54
			c-0.35,0.46-0.91,0.89-1.67,1.27c0.93,0.44,1.59,0.91,1.98,1.39s0.59,1.05,0.59,1.69c0,0.95-0.33,1.7-0.99,2.27
			c-0.66,0.57-1.57,0.85-2.72,0.85c-1.22,0-2.16-0.27-2.81-0.8s-0.98-1.29-0.98-2.27c0-1.31,0.8-2.33,2.39-3.05
			c-0.72-0.41-1.23-0.84-1.55-1.32s-0.47-1-0.47-1.58c0-0.83,0.31-1.49,0.92-1.98C727.51,291.59,728.33,291.34,729.36,291.34z
			 M726.89,300.05c0,0.62,0.22,1.11,0.65,1.46c0.43,0.35,1.04,0.52,1.83,0.52c0.78,0,1.38-0.18,1.81-0.55
			c0.43-0.36,0.65-0.86,0.65-1.5c0-0.5-0.2-0.95-0.61-1.35s-1.12-0.77-2.12-1.14c-0.78,0.33-1.34,0.7-1.69,1.11
			C727.06,299,726.89,299.48,726.89,300.05z M729.34,292.4c-0.65,0-1.16,0.16-1.53,0.47c-0.37,0.31-0.55,0.73-0.55,1.25
			c0,0.48,0.15,0.89,0.46,1.23c0.31,0.34,0.88,0.69,1.7,1.03c0.74-0.31,1.27-0.65,1.58-1.01c0.31-0.36,0.46-0.78,0.46-1.26
			c0-0.53-0.19-0.94-0.57-1.25C730.52,292.55,730,292.4,729.34,292.4z"/>
	</g>
	<g>
		<path d="M727.02,327.93l4.73-10.23h-6.23v-1.2h7.6v1.04l-4.67,10.38H727.02z"/>
	</g>
	<rect x="719.37" y="187.24" class="st1" width="20" height="20"/>
	<rect x="719.37" y="212.24" class="st1" width="20" height="20"/>
	<rect x="719.37" y="237.24" class="st1" width="20" height="20"/>
	<rect x="719.37" y="262.24" class="st1" width="20" height="20"/>
	<rect x="719.37" y="287.24" class="st1" width="20" height="20"/>
	<rect x="719.37" y="312.24" class="st1" width="20" height="20"/>
</g>
<g>
	<path d="M747.27,227.93v-11.42h1.33v10.22h5.04v1.2H747.27z"/>
	<path d="M755.27,217.05c0-0.3,0.07-0.51,0.22-0.65c0.15-0.14,0.33-0.21,0.55-0.21c0.21,0,0.39,0.07,0.54,0.21s0.23,0.36,0.23,0.65
		c0,0.29-0.08,0.51-0.23,0.65c-0.15,0.14-0.33,0.21-0.54,0.21c-0.22,0-0.4-0.07-0.55-0.21
		C755.34,217.55,755.27,217.34,755.27,217.05z M756.67,227.93h-1.3v-8.56h1.3V227.93z"/>
	<path d="M765.28,227.93v-5.54c0-0.7-0.16-1.22-0.48-1.56s-0.82-0.52-1.49-0.52c-0.9,0-1.55,0.24-1.97,0.73s-0.62,1.28-0.62,2.4
		v4.49h-1.3v-8.56h1.05l0.21,1.17h0.06c0.27-0.42,0.64-0.75,1.12-0.98c0.48-0.23,1.01-0.35,1.6-0.35c1.03,0,1.81,0.25,2.33,0.75
		c0.52,0.5,0.78,1.29,0.78,2.39v5.59H765.28z"/>
	<path d="M772.86,228.08c-1.27,0-2.26-0.39-3-1.16c-0.73-0.77-1.1-1.84-1.1-3.21c0-1.38,0.34-2.48,1.02-3.29s1.59-1.22,2.74-1.22
		c1.07,0,1.92,0.35,2.55,1.06c0.62,0.71,0.94,1.64,0.94,2.79v0.82h-5.9c0.03,1.01,0.28,1.77,0.76,2.29
		c0.48,0.52,1.16,0.78,2.04,0.78c0.92,0,1.83-0.19,2.73-0.58v1.16c-0.46,0.2-0.89,0.34-1.3,0.43S773.44,228.08,772.86,228.08z
		 M772.51,220.3c-0.69,0-1.24,0.22-1.64,0.67c-0.41,0.45-0.65,1.07-0.72,1.86h4.48c0-0.82-0.18-1.44-0.55-1.88
		C773.71,220.51,773.19,220.3,772.51,220.3z"/>
	<path d="M789.75,227.93l-1.42-3.63h-4.58l-1.41,3.63H781l4.52-11.47h1.12l4.49,11.47H789.75z M787.92,223.1l-1.33-3.54
		c-0.17-0.45-0.35-1-0.53-1.65c-0.11,0.5-0.28,1.05-0.49,1.65l-1.34,3.54H787.92z"/>
</g>
<g>
	<path d="M747.27,252.93v-11.42h1.33v10.22h5.04v1.2H747.27z"/>
	<path d="M755.27,242.05c0-0.3,0.07-0.51,0.22-0.65c0.15-0.14,0.33-0.21,0.55-0.21c0.21,0,0.39,0.07,0.54,0.21s0.23,0.36,0.23,0.65
		c0,0.29-0.08,0.51-0.23,0.65c-0.15,0.14-0.33,0.21-0.54,0.21c-0.22,0-0.4-0.07-0.55-0.21
		C755.34,242.56,755.27,242.34,755.27,242.05z M756.67,252.93h-1.3v-8.56h1.3V252.93z"/>
	<path d="M765.28,252.93v-5.54c0-0.7-0.16-1.22-0.48-1.56s-0.82-0.52-1.49-0.52c-0.9,0-1.55,0.24-1.97,0.73s-0.62,1.28-0.62,2.4
		v4.49h-1.3v-8.56h1.05l0.21,1.17h0.06c0.27-0.42,0.64-0.75,1.12-0.98c0.48-0.23,1.01-0.35,1.6-0.35c1.03,0,1.81,0.25,2.33,0.75
		c0.52,0.5,0.78,1.29,0.78,2.39v5.59H765.28z"/>
	<path d="M772.86,253.08c-1.27,0-2.26-0.38-3-1.16c-0.73-0.77-1.1-1.84-1.1-3.21c0-1.38,0.34-2.48,1.02-3.29s1.59-1.22,2.74-1.22
		c1.07,0,1.92,0.35,2.55,1.06c0.62,0.71,0.94,1.64,0.94,2.79v0.82h-5.9c0.03,1.01,0.28,1.77,0.76,2.29
		c0.48,0.52,1.16,0.78,2.04,0.78c0.92,0,1.83-0.19,2.73-0.58v1.16c-0.46,0.2-0.89,0.34-1.3,0.43S773.44,253.08,772.86,253.08z
		 M772.51,245.3c-0.69,0-1.24,0.22-1.64,0.67c-0.41,0.45-0.65,1.07-0.72,1.86h4.48c0-0.82-0.18-1.44-0.55-1.88
		C773.71,245.51,773.19,245.3,772.51,245.3z"/>
	<path d="M782.57,241.51h3.23c1.52,0,2.61,0.23,3.29,0.68s1.02,1.17,1.02,2.15c0,0.68-0.19,1.24-0.57,1.68
		c-0.38,0.44-0.93,0.73-1.65,0.86v0.08c1.73,0.3,2.6,1.21,2.6,2.73c0,1.02-0.34,1.82-1.04,2.39c-0.69,0.57-1.66,0.86-2.89,0.86
		h-3.98V241.51z M783.9,246.4h2.19c0.94,0,1.61-0.15,2.02-0.44c0.41-0.29,0.62-0.79,0.62-1.49c0-0.64-0.23-1.1-0.69-1.39
		c-0.46-0.28-1.19-0.43-2.19-0.43h-1.95V246.4z M783.9,247.52v4.27h2.38c0.92,0,1.62-0.18,2.08-0.54c0.47-0.36,0.7-0.92,0.7-1.68
		c0-0.71-0.24-1.23-0.71-1.56c-0.48-0.33-1.2-0.5-2.18-0.5H783.9z"/>
</g>
<g>
	<path d="M747.27,277.93v-11.42h1.33v10.22h5.04v1.2H747.27z"/>
	<path d="M755.27,267.04c0-0.3,0.07-0.51,0.22-0.65s0.33-0.21,0.55-0.21c0.21,0,0.39,0.07,0.54,0.21s0.23,0.36,0.23,0.65
		s-0.08,0.51-0.23,0.65s-0.33,0.21-0.54,0.21c-0.22,0-0.4-0.07-0.55-0.21S755.27,267.34,755.27,267.04z M756.67,277.93h-1.3v-8.56
		h1.3V277.93z"/>
	<path d="M765.28,277.93v-5.54c0-0.7-0.16-1.22-0.48-1.56s-0.82-0.52-1.49-0.52c-0.9,0-1.55,0.24-1.97,0.73s-0.62,1.28-0.62,2.4
		v4.49h-1.3v-8.56h1.05l0.21,1.17h0.06c0.27-0.42,0.64-0.75,1.12-0.98s1.01-0.35,1.6-0.35c1.03,0,1.81,0.25,2.33,0.75
		s0.78,1.29,0.78,2.39v5.59H765.28z"/>
	<path d="M772.86,278.08c-1.27,0-2.26-0.39-3-1.16s-1.1-1.84-1.1-3.21c0-1.38,0.34-2.48,1.02-3.29s1.59-1.22,2.74-1.22
		c1.07,0,1.92,0.35,2.55,1.06s0.94,1.64,0.94,2.79v0.82h-5.9c0.03,1,0.28,1.77,0.76,2.29s1.16,0.78,2.04,0.78
		c0.92,0,1.83-0.19,2.73-0.58v1.16c-0.46,0.2-0.89,0.34-1.3,0.43S773.44,278.08,772.86,278.08z M772.51,270.29
		c-0.69,0-1.24,0.22-1.64,0.67s-0.65,1.07-0.72,1.86h4.48c0-0.82-0.18-1.44-0.55-1.88S773.19,270.29,772.51,270.29z"/>
	<path d="M787.46,267.53c-1.25,0-2.25,0.42-2.97,1.25s-1.09,1.98-1.09,3.43c0,1.5,0.35,2.65,1.05,3.46s1.7,1.22,3,1.22
		c0.8,0,1.71-0.14,2.73-0.43v1.16c-0.79,0.3-1.77,0.45-2.93,0.45c-1.68,0-2.98-0.51-3.89-1.53s-1.37-2.47-1.37-4.35
		c0-1.18,0.22-2.21,0.66-3.09s1.08-1.57,1.91-2.05s1.81-0.72,2.93-0.72c1.2,0,2.25,0.22,3.14,0.66l-0.56,1.14
		C789.19,267.73,788.33,267.53,787.46,267.53z"/>
</g>
<g>
	<path d="M747.27,302.93v-11.42h1.33v10.22h5.04v1.2H747.27z"/>
	<path d="M755.27,292.04c0-0.3,0.07-0.51,0.22-0.65c0.15-0.14,0.33-0.21,0.55-0.21c0.21,0,0.39,0.07,0.54,0.21s0.23,0.36,0.23,0.65
		c0,0.29-0.08,0.51-0.23,0.65c-0.15,0.14-0.33,0.21-0.54,0.21c-0.22,0-0.4-0.07-0.55-0.21
		C755.34,292.55,755.27,292.34,755.27,292.04z M756.67,302.93h-1.3v-8.56h1.3V302.93z"/>
	<path d="M765.28,302.93v-5.54c0-0.7-0.16-1.22-0.48-1.56s-0.82-0.52-1.49-0.52c-0.9,0-1.55,0.24-1.97,0.73s-0.62,1.28-0.62,2.4
		v4.49h-1.3v-8.56h1.05l0.21,1.17h0.06c0.27-0.42,0.64-0.75,1.12-0.98c0.48-0.23,1.01-0.35,1.6-0.35c1.03,0,1.81,0.25,2.33,0.75
		c0.52,0.5,0.78,1.29,0.78,2.39v5.59H765.28z"/>
	<path d="M772.86,303.08c-1.27,0-2.26-0.38-3-1.16c-0.73-0.77-1.1-1.84-1.1-3.21c0-1.38,0.34-2.48,1.02-3.29s1.59-1.22,2.74-1.22
		c1.07,0,1.92,0.35,2.55,1.06c0.62,0.71,0.94,1.64,0.94,2.79v0.82h-5.9c0.03,1.01,0.28,1.77,0.76,2.29
		c0.48,0.52,1.16,0.78,2.04,0.78c0.92,0,1.83-0.19,2.73-0.58v1.16c-0.46,0.2-0.89,0.34-1.3,0.43S773.44,303.08,772.86,303.08z
		 M772.51,295.29c-0.69,0-1.24,0.22-1.64,0.67c-0.41,0.45-0.65,1.07-0.72,1.86h4.48c0-0.82-0.18-1.44-0.55-1.88
		C773.71,295.51,773.19,295.29,772.51,295.29z"/>
	<path d="M791.69,297.11c0,1.89-0.51,3.33-1.54,4.32c-1.02,1-2.5,1.5-4.42,1.5h-3.16v-11.42h3.5c1.78,0,3.16,0.49,4.14,1.48
		S791.69,295.34,791.69,297.11z M790.28,297.15c0-1.49-0.37-2.61-1.12-3.37c-0.75-0.75-1.86-1.13-3.33-1.13h-1.93v9.12h1.62
		c1.58,0,2.77-0.39,3.57-1.17C789.88,299.83,790.28,298.68,790.28,297.15z"/>
</g>
<g>
	<path d="M750.05,195.95c1.2,0,2.15,0.3,2.84,0.89c0.69,0.6,1.04,1.41,1.04,2.45c0,1.18-0.38,2.11-1.13,2.78s-1.79,1.01-3.11,1.01
		c-1.29,0-2.27-0.21-2.95-0.62v-1.25c0.36,0.23,0.82,0.42,1.36,0.55s1.08,0.2,1.6,0.2c0.92,0,1.63-0.22,2.14-0.65
		c0.51-0.43,0.76-1.06,0.76-1.88c0-1.59-0.98-2.39-2.93-2.39c-0.5,0-1.16,0.08-1.98,0.23l-0.67-0.43l0.43-5.34h5.68v1.2h-4.57
		l-0.29,3.43C748.86,196.01,749.46,195.95,750.05,195.95z"/>
	<path d="M762.94,191.51h1.43l-4.12,11.42h-1.31l-4.09-11.42h1.41l2.62,7.39c0.3,0.85,0.54,1.67,0.72,2.48
		c0.19-0.84,0.43-1.68,0.73-2.52L762.94,191.51z"/>
</g>
<g>
	<path d="M631.46,216.93h-1.27v-8.14c0-0.68,0.02-1.32,0.06-1.92c-0.11,0.11-0.23,0.22-0.37,0.34c-0.14,0.12-0.75,0.63-1.86,1.52
		l-0.69-0.89l3.02-2.34h1.09V216.93z"/>
	<path d="M643.31,216.93h-7.51v-1.12l3.01-3.02c0.92-0.93,1.52-1.59,1.81-1.98c0.29-0.4,0.51-0.78,0.66-1.16s0.22-0.78,0.22-1.21
		c0-0.61-0.18-1.09-0.55-1.45c-0.37-0.36-0.88-0.54-1.54-0.54c-0.47,0-0.92,0.08-1.35,0.23s-0.9,0.44-1.42,0.85l-0.69-0.88
		c1.05-0.88,2.2-1.31,3.44-1.31c1.07,0,1.91,0.27,2.52,0.82c0.61,0.55,0.91,1.29,0.91,2.21c0,0.72-0.2,1.44-0.61,2.15
		c-0.41,0.71-1.17,1.6-2.28,2.69l-2.5,2.45v0.06h5.88V216.93z"/>
</g>
<g>
	<path d="M629.96,241.93h-1.27v-8.14c0-0.68,0.02-1.32,0.06-1.92c-0.11,0.11-0.23,0.22-0.37,0.34c-0.14,0.12-0.75,0.63-1.86,1.52
		l-0.69-0.89l3.02-2.34h1.09V241.93z"/>
	<path d="M641.38,233.19c0,0.73-0.2,1.33-0.61,1.79c-0.41,0.46-0.99,0.77-1.74,0.93v0.06c0.92,0.11,1.6,0.41,2.04,0.88
		s0.66,1.08,0.66,1.84c0,1.09-0.38,1.93-1.13,2.51s-1.83,0.88-3.22,0.88c-0.6,0-1.16-0.05-1.66-0.14s-0.99-0.25-1.46-0.48v-1.23
		c0.5,0.25,1.02,0.43,1.58,0.56s1.09,0.19,1.59,0.19c1.97,0,2.96-0.77,2.96-2.32c0-1.39-1.09-2.08-3.27-2.08h-1.12v-1.12h1.14
		c0.89,0,1.6-0.2,2.12-0.59c0.52-0.39,0.78-0.94,0.78-1.64c0-0.56-0.19-0.99-0.57-1.31c-0.38-0.32-0.9-0.48-1.56-0.48
		c-0.5,0-0.97,0.07-1.41,0.2c-0.44,0.14-0.95,0.39-1.52,0.75l-0.66-0.88c0.47-0.37,1.01-0.66,1.62-0.87s1.26-0.32,1.93-0.32
		c1.11,0,1.97,0.25,2.59,0.76S641.38,232.31,641.38,233.19z"/>
</g>
<g>
	<path d="M629.96,266.93h-1.27v-8.14c0-0.68,0.02-1.32,0.06-1.92c-0.11,0.11-0.23,0.22-0.37,0.34s-0.75,0.63-1.86,1.52l-0.69-0.89
		l3.02-2.34h1.09V266.93z"/>
	<path d="M639.1,266.93h-1.27v-8.14c0-0.68,0.02-1.32,0.06-1.92c-0.11,0.11-0.23,0.22-0.37,0.34s-0.75,0.63-1.86,1.52l-0.69-0.89
		l3.02-2.34h1.09V266.93z"/>
</g>
<g>
	<path d="M633.2,290.64h-1.7v2.62h-1.24v-2.62h-5.55v-1.13l5.42-7.73h1.38v7.68h1.7V290.64z M630.26,289.46v-3.8
		c0-0.75,0.03-1.59,0.08-2.52h-0.06c-0.25,0.5-0.48,0.91-0.7,1.24l-3.57,5.08H630.26z"/>
</g>
<g>
	<path d="M701.37,216.93h-1.33v-10.24h-3.62v-1.18h8.56v1.18h-3.62V216.93z"/>
	<path d="M714.31,216.93h-1.51l-3.07-5.02l-3.12,5.02h-1.41l3.8-5.97l-3.54-5.45h1.47l2.84,4.52l2.86-4.52h1.41l-3.54,5.41
		L714.31,216.93z"/>
</g>
<g>
	<path d="M698.14,237.18v4.75h-1.33v-11.42h3.13c1.4,0,2.44,0.27,3.11,0.8c0.67,0.54,1,1.34,1,2.42c0,1.51-0.77,2.53-2.3,3.06
		l3.1,5.13h-1.57l-2.77-4.75H698.14z M698.14,236.04h1.82c0.94,0,1.62-0.19,2.06-0.56c0.44-0.37,0.66-0.93,0.66-1.68
		c0-0.75-0.22-1.3-0.67-1.63c-0.45-0.33-1.16-0.5-2.14-0.5h-1.73V236.04z"/>
	<path d="M714.31,241.93h-1.51l-3.07-5.02l-3.12,5.02h-1.41l3.8-5.97l-3.54-5.45h1.47l2.84,4.52l2.86-4.52h1.41l-3.54,5.41
		L714.31,241.93z"/>
</g>
<g>
	<path d="M689.74,262.18v4.75h-1.33v-11.42h3.13c1.4,0,2.44,0.27,3.11,0.8c0.67,0.54,1,1.34,1,2.42c0,1.51-0.77,2.53-2.3,3.06
		l3.1,5.13h-1.57l-2.77-4.75H689.74z M689.74,261.04h1.82c0.94,0,1.62-0.19,2.06-0.56c0.44-0.37,0.66-0.93,0.66-1.68
		c0-0.75-0.22-1.3-0.67-1.63c-0.45-0.33-1.16-0.5-2.14-0.5h-1.73V261.04z"/>
	<path d="M701.82,266.93h-1.33v-10.24h-3.62v-1.18h8.56v1.18h-3.62V266.93z"/>
	<path d="M713.6,263.89c0,1.01-0.36,1.79-1.09,2.35s-1.72,0.84-2.97,0.84c-1.35,0-2.4-0.17-3.12-0.52v-1.28
		c0.47,0.2,0.98,0.35,1.53,0.47c0.55,0.12,1.1,0.17,1.64,0.17c0.89,0,1.55-0.17,2-0.5s0.67-0.8,0.67-1.4c0-0.4-0.08-0.72-0.24-0.97
		c-0.16-0.25-0.42-0.49-0.8-0.7c-0.37-0.21-0.94-0.46-1.7-0.73c-1.06-0.38-1.82-0.83-2.28-1.35c-0.46-0.52-0.68-1.2-0.68-2.04
		c0-0.88,0.33-1.58,0.99-2.1c0.66-0.52,1.54-0.78,2.62-0.78c1.14,0,2.18,0.21,3.13,0.62l-0.41,1.16c-0.94-0.4-1.86-0.59-2.75-0.59
		c-0.7,0-1.25,0.15-1.65,0.45c-0.4,0.3-0.59,0.72-0.59,1.26c0,0.4,0.07,0.72,0.22,0.97c0.15,0.25,0.39,0.48,0.74,0.7
		s0.88,0.44,1.59,0.7c1.2,0.43,2.02,0.89,2.47,1.38C713.38,262.47,713.6,263.11,713.6,263.89z"/>
</g>
<g>
	<path d="M678.26,293.26l-3.88-10.12h-0.06c0.07,0.8,0.11,1.75,0.11,2.86v7.27h-1.23v-11.42h2l3.62,9.42h0.06l3.65-9.42h1.98v11.42
		h-1.33v-7.36c0-0.84,0.04-1.76,0.11-2.75h-0.06l-3.91,10.11H678.26z"/>
	<path d="M692.54,282.86c-1.25,0-2.25,0.42-2.97,1.25s-1.09,1.98-1.09,3.43c0,1.5,0.35,2.65,1.05,3.46s1.7,1.22,3,1.22
		c0.8,0,1.71-0.14,2.73-0.43v1.16c-0.79,0.3-1.77,0.45-2.93,0.45c-1.68,0-2.98-0.51-3.89-1.53s-1.37-2.47-1.37-4.35
		c0-1.18,0.22-2.21,0.66-3.09s1.08-1.57,1.91-2.05s1.81-0.72,2.93-0.72c1.2,0,2.25,0.22,3.14,0.66l-0.56,1.14
		C694.27,283.07,693.41,282.86,692.54,282.86z"/>
	<path d="M697.74,293.26v-11.42h1.33v10.22h5.04v1.2H697.74z"/>
	<path d="M707.38,288.51v4.75h-1.33v-11.42h3.13c1.4,0,2.44,0.27,3.11,0.8s1,1.34,1,2.42c0,1.51-0.77,2.53-2.3,3.06l3.1,5.13h-1.57
		l-2.77-4.75H707.38z M707.38,287.37h1.82c0.94,0,1.62-0.19,2.06-0.56s0.66-0.93,0.66-1.68c0-0.75-0.22-1.3-0.67-1.63
		s-1.16-0.5-2.14-0.5h-1.73V287.37z"/>
</g>
<line class="st5" x1="573.33" y1="288.57" x2="613.83" y2="288.57"/>
<line class="st5" x1="673.33" y1="278.57" x2="713.83" y2="278.57"/>
<line class="st1" x1="529.37" y1="69.75" x2="594.37" y2="69.75"/>
<g>
	<g>
		<line class="st1" x1="595.77" y1="57.25" x2="595.77" y2="82.25"/>
		<g>
			<path d="M621.37,57.63v24.25l-21-12.12L621.37,57.63 M624.37,52.43l-30,17.32l30,17.32V52.43L624.37,52.43z"/>
		</g>
	</g>
	<line class="st1" x1="594.27" y1="57.25" x2="602.27" y2="57.25"/>
	<line class="st1" x1="597.27" y1="82.25" x2="589.27" y2="82.25"/>
</g>
<line class="st1" x1="719.37" y1="197.24" x2="694.37" y2="197.24"/>
<line class="st2" x1="694.37" y1="197.24" x2="694.37" y2="69.75"/>
<line class="st2" x1="694.37" y1="69.75" x2="624.37" y2="69.75"/>
<g>
	<path d="M168.12,367.42l-1.42-3.63h-4.58l-1.41,3.63h-1.34l4.52-11.47H165l4.49,11.47H168.12z M166.28,362.59l-1.33-3.54
		c-0.17-0.45-0.35-1-0.53-1.65c-0.11,0.5-0.28,1.05-0.49,1.65l-1.34,3.54H166.28z"/>
	<path d="M180.18,361.6c0,1.89-0.51,3.33-1.54,4.32s-2.5,1.5-4.42,1.5h-3.16v-11.42h3.5c1.78,0,3.16,0.49,4.14,1.48
		S180.18,359.83,180.18,361.6z M178.78,361.64c0-1.49-0.37-2.61-1.12-3.37c-0.75-0.75-1.86-1.13-3.33-1.13h-1.93v9.12h1.62
		c1.58,0,2.77-0.39,3.57-1.17S178.78,363.17,178.78,361.64z"/>
	<path d="M183.38,367.42l4.73-10.23h-6.23v-1.2h7.6v1.04l-4.67,10.38H183.38z"/>
	<path d="M198.17,358.68c0,0.73-0.2,1.33-0.61,1.79c-0.41,0.46-0.99,0.77-1.74,0.93v0.06c0.92,0.11,1.6,0.41,2.04,0.88
		c0.44,0.47,0.66,1.08,0.66,1.84c0,1.09-0.38,1.93-1.13,2.51c-0.76,0.59-1.83,0.88-3.22,0.88c-0.6,0-1.16-0.05-1.66-0.14
		c-0.5-0.09-0.99-0.25-1.46-0.48v-1.23c0.49,0.25,1.02,0.43,1.58,0.56c0.56,0.13,1.09,0.19,1.59,0.19c1.97,0,2.96-0.77,2.96-2.32
		c0-1.39-1.09-2.08-3.27-2.08h-1.12v-1.12h1.14c0.89,0,1.6-0.2,2.12-0.59c0.52-0.39,0.78-0.94,0.78-1.64c0-0.56-0.19-1-0.57-1.31
		s-0.9-0.48-1.56-0.48c-0.5,0-0.97,0.07-1.41,0.2c-0.44,0.14-0.95,0.39-1.52,0.75l-0.66-0.88c0.47-0.37,1.01-0.66,1.62-0.87
		c0.61-0.21,1.26-0.32,1.93-0.32c1.11,0,1.97,0.25,2.59,0.76C197.86,357.1,198.17,357.8,198.17,358.68z"/>
	<path d="M207.74,367.42h-7.51v-1.12l3.01-3.02c0.92-0.93,1.52-1.59,1.81-1.98c0.29-0.4,0.51-0.78,0.66-1.16
		c0.15-0.38,0.22-0.78,0.22-1.21c0-0.61-0.19-1.09-0.55-1.45c-0.37-0.36-0.88-0.54-1.54-0.54c-0.47,0-0.92,0.08-1.35,0.23
		c-0.42,0.16-0.9,0.44-1.42,0.85l-0.69-0.88c1.05-0.88,2.2-1.31,3.44-1.31c1.07,0,1.91,0.27,2.52,0.82s0.91,1.29,0.91,2.21
		c0,0.72-0.2,1.44-0.61,2.15s-1.17,1.6-2.28,2.69l-2.5,2.45v0.06h5.88V367.42z"/>
	<path d="M216.46,358.68c0,0.73-0.2,1.33-0.61,1.79c-0.41,0.46-0.99,0.77-1.74,0.93v0.06c0.92,0.11,1.6,0.41,2.04,0.88
		c0.44,0.47,0.66,1.08,0.66,1.84c0,1.09-0.38,1.93-1.13,2.51c-0.76,0.59-1.83,0.88-3.22,0.88c-0.6,0-1.16-0.05-1.66-0.14
		c-0.5-0.09-0.99-0.25-1.46-0.48v-1.23c0.49,0.25,1.02,0.43,1.58,0.56c0.56,0.13,1.09,0.19,1.59,0.19c1.97,0,2.96-0.77,2.96-2.32
		c0-1.39-1.09-2.08-3.27-2.08h-1.12v-1.12h1.14c0.89,0,1.6-0.2,2.12-0.59c0.52-0.39,0.78-0.94,0.78-1.64c0-0.56-0.19-1-0.57-1.31
		s-0.9-0.48-1.56-0.48c-0.5,0-0.97,0.07-1.41,0.2c-0.44,0.14-0.95,0.39-1.52,0.75l-0.66-0.88c0.47-0.37,1.01-0.66,1.62-0.87
		c0.61-0.21,1.26-0.32,1.93-0.32c1.11,0,1.97,0.25,2.59,0.76C216.16,357.1,216.46,357.8,216.46,358.68z"/>
</g>
<g>
	<path d="M448.18,359.32c0,1.16-0.39,2.05-1.18,2.67s-1.92,0.93-3.39,0.93h-1.34v4.49h-1.33v-11.42h2.96
		C446.75,355.99,448.18,357.1,448.18,359.32z M442.27,361.78h1.2c1.18,0,2.03-0.19,2.55-0.57c0.53-0.38,0.79-0.99,0.79-1.83
		c0-0.75-0.25-1.32-0.74-1.69c-0.5-0.37-1.27-0.55-2.31-0.55h-1.48V361.78z"/>
	<path d="M450.57,367.42v-11.42h1.33v11.42H450.57z"/>
	<path d="M459.92,357.02c-1.26,0-2.25,0.42-2.97,1.25s-1.09,1.98-1.09,3.43c0,1.5,0.35,2.65,1.05,3.46c0.7,0.82,1.7,1.22,3,1.22
		c0.8,0,1.71-0.14,2.73-0.43v1.16c-0.79,0.3-1.77,0.45-2.93,0.45c-1.68,0-2.98-0.51-3.89-1.53s-1.37-2.47-1.37-4.35
		c0-1.18,0.22-2.21,0.66-3.09c0.44-0.89,1.08-1.57,1.91-2.05c0.83-0.48,1.81-0.72,2.93-0.72c1.2,0,2.24,0.22,3.14,0.66l-0.56,1.14
		C461.65,357.22,460.79,357.02,459.92,357.02z"/>
	<path d="M469.14,367.42h-1.27v-8.14c0-0.68,0.02-1.32,0.06-1.92c-0.11,0.11-0.23,0.22-0.37,0.34c-0.14,0.12-0.76,0.63-1.86,1.52
		l-0.69-0.89l3.02-2.34h1.09V367.42z"/>
	<path d="M473.62,362.53c0-2.25,0.44-3.92,1.31-5.04c0.87-1.11,2.16-1.67,3.87-1.67c0.59,0,1.05,0.05,1.39,0.15v1.12
		c-0.4-0.13-0.86-0.2-1.38-0.2c-1.22,0-2.16,0.38-2.8,1.14c-0.65,0.76-1,1.96-1.06,3.6h0.09c0.57-0.9,1.48-1.34,2.72-1.34
		c1.03,0,1.83,0.31,2.43,0.93c0.59,0.62,0.89,1.46,0.89,2.52c0,1.19-0.32,2.12-0.97,2.8s-1.53,1.02-2.63,1.02
		c-1.18,0-2.12-0.44-2.81-1.33C473.96,365.35,473.62,364.12,473.62,362.53z M477.46,366.47c0.74,0,1.31-0.23,1.72-0.7
		c0.41-0.47,0.61-1.14,0.61-2.02c0-0.75-0.19-1.35-0.57-1.78c-0.38-0.43-0.95-0.65-1.7-0.65c-0.47,0-0.9,0.1-1.29,0.29
		s-0.7,0.46-0.93,0.8c-0.23,0.34-0.35,0.69-0.35,1.05c0,0.54,0.1,1.04,0.31,1.5c0.21,0.46,0.5,0.83,0.89,1.1
		S476.96,366.47,477.46,366.47z"/>
	<path d="M484.75,367.42h-1.33v-11.42h6.37v1.18h-5.04v4.18h4.73v1.18h-4.73V367.42z"/>
	<path d="M495.7,367.42h-1.27v-8.14c0-0.68,0.02-1.32,0.06-1.92c-0.11,0.11-0.23,0.22-0.37,0.34c-0.14,0.12-0.76,0.63-1.86,1.52
		l-0.69-0.89l3.02-2.34h1.09V367.42z"/>
	<path d="M503.82,355.83c1.04,0,1.87,0.24,2.48,0.73s0.91,1.15,0.91,2.01c0,0.56-0.17,1.08-0.52,1.54
		c-0.35,0.46-0.91,0.89-1.67,1.27c0.93,0.44,1.59,0.91,1.98,1.39s0.59,1.05,0.59,1.69c0,0.95-0.33,1.7-0.99,2.27
		c-0.66,0.57-1.57,0.85-2.72,0.85c-1.22,0-2.16-0.27-2.81-0.8s-0.98-1.29-0.98-2.27c0-1.31,0.8-2.33,2.39-3.05
		c-0.72-0.41-1.23-0.84-1.55-1.32s-0.47-1-0.47-1.58c0-0.83,0.31-1.49,0.92-1.98C501.98,356.08,502.8,355.83,503.82,355.83z
		 M501.35,364.53c0,0.62,0.22,1.11,0.65,1.46c0.43,0.35,1.04,0.52,1.83,0.52c0.78,0,1.38-0.18,1.81-0.55
		c0.43-0.36,0.65-0.86,0.65-1.5c0-0.5-0.2-0.95-0.61-1.35s-1.12-0.77-2.12-1.14c-0.78,0.33-1.34,0.7-1.69,1.11
		C501.53,363.49,501.35,363.97,501.35,364.53z M503.81,356.89c-0.65,0-1.16,0.16-1.53,0.47c-0.37,0.31-0.55,0.73-0.55,1.25
		c0,0.48,0.15,0.89,0.46,1.23c0.31,0.34,0.88,0.69,1.7,1.03c0.74-0.31,1.27-0.65,1.58-1.01c0.31-0.36,0.46-0.78,0.46-1.26
		c0-0.53-0.19-0.94-0.57-1.25C504.99,357.04,504.47,356.89,503.81,356.89z"/>
	<path d="M516.7,367.42h-7.51v-1.12l3.01-3.02c0.92-0.93,1.52-1.59,1.81-1.98c0.29-0.4,0.51-0.78,0.66-1.16
		c0.15-0.38,0.22-0.78,0.22-1.21c0-0.61-0.19-1.09-0.55-1.45c-0.37-0.36-0.88-0.54-1.54-0.54c-0.47,0-0.92,0.08-1.35,0.23
		c-0.42,0.16-0.9,0.44-1.42,0.85l-0.69-0.88c1.05-0.88,2.2-1.31,3.44-1.31c1.07,0,1.91,0.27,2.52,0.82s0.91,1.29,0.91,2.21
		c0,0.72-0.2,1.44-0.61,2.15s-1.17,1.6-2.28,2.69l-2.5,2.45v0.06h5.88V367.42z"/>
	<path d="M521.91,360.44c1.2,0,2.15,0.3,2.84,0.89c0.69,0.6,1.04,1.41,1.04,2.45c0,1.18-0.38,2.11-1.13,2.78
		c-0.75,0.67-1.79,1.01-3.11,1.01c-1.29,0-2.27-0.21-2.95-0.62v-1.25c0.36,0.23,0.82,0.42,1.36,0.55c0.54,0.13,1.08,0.2,1.6,0.2
		c0.92,0,1.63-0.22,2.14-0.65s0.76-1.06,0.76-1.88c0-1.59-0.98-2.39-2.93-2.39c-0.5,0-1.16,0.08-1.98,0.23l-0.67-0.43l0.43-5.34
		h5.68v1.2h-4.57l-0.29,3.43C520.72,360.5,521.31,360.44,521.91,360.44z"/>
</g>
<line class="st2" x1="719.37" y1="322.24" x2="694.37" y2="322.24"/>
<g>
	<line class="st3" x1="689.07" y1="327.54" x2="699.67" y2="316.94"/>
	<line class="st3" x1="699.67" y1="327.54" x2="689.07" y2="316.94"/>
</g>
<circle cx="644.37" cy="298.57" r="5"/>
<line class="st6" x1="644.37" y1="298.57" x2="644.37" y2="373.57"/>
<line class="st7" x1="644.37" y1="373.57" x2="669.37" y2="373.57"/>
<g>
	<polyline class="st8" points="704.45,373.57 701.53,363.57 695.68,383.57 689.84,363.57 683.99,383.57 678.15,363.57 672.3,383.57 
		669.37,373.57 	"/>
</g>
<line class="st2" x1="704.45" y1="373.57" x2="729.45" y2="373.57"/>
<circle class="st4" cx="729.97" cy="373.57" r="7.5"/>
<g>
	<path d="M748.85,366.84h1.43l-4.12,11.42h-1.31l-4.09-11.42h1.41l2.62,7.39c0.3,0.85,0.54,1.67,0.72,2.48
		c0.19-0.84,0.43-1.68,0.73-2.52L748.85,366.84z"/>
	<path d="M756.74,367.86c-1.25,0-2.25,0.42-2.97,1.25s-1.09,1.98-1.09,3.43c0,1.5,0.35,2.65,1.05,3.46c0.7,0.82,1.7,1.22,3,1.22
		c0.8,0,1.71-0.14,2.73-0.43v1.16c-0.79,0.3-1.77,0.45-2.93,0.45c-1.68,0-2.98-0.51-3.89-1.53c-0.91-1.02-1.37-2.47-1.37-4.35
		c0-1.18,0.22-2.21,0.66-3.09c0.44-0.88,1.08-1.57,1.91-2.05c0.83-0.48,1.81-0.72,2.93-0.72c1.2,0,2.25,0.22,3.14,0.66l-0.56,1.14
		C758.47,368.06,757.6,367.86,756.74,367.86z"/>
	<path d="M766.83,367.86c-1.25,0-2.25,0.42-2.97,1.25s-1.09,1.98-1.09,3.43c0,1.5,0.35,2.65,1.05,3.46c0.7,0.82,1.7,1.22,3,1.22
		c0.8,0,1.71-0.14,2.73-0.43v1.16c-0.79,0.3-1.77,0.45-2.93,0.45c-1.68,0-2.98-0.51-3.89-1.53c-0.91-1.02-1.37-2.47-1.37-4.35
		c0-1.18,0.22-2.21,0.66-3.09c0.44-0.88,1.08-1.57,1.91-2.05c0.83-0.48,1.81-0.72,2.93-0.72c1.2,0,2.25,0.22,3.14,0.66l-0.56,1.14
		C768.56,368.06,767.7,367.86,766.83,367.86z"/>
</g>
<g>
	<path d="M674,355.63h-1.7v2.62h-1.24v-2.62h-5.55v-1.13l5.42-7.73h1.38v7.68h1.7V355.63z M671.07,354.45v-3.8
		c0-0.75,0.03-1.59,0.08-2.52h-0.06c-0.25,0.5-0.48,0.91-0.7,1.24l-3.57,5.08H671.07z"/>
	<path d="M675.51,357.43c0-0.35,0.08-0.61,0.24-0.79s0.39-0.27,0.68-0.27c0.3,0,0.54,0.09,0.71,0.27s0.25,0.44,0.25,0.79
		c0,0.34-0.09,0.6-0.26,0.78s-0.41,0.27-0.7,0.27c-0.27,0-0.49-0.08-0.66-0.25S675.51,357.81,675.51,357.43z"/>
	<path d="M680.81,358.26l4.73-10.23h-6.23v-1.2h7.6v1.04l-4.67,10.38H680.81z"/>
	<path d="M690.39,353.88c0.22-0.32,0.57-0.73,1.02-1.25l2.77-2.93h1.54l-3.47,3.65l3.71,4.91h-1.57l-3.02-4.05l-0.98,0.84v3.2h-1.28
		V346.1h1.28v6.45c0,0.29-0.02,0.73-0.06,1.33H690.39z"/>
	<path d="M702.39,347.85c-1.24,0-2.18,0.33-2.84,1s-0.98,1.66-0.98,2.98c0,1.17,0.23,2.19,0.68,3.06s1.14,1.64,2.08,2.33v1.04h-4.58
		v-1.19h2.84c-0.79-0.61-1.39-1.38-1.8-2.29s-0.62-1.9-0.62-2.95c0-1.61,0.46-2.88,1.38-3.8s2.2-1.38,3.84-1.38
		c1.64,0,2.92,0.45,3.84,1.36s1.38,2.17,1.38,3.8c0,1.08-0.21,2.07-0.62,2.97s-1.01,1.66-1.8,2.29h2.84v1.19h-4.58v-1.04
		c0.95-0.7,1.65-1.48,2.09-2.35s0.66-1.88,0.66-3.04c0-1.31-0.32-2.3-0.97-2.98S703.64,347.85,702.39,347.85z"/>
</g>
<g>
	<g>
		<polyline class="st9" points="666.37,308.91 666.37,310.41 664.87,310.41 		"/>
		<line class="st10" x1="662.54" y1="310.41" x2="659.04" y2="310.41"/>
		<polyline class="st9" points="657.87,310.41 656.37,310.41 656.37,308.91 		"/>
		<line class="st11" x1="656.37" y1="305.97" x2="656.37" y2="213.38"/>
		<polyline class="st9" points="656.37,211.91 656.37,210.41 657.87,210.41 		"/>
		<line class="st10" x1="660.2" y1="210.41" x2="663.7" y2="210.41"/>
		<polyline class="st9" points="664.87,210.41 666.37,210.41 666.37,211.91 		"/>
		<line class="st11" x1="666.37" y1="214.85" x2="666.37" y2="307.44"/>
	</g>
</g>
<line class="st9" x1="661.37" y1="210.41" x2="661.37" y2="135.41"/>
<line class="st12" x1="661.37" y1="135.41" x2="611.37" y2="135.41"/>
<g>
	<path class="st13" d="M572.94,140.09v-11.42h1.33v10.22h5.04v1.2H572.94z"/>
	<path class="st13" d="M587.61,140.09h-6.37v-11.42h6.37v1.18h-5.04v3.68h4.73v1.17h-4.73v4.2h5.04V140.09z"/>
	<path class="st13" d="M599.26,134.27c0,1.89-0.51,3.33-1.54,4.32c-1.02,1-2.5,1.5-4.42,1.5h-3.16v-11.42h3.5
		c1.78,0,3.16,0.49,4.14,1.48S599.26,132.51,599.26,134.27z M597.85,134.32c0-1.49-0.37-2.61-1.12-3.37
		c-0.75-0.75-1.86-1.13-3.33-1.13h-1.93v9.12h1.62c1.58,0,2.77-0.39,3.57-1.17C597.46,137,597.85,135.85,597.85,134.32z"/>
	<path class="st13" d="M607.13,137.76c0,0.8-0.3,1.41-0.89,1.84c-0.59,0.43-1.43,0.65-2.5,0.65c-1.14,0-2.02-0.18-2.66-0.54v-1.2
		c0.41,0.21,0.85,0.37,1.32,0.49c0.47,0.12,0.93,0.18,1.36,0.18c0.68,0,1.2-0.11,1.56-0.32c0.36-0.22,0.55-0.55,0.55-0.99
		c0-0.33-0.14-0.62-0.43-0.86c-0.29-0.24-0.85-0.52-1.69-0.84c-0.8-0.3-1.36-0.56-1.7-0.78c-0.34-0.22-0.59-0.47-0.75-0.75
		s-0.25-0.62-0.25-1.01c0-0.7,0.28-1.25,0.85-1.65c0.57-0.4,1.35-0.61,2.34-0.61c0.92,0,1.82,0.19,2.7,0.56l-0.46,1.05
		c-0.86-0.35-1.64-0.53-2.34-0.53c-0.61,0-1.08,0.1-1.39,0.29c-0.31,0.19-0.47,0.46-0.47,0.8c0,0.23,0.06,0.42,0.18,0.59
		c0.12,0.16,0.31,0.32,0.57,0.46c0.26,0.15,0.76,0.36,1.5,0.63c1.02,0.37,1.7,0.74,2.06,1.12S607.13,137.19,607.13,137.76z"/>
	<path class="st13" d="M543.44,154.91c0-1.38,0.2-2.67,0.61-3.88s0.99-2.26,1.75-3.16h1.27c-0.75,1.01-1.31,2.11-1.69,3.31
		s-0.57,2.44-0.57,3.71c0,1.25,0.19,2.47,0.58,3.66s0.94,2.28,1.66,3.27h-1.25c-0.77-0.89-1.35-1.92-1.75-3.1
		S543.44,156.27,543.44,154.91z"/>
	<path class="st13" d="M556.29,159.29l-1.42-3.63h-4.58l-1.41,3.63h-1.34l4.52-11.47h1.12l4.49,11.47H556.29z M554.45,154.47
		l-1.33-3.54c-0.17-0.45-0.35-1-0.53-1.65c-0.11,0.5-0.28,1.05-0.49,1.65l-1.34,3.54H554.45z"/>
	<path class="st13" d="M562.46,159.45c-1.24,0-2.2-0.38-2.88-1.14c-0.68-0.76-1.02-1.84-1.02-3.24c0-1.43,0.34-2.54,1.04-3.32
		s1.67-1.17,2.95-1.17c0.41,0,0.82,0.04,1.23,0.13c0.41,0.09,0.73,0.19,0.97,0.31l-0.4,1.1c-0.29-0.11-0.6-0.21-0.94-0.29
		c-0.34-0.08-0.64-0.11-0.9-0.11c-1.74,0-2.61,1.11-2.61,3.33c0,1.05,0.21,1.86,0.64,2.42s1.05,0.84,1.89,0.84
		c0.71,0,1.45-0.15,2.2-0.46v1.15C564.05,159.3,563.33,159.45,562.46,159.45z"/>
	<path class="st13" d="M569.42,158.38c0.23,0,0.45-0.02,0.66-0.05c0.21-0.03,0.38-0.07,0.51-0.11v0.99
		c-0.14,0.07-0.35,0.12-0.62,0.17c-0.27,0.04-0.52,0.07-0.74,0.07c-1.66,0-2.48-0.87-2.48-2.62v-5.09h-1.23v-0.62l1.23-0.54
		l0.55-1.83h0.75v1.98h2.48v1.01h-2.48v5.04c0,0.52,0.12,0.91,0.37,1.19C568.66,158.24,568.99,158.38,569.42,158.38z"/>
	<path class="st13" d="M572.19,148.41c0-0.3,0.07-0.51,0.22-0.65c0.15-0.14,0.33-0.21,0.55-0.21c0.21,0,0.39,0.07,0.54,0.21
		s0.23,0.36,0.23,0.65c0,0.29-0.08,0.51-0.23,0.65c-0.15,0.14-0.33,0.21-0.54,0.21c-0.22,0-0.4-0.07-0.55-0.21
		C572.27,148.92,572.19,148.7,572.19,148.41z M573.6,159.29h-1.3v-8.56h1.3V159.29z"/>
	<path class="st13" d="M578.22,159.29l-3.25-8.56h1.39l1.84,5.08c0.42,1.19,0.66,1.96,0.73,2.31h0.06c0.06-0.28,0.24-0.85,0.54-1.71
		s0.99-2.76,2.05-5.68h1.39l-3.25,8.56H578.22z"/>
	<path class="st13" d="M587.98,159.45c-1.27,0-2.26-0.39-3-1.16c-0.73-0.77-1.1-1.84-1.1-3.21c0-1.38,0.34-2.48,1.02-3.29
		s1.59-1.22,2.74-1.22c1.07,0,1.92,0.35,2.55,1.06c0.62,0.71,0.94,1.64,0.94,2.79v0.82h-5.9c0.03,1.01,0.28,1.77,0.76,2.29
		c0.48,0.52,1.16,0.78,2.04,0.78c0.92,0,1.83-0.19,2.73-0.58v1.16c-0.46,0.2-0.89,0.34-1.3,0.43S588.56,159.45,587.98,159.45z
		 M587.63,151.66c-0.69,0-1.24,0.22-1.64,0.67c-0.41,0.45-0.65,1.07-0.72,1.86h4.48c0-0.82-0.18-1.44-0.55-1.88
		C588.83,151.88,588.31,151.66,587.63,151.66z"/>
	<path class="st13" d="M597.69,159.29v-11.42h1.33v10.22h5.04v1.2H597.69z"/>
	<path class="st13" d="M615.91,153.57c0,1.83-0.46,3.27-1.39,4.31s-2.21,1.57-3.86,1.57c-1.68,0-2.98-0.51-3.89-1.54
		c-0.91-1.03-1.37-2.48-1.37-4.36c0-1.86,0.46-3.3,1.38-4.32s2.22-1.54,3.91-1.54c1.64,0,2.92,0.52,3.84,1.56
		C615.45,150.3,615.91,151.74,615.91,153.57z M606.81,153.57c0,1.55,0.33,2.72,0.99,3.52c0.66,0.8,1.62,1.2,2.87,1.2
		c1.27,0,2.22-0.4,2.87-1.2s0.97-1.97,0.97-3.52c0-1.54-0.32-2.7-0.96-3.5c-0.64-0.79-1.59-1.19-2.86-1.19
		c-1.27,0-2.23,0.4-2.89,1.2C607.14,150.88,606.81,152.04,606.81,153.57z"/>
	<path class="st13" d="M628.43,159.29h-1.31l-2.3-7.65c-0.11-0.34-0.23-0.77-0.37-1.28s-0.21-0.83-0.21-0.93
		c-0.11,0.69-0.3,1.44-0.55,2.26l-2.23,7.6h-1.31l-3.04-11.42h1.41l1.8,7.05c0.25,0.99,0.43,1.89,0.55,2.69
		c0.14-0.95,0.35-1.89,0.62-2.8l2.05-6.95h1.41l2.15,7.01c0.25,0.81,0.46,1.72,0.63,2.73c0.1-0.74,0.29-1.64,0.56-2.7l1.8-7.04h1.41
		L628.43,159.29z"/>
	<path class="st13" d="M635.79,154.91c0,1.37-0.2,2.65-0.61,3.83s-0.99,2.21-1.75,3.09h-1.25c0.72-0.98,1.28-2.07,1.66-3.26
		s0.58-2.42,0.58-3.67c0-1.27-0.19-2.51-0.57-3.71s-0.94-2.31-1.69-3.31h1.27c0.77,0.91,1.35,1.97,1.75,3.18
		C635.59,152.25,635.79,153.54,635.79,154.91z"/>
</g>
<g>
	<g>
		<polyline class="st9" points="122.56,308.91 122.56,310.41 121.06,310.41 		"/>
		<line class="st10" x1="118.72" y1="310.41" x2="115.22" y2="310.41"/>
		<polyline class="st9" points="114.06,310.41 112.56,310.41 112.56,308.91 		"/>
		<line class="st11" x1="112.56" y1="305.97" x2="112.56" y2="213.38"/>
		<polyline class="st9" points="112.56,211.91 112.56,210.41 114.06,210.41 		"/>
		<line class="st10" x1="116.39" y1="210.41" x2="119.89" y2="210.41"/>
		<polyline class="st9" points="121.06,210.41 122.56,210.41 122.56,211.91 		"/>
		<line class="st11" x1="122.56" y1="214.85" x2="122.56" y2="307.44"/>
	</g>
</g>
<g>
	<polyline class="st8" points="80.08,49.02 77.16,39.02 71.31,59.02 65.47,39.02 59.63,59.02 53.78,39.02 47.93,59.02 45,49.02 	"/>
</g>
<g>
	<polyline class="st8" points="105.08,109.1 115.08,106.18 95.08,100.34 115.08,94.49 95.08,88.65 115.08,82.8 95.08,76.95 
		105.08,74.02 	"/>
</g>
<line class="st8" x1="80.08" y1="49.02" x2="105.08" y2="49.02"/>
<line class="st8" x1="105.08" y1="49.02" x2="105.08" y2="74.02"/>
<line class="st14" x1="105.08" y1="109.1" x2="105.08" y2="134.1"/>
<g>
	<line class="st3" x1="95.08" y1="134.1" x2="115.08" y2="134.1"/>
	<line class="st3" x1="97.58" y1="139.1" x2="112.58" y2="139.1"/>
	<line class="st3" x1="100.08" y1="144.1" x2="110.08" y2="144.1"/>
	<line class="st3" x1="102.58" y1="149.1" x2="107.58" y2="149.1"/>
</g>
<line class="st14" x1="45" y1="49.02" x2="20" y2="49.02"/>
<line class="st14" x1="105.08" y1="49.02" x2="171.28" y2="49.02"/>
<g>
	<path d="M40.79,22.12c1.04,0,1.87,0.24,2.48,0.73s0.91,1.15,0.91,2.01c0,0.56-0.17,1.08-0.52,1.54c-0.35,0.46-0.91,0.89-1.67,1.27
		c0.93,0.44,1.59,0.91,1.98,1.39c0.39,0.49,0.59,1.05,0.59,1.69c0,0.95-0.33,1.7-0.99,2.27c-0.66,0.57-1.57,0.85-2.72,0.85
		c-1.22,0-2.16-0.27-2.81-0.8c-0.66-0.53-0.98-1.29-0.98-2.27c0-1.31,0.8-2.33,2.39-3.05c-0.72-0.41-1.23-0.84-1.55-1.32
		c-0.31-0.47-0.47-1-0.47-1.58c0-0.83,0.31-1.49,0.92-1.98C38.95,22.37,39.77,22.12,40.79,22.12z M38.33,30.83
		c0,0.62,0.22,1.11,0.65,1.46c0.43,0.35,1.05,0.52,1.83,0.52c0.78,0,1.38-0.18,1.81-0.55c0.43-0.36,0.65-0.86,0.65-1.5
		c0-0.5-0.2-0.95-0.61-1.35c-0.41-0.39-1.11-0.77-2.12-1.14c-0.78,0.33-1.34,0.7-1.69,1.11C38.5,29.78,38.33,30.27,38.33,30.83z
		 M40.78,23.18c-0.65,0-1.16,0.16-1.53,0.47c-0.37,0.31-0.55,0.73-0.55,1.25c0,0.48,0.15,0.89,0.46,1.23
		c0.31,0.34,0.88,0.69,1.7,1.03c0.74-0.31,1.27-0.65,1.58-1.01c0.31-0.36,0.46-0.78,0.46-1.26c0-0.53-0.19-0.94-0.57-1.25
		C41.96,23.33,41.44,23.18,40.78,23.18z"/>
	<path d="M49.94,22.12c1.04,0,1.87,0.24,2.48,0.73s0.91,1.15,0.91,2.01c0,0.56-0.17,1.08-0.52,1.54c-0.35,0.46-0.91,0.89-1.67,1.27
		c0.93,0.44,1.59,0.91,1.98,1.39c0.39,0.49,0.59,1.05,0.59,1.69c0,0.95-0.33,1.7-0.99,2.27c-0.66,0.57-1.57,0.85-2.72,0.85
		c-1.22,0-2.16-0.27-2.81-0.8c-0.66-0.53-0.98-1.29-0.98-2.27c0-1.31,0.8-2.33,2.39-3.05c-0.72-0.41-1.23-0.84-1.55-1.32
		c-0.31-0.47-0.47-1-0.47-1.58c0-0.83,0.31-1.49,0.92-1.98C48.1,22.37,48.92,22.12,49.94,22.12z M47.47,30.83
		c0,0.62,0.22,1.11,0.65,1.46c0.43,0.35,1.05,0.52,1.83,0.52c0.78,0,1.38-0.18,1.81-0.55c0.43-0.36,0.65-0.86,0.65-1.5
		c0-0.5-0.2-0.95-0.61-1.35c-0.41-0.39-1.11-0.77-2.12-1.14c-0.78,0.33-1.34,0.7-1.69,1.11C47.65,29.78,47.47,30.27,47.47,30.83z
		 M49.93,23.18c-0.65,0-1.16,0.16-1.53,0.47c-0.37,0.31-0.55,0.73-0.55,1.25c0,0.48,0.15,0.89,0.46,1.23
		c0.31,0.34,0.88,0.69,1.7,1.03c0.74-0.31,1.27-0.65,1.58-1.01c0.31-0.36,0.46-0.78,0.46-1.26c0-0.53-0.19-0.94-0.57-1.25
		C51.11,23.33,50.59,23.18,49.93,23.18z"/>
	<path d="M55.72,32.88c0-0.35,0.08-0.61,0.24-0.79c0.16-0.18,0.39-0.27,0.68-0.27c0.3,0,0.54,0.09,0.71,0.27
		c0.17,0.18,0.25,0.44,0.25,0.79c0,0.34-0.09,0.6-0.26,0.78s-0.41,0.27-0.7,0.27c-0.27,0-0.49-0.08-0.66-0.25
		C55.8,33.53,55.72,33.26,55.72,32.88z"/>
	<path d="M67.61,31.09h-1.7v2.63h-1.24v-2.63h-5.55v-1.13l5.42-7.73h1.38v7.68h1.7V31.09z M64.68,29.91v-3.8
		c0-0.74,0.03-1.59,0.08-2.52h-0.06c-0.25,0.5-0.48,0.91-0.7,1.24l-3.57,5.08H64.68z"/>
	<path d="M70.59,29.33c0.22-0.32,0.56-0.73,1.02-1.25l2.77-2.93h1.54l-3.47,3.65l3.71,4.91h-1.57l-3.02-4.05l-0.98,0.84v3.2h-1.28
		V21.55h1.28V28c0,0.29-0.02,0.73-0.06,1.33H70.59z"/>
	<path d="M82.59,23.3c-1.24,0-2.19,0.33-2.84,1c-0.65,0.67-0.98,1.66-0.98,2.98c0,1.17,0.23,2.19,0.68,3.06
		c0.45,0.87,1.14,1.64,2.08,2.33v1.04h-4.58v-1.19h2.84c-0.79-0.61-1.39-1.38-1.8-2.29c-0.42-0.91-0.62-1.9-0.62-2.95
		c0-1.61,0.46-2.88,1.38-3.8c0.92-0.92,2.2-1.38,3.84-1.38c1.64,0,2.92,0.45,3.84,1.36c0.92,0.9,1.38,2.17,1.38,3.8
		c0,1.08-0.21,2.07-0.62,2.97c-0.41,0.9-1.01,1.66-1.8,2.29h2.84v1.19h-4.58v-1.04c0.95-0.7,1.65-1.48,2.09-2.35
		c0.44-0.87,0.66-1.88,0.66-3.04c0-1.31-0.32-2.3-0.97-2.98S83.84,23.3,82.59,23.3z"/>
</g>
<g>
	<path d="M127.06,89.7c0,4.47-1.73,6.7-5.19,6.7c-0.6,0-1.08-0.05-1.44-0.16v-1.12c0.42,0.14,0.89,0.2,1.42,0.2
		c1.25,0,2.19-0.39,2.83-1.16c0.64-0.77,0.99-1.96,1.04-3.56h-0.09c-0.29,0.43-0.67,0.76-1.14,0.99c-0.47,0.23-1.01,0.34-1.6,0.34
		c-1.01,0-1.81-0.3-2.41-0.91c-0.59-0.6-0.89-1.45-0.89-2.53c0-1.19,0.33-2.12,1-2.81s1.54-1.03,2.62-1.03c0.78,0,1.45,0.2,2.04,0.6
		c0.58,0.4,1.03,0.98,1.34,1.74C126.91,87.77,127.06,88.67,127.06,89.7z M123.22,85.77c-0.75,0-1.32,0.24-1.73,0.72
		c-0.41,0.48-0.61,1.15-0.61,2c0,0.75,0.19,1.34,0.56,1.77s0.95,0.64,1.71,0.64c0.47,0,0.91-0.1,1.31-0.29
		c0.4-0.19,0.71-0.46,0.94-0.79c0.23-0.33,0.34-0.68,0.34-1.05c0-0.55-0.11-1.05-0.32-1.52c-0.21-0.46-0.51-0.83-0.89-1.09
		S123.71,85.77,123.22,85.77z"/>
	<path d="M129.11,95.42c0-0.35,0.08-0.61,0.24-0.79c0.16-0.18,0.39-0.27,0.68-0.27c0.3,0,0.54,0.09,0.71,0.27
		c0.17,0.18,0.25,0.44,0.25,0.79c0,0.34-0.09,0.6-0.26,0.78s-0.41,0.27-0.7,0.27c-0.27,0-0.49-0.08-0.66-0.25
		C129.2,96.07,129.11,95.8,129.11,95.42z"/>
	<path d="M134.41,96.25l4.73-10.23h-6.23v-1.2h7.6v1.04l-4.67,10.38H134.41z"/>
	<path d="M142.24,91.37c0-2.24,0.44-3.92,1.31-5.04c0.87-1.11,2.16-1.67,3.87-1.67c0.59,0,1.05,0.05,1.39,0.15v1.12
		c-0.4-0.13-0.86-0.2-1.38-0.2c-1.22,0-2.16,0.38-2.8,1.14c-0.65,0.76-1,1.96-1.06,3.6h0.09c0.57-0.9,1.48-1.34,2.72-1.34
		c1.03,0,1.83,0.31,2.43,0.93c0.59,0.62,0.89,1.46,0.89,2.52c0,1.19-0.32,2.12-0.97,2.8s-1.52,1.02-2.63,1.02
		c-1.18,0-2.12-0.44-2.81-1.33C142.59,94.19,142.24,92.95,142.24,91.37z M146.08,95.31c0.74,0,1.31-0.23,1.72-0.7
		c0.41-0.47,0.61-1.14,0.61-2.02c0-0.75-0.19-1.35-0.57-1.78c-0.38-0.43-0.95-0.65-1.7-0.65c-0.47,0-0.9,0.1-1.29,0.29
		c-0.39,0.19-0.7,0.46-0.93,0.8c-0.23,0.34-0.35,0.69-0.35,1.05c0,0.54,0.1,1.04,0.31,1.5c0.21,0.46,0.5,0.83,0.89,1.1
		C145.15,95.17,145.59,95.31,146.08,95.31z"/>
	<path d="M153.13,91.87c0.22-0.32,0.56-0.73,1.02-1.25l2.77-2.93h1.54l-3.47,3.65l3.71,4.91h-1.57l-3.02-4.05l-0.98,0.84v3.2h-1.28
		V84.09h1.28v6.45c0,0.29-0.02,0.73-0.06,1.33H153.13z"/>
	<path d="M165.13,85.84c-1.24,0-2.19,0.33-2.84,1c-0.65,0.67-0.98,1.66-0.98,2.98c0,1.17,0.23,2.19,0.68,3.06
		c0.45,0.87,1.14,1.64,2.08,2.33v1.04h-4.58v-1.19h2.84c-0.79-0.61-1.39-1.38-1.8-2.29c-0.42-0.91-0.62-1.9-0.62-2.95
		c0-1.61,0.46-2.88,1.38-3.8c0.92-0.92,2.2-1.38,3.84-1.38c1.64,0,2.92,0.45,3.84,1.36c0.92,0.9,1.38,2.17,1.38,3.8
		c0,1.08-0.21,2.07-0.62,2.97c-0.41,0.9-1.01,1.66-1.8,2.29h2.84v1.19h-4.58v-1.04c0.95-0.7,1.65-1.48,2.09-2.35
		c0.44-0.87,0.66-1.88,0.66-3.04c0-1.31-0.32-2.3-0.97-2.98S166.38,85.84,165.13,85.84z"/>
</g>
<line class="st9" x1="117.56" y1="210.41" x2="117.56" y2="154.55"/>
<g>
	<g>
		<polyline class="st9" points="175.69,153.05 175.69,154.55 174.19,154.55 		"/>
		<line class="st15" x1="171.23" y1="154.55" x2="18.68" y2="154.55"/>
		<polyline class="st9" points="17.19,154.55 15.69,154.55 15.69,153.05 		"/>
		<line class="st16" x1="15.69" y1="150.01" x2="15.69" y2="17.57"/>
		<polyline class="st9" points="15.69,16.05 15.69,14.55 17.19,14.55 		"/>
		<line class="st15" x1="20.16" y1="14.55" x2="172.71" y2="14.55"/>
		<polyline class="st9" points="174.19,14.55 175.69,14.55 175.69,16.05 		"/>
		<line class="st16" x1="175.69" y1="19.1" x2="175.69" y2="151.53"/>
	</g>
</g>
<g>
</g>
<g>
</g>
<g>
</g>
<g>
</g>
<g>
</g>
<g>
</g>
<g>
</g>
<g>
</g>
<g>
</g>
<g>
</g>
<g>
</g>
<g>
</g>
</svg>
