<?xml version="1.0" encoding="utf-8"?>
<!-- Generator: Adobe Illustrator 25.2.3, SVG Export Plug-In . SVG Version: 6.00 Build 0)  -->
<!DOCTYPE svg PUBLIC "-//W3C//DTD SVG 1.1//EN" "http://www.w3.org/Graphics/SVG/1.1/DTD/svg11.dtd" [
	<!ENTITY ns_extend "http://ns.adobe.com/Extensibility/1.0/">
	<!ENTITY ns_ai "http://ns.adobe.com/AdobeIllustrator/10.0/">
	<!ENTITY ns_graphs "http://ns.adobe.com/Graphs/1.0/">
	<!ENTITY ns_vars "http://ns.adobe.com/Variables/1.0/">
	<!ENTITY ns_imrep "http://ns.adobe.com/ImageReplacement/1.0/">
	<!ENTITY ns_sfw "http://ns.adobe.com/SaveForWeb/1.0/">
	<!ENTITY ns_custom "http://ns.adobe.com/GenericCustomNamespace/1.0/">
	<!ENTITY ns_adobe_xpath "http://ns.adobe.com/XPath/1.0/">
]>
<svg version="1.1" id="Default" xmlns:x="&ns_extend;" xmlns:i="&ns_ai;" xmlns:graph="&ns_graphs;"
	 xmlns="http://www.w3.org/2000/svg" xmlns:xlink="http://www.w3.org/1999/xlink" x="0px" y="0px" viewBox="0 0 483 172"
	 style="enable-background:new 0 0 483 172;" xml:space="preserve">
<style type="text/css">
	.st0{fill:#FFFFFF;}
	.st1{fill:none;}
	.st2{fill:none;stroke:#000000;stroke-width:3;}
	.st3{fill:none;stroke:#000000;stroke-width:1.5;}
	.st4{fill:#FFFFFF;stroke:#000000;stroke-width:1.5;}
	.st5{enable-background:new    ;}
	.st6{fill:#F70000;}
	.st7{fill:#63C100;}
	.st8{fill:none;stroke:#000000;stroke-width:1.5;stroke-miterlimit:10;}
</style>
<metadata>
	<sfw  xmlns="&ns_sfw;">
		<slices></slices>
		<sliceSourceBounds  bottomLeftOrigin="true" height="210.1" width="486.2" x="-3.2" y="0"></sliceSourceBounds>
	</sfw>
</metadata>
<rect class="st0" width="483" height="172"/>
<path class="st1" d="M-3.2-6.5"/>
<polygon class="st2" points="68.8,1.5 389,1.5 389,169.6 52.8,169.6 52.8,17.5 "/>
<polyline class="st3" points="8.8,41.5 0.8,41.5 0.8,129.6 8.8,129.6 "/>
<polyline class="st3" points="445,41.5 453,41.5 453,129.6 445,129.6 "/>
<rect x="381" y="113.6" class="st4" width="16" height="16"/>
<rect x="381" y="41.5" class="st4" width="16" height="16"/>
<rect x="381" y="65.5" class="st4" width="16" height="16"/>
<rect x="381" y="89.6" class="st4" width="16" height="16"/>
<rect x="381" y="137.6" class="st4" width="16" height="16"/>
<rect x="381" y="17.5" class="st4" width="16" height="16"/>
<g class="st5">
	<path d="M387,29.5h-1.5v-5.6c-0.5,0.5-1.2,0.9-1.9,1.1v-1.4c0.4-0.1,0.8-0.4,1.3-0.7c0.5-0.4,0.8-0.8,0.9-1.2h1.2L387,29.5
		L387,29.5z"/>
	<path d="M394.2,28.1v1.4H389c0.1-0.5,0.2-1,0.5-1.5c0.3-0.5,0.8-1.1,1.7-1.9c0.7-0.6,1.1-1,1.2-1.3c0.2-0.3,0.3-0.6,0.3-0.9
		c0-0.3-0.1-0.6-0.3-0.8s-0.4-0.3-0.7-0.3c-0.3,0-0.6,0.1-0.7,0.3s-0.3,0.5-0.3,0.9l-1.5-0.1c0.1-0.8,0.4-1.4,0.8-1.8
		c0.5-0.4,1-0.5,1.7-0.5c0.8,0,1.4,0.2,1.8,0.6s0.6,0.9,0.6,1.5c0,0.4-0.1,0.7-0.2,1c-0.1,0.3-0.3,0.6-0.6,1c-0.2,0.2-0.5,0.6-1,1
		s-0.8,0.7-0.9,0.9c-0.1,0.1-0.2,0.3-0.3,0.4H394.2z"/>
</g>
<g class="st5">
	<path d="M387.3,53.5h-1.5v-5.6c-0.5,0.5-1.2,0.9-1.9,1.1v-1.3c0.4-0.1,0.8-0.4,1.3-0.7c0.5-0.3,0.8-0.8,0.9-1.2h1.2L387.3,53.5
		L387.3,53.5z"/>
	<path d="M392.8,53.5h-1.5v-5.6c-0.5,0.5-1.2,0.9-1.9,1.1v-1.3c0.4-0.1,0.8-0.4,1.3-0.7c0.5-0.3,0.8-0.8,0.9-1.2h1.2L392.8,53.5
		L392.8,53.5z"/>
</g>
<g class="st5">
	<path d="M387,77.6h-1.5V72c-0.5,0.5-1.2,0.9-1.9,1.1v-1.3c0.4-0.1,0.8-0.4,1.3-0.7s0.8-0.8,0.9-1.2h1.2L387,77.6L387,77.6z"/>
	<path d="M391.8,69.8c0.8,0,1.3,0.3,1.8,0.8c0.5,0.6,0.8,1.7,0.8,3.2c0,1.5-0.2,2.5-0.8,3.2c-0.4,0.5-1,0.8-1.8,0.8
		s-1.4-0.3-1.8-0.9c-0.5-0.6-0.7-1.6-0.7-3.1c0-1.5,0.2-2.5,0.8-3.2C390.4,70,391,69.8,391.8,69.8z M391.8,71
		c-0.2,0-0.3,0.1-0.5,0.2s-0.2,0.3-0.3,0.6c-0.1,0.4-0.1,1-0.1,1.9s0,1.5,0.1,1.9c0.1,0.3,0.2,0.6,0.4,0.7s0.3,0.2,0.5,0.2
		c0.2,0,0.3-0.1,0.5-0.2s0.2-0.3,0.3-0.6c0.1-0.4,0.1-1,0.1-1.9s0-1.5-0.1-1.9c-0.1-0.3-0.2-0.6-0.4-0.7
		C392.1,71.1,391.9,71,391.8,71z"/>
</g>
<g class="st5">
	<path d="M386.4,99.8l1.4-0.2c0,0.3,0.1,0.5,0.3,0.7c0.1,0.1,0.3,0.2,0.6,0.2c0.3,0,0.6-0.1,0.8-0.4s0.4-0.9,0.4-1.8
		c-0.4,0.4-0.8,0.7-1.4,0.7c-0.6,0-1.1-0.2-1.6-0.7s-0.7-1.1-0.7-1.8c0-0.8,0.2-1.4,0.7-1.9s1.1-0.7,1.8-0.7c0.8,0,1.4,0.3,1.9,0.9
		s0.8,1.6,0.8,3c0,1.4-0.3,2.4-0.8,3.1s-1.2,0.9-2,0.9c-0.6,0-1.1-0.2-1.5-0.5C386.7,100.9,386.5,100.4,386.4,99.8z M389.7,96.5
		c0-0.5-0.1-0.8-0.3-1.1s-0.5-0.4-0.8-0.4c-0.3,0-0.5,0.1-0.7,0.3c-0.2,0.2-0.3,0.6-0.3,1.1c0,0.5,0.1,0.9,0.3,1.1
		c0.2,0.2,0.4,0.3,0.7,0.3c0.3,0,0.5-0.1,0.7-0.3C389.6,97.3,389.7,97,389.7,96.5z"/>
</g>
<g class="st5">
	<path d="M387.6,121.4c-0.4-0.2-0.7-0.4-0.8-0.7s-0.3-0.6-0.3-0.9c0-0.6,0.2-1.1,0.6-1.4s1-0.6,1.7-0.6s1.3,0.2,1.7,0.6
		c0.4,0.4,0.6,0.8,0.6,1.4c0,0.4-0.1,0.7-0.3,1s-0.5,0.5-0.8,0.6c0.4,0.2,0.8,0.4,1,0.8c0.2,0.3,0.3,0.7,0.3,1.1
		c0,0.7-0.2,1.3-0.7,1.7c-0.5,0.4-1.1,0.7-1.8,0.7c-0.7,0-1.3-0.2-1.8-0.6c-0.5-0.4-0.8-1-0.8-1.8c0-0.4,0.1-0.8,0.3-1.2
		C386.9,121.9,387.2,121.6,387.6,121.4z M387.8,123.2c0,0.4,0.1,0.7,0.3,1c0.2,0.2,0.5,0.3,0.8,0.3s0.6-0.1,0.8-0.3s0.3-0.5,0.3-0.9
		c0-0.4-0.1-0.7-0.3-0.9s-0.5-0.3-0.8-0.3c-0.4,0-0.6,0.1-0.8,0.4S387.8,122.9,387.8,123.2z M387.9,119.9c0,0.3,0.1,0.5,0.2,0.7
		c0.2,0.2,0.4,0.2,0.7,0.2s0.5-0.1,0.7-0.2c0.2-0.2,0.2-0.4,0.2-0.7c0-0.3-0.1-0.5-0.2-0.7s-0.4-0.2-0.7-0.2c-0.3,0-0.5,0.1-0.7,0.2
		C388,119.4,387.9,119.6,387.9,119.9z"/>
</g>
<g class="st5">
	<path d="M386.4,143.3V142h5.1v1.1c-0.4,0.4-0.8,1-1.3,1.8c-0.4,0.8-0.8,1.6-1,2.5s-0.3,1.6-0.3,2.3h-1.4c0-1.1,0.2-2.2,0.7-3.3
		s1-2.1,1.7-3L386.4,143.3L386.4,143.3z"/>
</g>
<g class="st5">
	<path d="M405.9,53.5v-7.7h1.6v6.4h3.9v1.3H405.9z"/>
	<path d="M412.4,53.5v-7.7h1.6v7.7L412.4,53.5L412.4,53.5z"/>
	<path d="M415.4,53.5v-7.7h1.5l3.2,5.2v-5.2h1.5v7.7H420l-3.1-5v5L415.4,53.5L415.4,53.5z"/>
	<path d="M423.2,53.5v-7.7h5.7v1.3h-4.2v1.7h3.9v1.3h-3.9v2.1h4.3v1.3L423.2,53.5L423.2,53.5z"/>
	<path d="M440,53.5h-1.7l-0.7-1.8h-3.1l-0.6,1.8h-1.7l3-7.7h1.6L440,53.5z M437.1,50.5l-1.1-2.9l-1,2.9H437.1z"/>
</g>
<g class="st5">
	<path d="M405.9,77.6v-7.7h1.6v6.4h3.9v1.3C411.3,77.6,405.9,77.6,405.9,77.6z"/>
	<path d="M412.4,77.6v-7.7h1.6v7.7H412.4z"/>
	<path d="M415.4,77.6v-7.7h1.5l3.2,5.2v-5.2h1.5v7.7H420l-3.1-5v5H415.4z"/>
	<path d="M423.2,77.6v-7.7h5.7v1.3h-4.2v1.7h3.9v1.3h-3.9v2.1h4.3v1.3C429.1,77.6,423.2,77.6,423.2,77.6z"/>
	<path d="M433.4,69.8h3.1c0.6,0,1.1,0,1.4,0.1s0.6,0.2,0.8,0.3c0.2,0.2,0.4,0.4,0.6,0.7c0.2,0.3,0.2,0.6,0.2,0.9
		c0,0.4-0.1,0.7-0.3,1c-0.2,0.3-0.5,0.5-0.8,0.7c0.5,0.1,0.8,0.4,1.1,0.7c0.2,0.3,0.4,0.7,0.4,1.2c0,0.3-0.1,0.7-0.2,1
		c-0.2,0.3-0.4,0.6-0.7,0.8s-0.6,0.3-1,0.4c-0.3,0-0.9,0.1-1.9,0.1h-2.6L433.4,69.8L433.4,69.8z M435,71.1v1.8h1c0.6,0,1,0,1.1,0
		c0.3,0,0.5-0.1,0.6-0.3c0.1-0.2,0.2-0.3,0.2-0.6c0-0.2-0.1-0.4-0.2-0.6s-0.3-0.2-0.6-0.3c-0.2,0-0.6,0-1.3,0
		C435.9,71.1,435,71.1,435,71.1z M435,74.2v2.1h1.5c0.6,0,0.9,0,1.1-0.1c0.2,0,0.4-0.2,0.6-0.3c0.1-0.2,0.2-0.4,0.2-0.7
		c0-0.2-0.1-0.4-0.2-0.6c-0.1-0.2-0.3-0.3-0.5-0.3s-0.7-0.1-1.4-0.1H435z"/>
</g>
<g class="st5">
	<path d="M405.9,101.6v-7.7h1.6v6.4h3.9v1.3C411.3,101.6,405.9,101.6,405.9,101.6z"/>
	<path d="M412.4,101.6v-7.7h1.6v7.7H412.4z"/>
	<path d="M415.4,101.6v-7.7h1.5l3.2,5.2v-5.2h1.5v7.7H420l-3.1-5v5H415.4z"/>
	<path d="M423.2,101.6v-7.7h5.7v1.3h-4.2v1.7h3.9v1.3h-3.9v2.1h4.3v1.3L423.2,101.6L423.2,101.6z"/>
	<path d="M438.4,98.7l1.5,0.5c-0.2,0.8-0.6,1.5-1.2,1.9c-0.5,0.4-1.2,0.6-2,0.6c-1,0-1.9-0.3-2.5-1.1s-1-1.7-1-2.9
		c0-1.3,0.3-2.3,1-3s1.5-1.1,2.6-1.1c1,0,1.7,0.3,2.3,0.8c0.4,0.3,0.6,0.8,0.8,1.4l-1.5,0.4c-0.1-0.4-0.3-0.7-0.6-0.9
		s-0.6-0.3-1.1-0.3c-0.6,0-1,0.2-1.4,0.6s-0.5,1.1-0.5,2c0,1,0.2,1.7,0.5,2.1s0.8,0.6,1.4,0.6c0.4,0,0.8-0.1,1.1-0.4
		S438.2,99.3,438.4,98.7z"/>
</g>
<g class="st5">
	<path d="M405.9,125.6v-7.7h1.6v6.4h3.9v1.3C411.3,125.6,405.9,125.6,405.9,125.6z"/>
	<path d="M412.4,125.6v-7.7h1.6v7.7H412.4z"/>
	<path d="M415.4,125.6v-7.7h1.5l3.2,5.2v-5.2h1.5v7.7H420l-3.1-5v5H415.4z"/>
	<path d="M423.2,125.6v-7.7h5.7v1.3h-4.2v1.7h3.9v1.3h-3.9v2.1h4.3v1.3L423.2,125.6L423.2,125.6z"/>
	<path d="M433.4,117.8h2.9c0.6,0,1.1,0.1,1.5,0.2c0.5,0.1,0.8,0.4,1.2,0.7c0.3,0.3,0.6,0.8,0.7,1.2s0.2,1.1,0.2,1.8
		c0,0.6-0.1,1.2-0.2,1.7c-0.2,0.6-0.5,1-0.8,1.4c-0.3,0.3-0.6,0.5-1.1,0.6c-0.3,0.1-0.8,0.2-1.4,0.2h-2.9L433.4,117.8L433.4,117.8z
		 M435,119.2v5.1h1.2c0.4,0,0.8,0,0.9-0.1c0.2-0.1,0.5-0.2,0.6-0.3s0.3-0.4,0.4-0.8c0.1-0.3,0.2-0.8,0.2-1.4s0-1.1-0.2-1.4
		c-0.1-0.3-0.2-0.6-0.4-0.8s-0.4-0.3-0.7-0.4c-0.2-0.1-0.6-0.1-1.3-0.1C435.7,119.2,435,119.2,435,119.2z"/>
</g>
<g class="st5">
	<path d="M466.8,86.7l1.5,0.5c-0.2,0.8-0.6,1.5-1.2,1.9c-0.5,0.4-1.2,0.6-2,0.6c-1,0-1.9-0.3-2.5-1.1s-1-1.7-1-2.9
		c0-1.3,0.3-2.3,1-3s1.5-1.1,2.6-1.1c1,0,1.7,0.3,2.3,0.8c0.4,0.3,0.6,0.8,0.8,1.4l-1.5,0.4c-0.1-0.4-0.3-0.7-0.6-0.9
		c-0.3-0.2-0.6-0.3-1.1-0.3c-0.6,0-1,0.2-1.4,0.6s-0.5,1.1-0.5,2c0,1,0.2,1.7,0.5,2.1s0.8,0.6,1.4,0.6c0.4,0,0.8-0.1,1.1-0.4
		S466.7,87.3,466.8,86.7z"/>
	<path d="M469.6,89.6v-7.7h2.5c1,0,1.6,0,1.9,0.1c0.4,0.1,0.8,0.4,1.1,0.8s0.5,0.9,0.5,1.5c0,0.5-0.1,0.9-0.3,1.2
		c-0.2,0.3-0.4,0.6-0.7,0.8s-0.5,0.3-0.8,0.4c-0.4,0.1-0.9,0.1-1.6,0.1h-1v2.9L469.6,89.6L469.6,89.6z M471.2,83.1v2.2h0.9
		c0.6,0,1,0,1.2-0.1c0.2-0.1,0.4-0.2,0.5-0.4s0.2-0.4,0.2-0.6c0-0.3-0.1-0.5-0.2-0.7s-0.4-0.3-0.6-0.3c-0.2,0-0.6-0.1-1.1-0.1
		L471.2,83.1L471.2,83.1z"/>
	<path d="M476.8,81.8h1.6V86c0,0.7,0,1.1,0.1,1.3c0.1,0.3,0.2,0.6,0.5,0.8s0.6,0.3,1,0.3c0.4,0,0.8-0.1,1-0.3
		c0.2-0.2,0.4-0.4,0.4-0.7s0.1-0.7,0.1-1.3v-4.3h1.6v4.1c0,0.9,0,1.6-0.1,2c-0.1,0.4-0.2,0.7-0.5,1s-0.5,0.5-0.9,0.6
		c-0.4,0.2-0.9,0.2-1.5,0.2c-0.7,0-1.3-0.1-1.7-0.3s-0.7-0.4-0.9-0.7c-0.2-0.3-0.4-0.6-0.4-0.9c-0.1-0.4-0.1-1.1-0.1-2L476.8,81.8
		L476.8,81.8z"/>
</g>
<rect x="44.8" y="17.5" class="st4" width="16" height="16"/>
<rect x="44.8" y="89.6" class="st4" width="16" height="16"/>
<rect x="44.8" y="41.5" class="st4" width="16" height="16"/>
<rect x="44.8" y="65.5" class="st4" width="16" height="16"/>
<rect x="44.8" y="113.6" class="st4" width="16" height="16"/>
<rect x="44.8" y="137.6" class="st4" width="16" height="16"/>
<g class="st5">
	<path d="M14.9,53.5v-7.7h1.6v7.7L14.9,53.5L14.9,53.5z"/>
	<path d="M17.7,49.7c0-0.8,0.1-1.5,0.4-2c0.2-0.4,0.4-0.8,0.7-1.1s0.6-0.5,1-0.7c0.5-0.2,1-0.3,1.7-0.3c1.1,0,2,0.3,2.7,1.1
		s1,1.7,1,3c0,1.2-0.3,2.2-1,2.9c-0.7,0.7-1.6,1.1-2.7,1.1c-1.1,0-2.1-0.3-2.7-1C18,51.9,17.7,50.9,17.7,49.7z M19.3,49.7
		c0,0.9,0.2,1.5,0.6,2c0.4,0.5,0.9,0.7,1.5,0.7s1.1-0.2,1.5-0.7c0.4-0.5,0.6-1.1,0.6-2c0-0.9-0.2-1.5-0.6-2
		c-0.4-0.4-0.9-0.7-1.5-0.7c-0.6,0-1.2,0.2-1.6,0.7C19.5,48.1,19.3,48.8,19.3,49.7z"/>
	<path d="M32.8,53.5h-1.5v-5.6c-0.5,0.5-1.2,0.9-1.9,1.1v-1.3c0.4-0.1,0.8-0.4,1.3-0.7c0.5-0.3,0.8-0.8,0.9-1.2h1.2L32.8,53.5
		L32.8,53.5z"/>
</g>
<g class="st5">
	<path d="M14.9,77.6v-7.7h1.6v7.7H14.9z"/>
	<path d="M17.7,73.7c0-0.8,0.1-1.4,0.4-2c0.2-0.4,0.4-0.8,0.7-1.1s0.6-0.5,1-0.7c0.5-0.2,1-0.3,1.7-0.3c1.1,0,2,0.3,2.7,1.1
		s1,1.7,1,2.9c0,1.2-0.3,2.2-1,2.9c-0.7,0.7-1.6,1.1-2.7,1.1c-1.1,0-2.1-0.3-2.7-1.1C18,75.9,17.7,75,17.7,73.7z M19.3,73.7
		c0,0.9,0.2,1.5,0.6,2c0.4,0.4,0.9,0.7,1.5,0.7s1.1-0.2,1.5-0.7c0.4-0.4,0.6-1.1,0.6-2c0-0.9-0.2-1.6-0.6-2
		c-0.4-0.4-0.9-0.7-1.5-0.7c-0.6,0-1.2,0.2-1.6,0.7C19.5,72.1,19.3,72.8,19.3,73.7z"/>
	<path d="M34.1,76.2v1.4h-5.2c0.1-0.5,0.2-1,0.5-1.5s0.8-1.1,1.7-1.8c0.7-0.6,1.1-1,1.2-1.3c0.2-0.3,0.3-0.6,0.3-0.9
		c0-0.3-0.1-0.6-0.3-0.8S31.9,71,31.6,71c-0.3,0-0.6,0.1-0.7,0.3s-0.3,0.5-0.3,0.9L29,72.1c0.1-0.8,0.4-1.4,0.8-1.8s1-0.5,1.7-0.5
		c0.8,0,1.4,0.2,1.8,0.6s0.7,0.9,0.7,1.5c0,0.3-0.1,0.7-0.2,1c-0.1,0.3-0.3,0.6-0.6,1c-0.2,0.2-0.5,0.6-1,1s-0.8,0.7-0.9,0.8
		c-0.1,0.1-0.2,0.3-0.3,0.4C31.1,76.2,34.1,76.2,34.1,76.2z"/>
</g>
<g class="st5">
	<path d="M14.9,101.6v-7.7h1.6v7.7H14.9z"/>
	<path d="M17.7,97.7c0-0.8,0.1-1.4,0.4-2c0.2-0.4,0.4-0.8,0.7-1.1s0.6-0.5,1-0.7c0.5-0.2,1-0.3,1.7-0.3c1.1,0,2,0.3,2.7,1.1
		s1,1.7,1,2.9c0,1.2-0.3,2.2-1,2.9c-0.7,0.7-1.6,1.1-2.7,1.1c-1.1,0-2.1-0.3-2.7-1.1C18,99.9,17.7,99,17.7,97.7z M19.3,97.7
		c0,0.9,0.2,1.5,0.6,2c0.4,0.4,0.9,0.7,1.5,0.7s1.1-0.2,1.5-0.7c0.4-0.4,0.6-1.1,0.6-2c0-0.9-0.2-1.6-0.6-2
		c-0.4-0.4-0.9-0.7-1.5-0.7c-0.6,0-1.2,0.2-1.6,0.7S19.3,96.8,19.3,97.7z"/>
	<path d="M29,99.5l1.4-0.2c0,0.4,0.2,0.7,0.4,0.8s0.4,0.3,0.7,0.3c0.3,0,0.6-0.1,0.8-0.3c0.2-0.2,0.3-0.5,0.3-0.9
		c0-0.4-0.1-0.7-0.3-0.9S31.9,98,31.6,98c-0.2,0-0.4,0-0.7,0.1l0.2-1.2c0.4,0,0.7-0.1,0.9-0.3c0.2-0.2,0.3-0.4,0.3-0.7
		c0-0.3-0.1-0.5-0.2-0.6c-0.1-0.2-0.4-0.2-0.6-0.2c-0.2,0-0.5,0.1-0.6,0.3c-0.2,0.2-0.3,0.4-0.3,0.8l-1.4-0.2
		c0.1-0.5,0.2-0.8,0.4-1.1c0.2-0.3,0.5-0.5,0.8-0.7s0.7-0.2,1.1-0.2c0.7,0,1.3,0.2,1.8,0.7c0.4,0.4,0.5,0.8,0.5,1.3
		c0,0.7-0.4,1.2-1.1,1.6c0.4,0.1,0.8,0.3,1.1,0.6s0.4,0.7,0.4,1.2c0,0.7-0.2,1.3-0.7,1.7s-1.1,0.7-1.9,0.7c-0.7,0-1.3-0.2-1.7-0.6
		C29.4,100.7,29.1,100.2,29,99.5z"/>
</g>
<g class="st5">
	<path d="M14.9,125.6v-7.7h1.6v7.7H14.9z"/>
	<path d="M17.7,121.8c0-0.8,0.1-1.4,0.4-2c0.2-0.4,0.4-0.8,0.7-1.1s0.6-0.5,1-0.7c0.5-0.2,1-0.3,1.7-0.3c1.1,0,2,0.3,2.7,1.1
		s1,1.7,1,2.9c0,1.2-0.3,2.2-1,2.9c-0.7,0.7-1.6,1.1-2.7,1.1c-1.1,0-2.1-0.3-2.7-1.1C18,123.9,17.7,123,17.7,121.8z M19.3,121.7
		c0,0.9,0.2,1.5,0.6,2c0.4,0.4,0.9,0.7,1.5,0.7s1.1-0.2,1.5-0.7c0.4-0.4,0.6-1.1,0.6-2c0-0.9-0.2-1.6-0.6-2
		c-0.4-0.4-0.9-0.7-1.5-0.7c-0.6,0-1.2,0.2-1.6,0.7S19.3,120.8,19.3,121.7z"/>
	<path d="M32,125.6V124h-3.2v-1.3l3.4-4.9h1.2v4.9h1v1.3h-1v1.6H32z M32,122.7v-2.6l-1.8,2.6H32z"/>
</g>
<g class="st5">
	<path d="M53.9,29.5h-1.5v-5.6c-0.5,0.5-1.2,0.9-1.9,1.1v-1.4c0.4-0.1,0.8-0.4,1.3-0.7c0.5-0.4,0.8-0.8,0.9-1.2h1.2L53.9,29.5
		L53.9,29.5z"/>
</g>
<g class="st5">
	<path d="M55.2,52.2v1.4H50c0.1-0.5,0.2-1,0.5-1.5s0.8-1.1,1.7-1.8c0.7-0.6,1.1-1,1.2-1.3c0.2-0.3,0.3-0.6,0.3-0.9
		c0-0.3-0.1-0.6-0.3-0.8C53.2,47.1,53,47,52.7,47c-0.3,0-0.6,0.1-0.7,0.3s-0.3,0.5-0.3,0.9l-1.5-0.2c0.1-0.8,0.4-1.4,0.8-1.8
		s1-0.5,1.7-0.5c0.8,0,1.4,0.2,1.8,0.6s0.7,0.9,0.7,1.5c0,0.3-0.1,0.7-0.2,1c-0.1,0.3-0.3,0.6-0.6,1c-0.2,0.2-0.5,0.6-1,1
		s-0.8,0.7-0.9,0.8c-0.1,0.1-0.2,0.3-0.3,0.4C52.2,52.2,55.2,52.2,55.2,52.2z"/>
</g>
<g class="st5">
	<path d="M50.1,75.5l1.4-0.2c0,0.4,0.2,0.7,0.4,0.8s0.4,0.3,0.7,0.3c0.3,0,0.6-0.1,0.8-0.3c0.2-0.2,0.3-0.6,0.3-0.9
		c0-0.4-0.1-0.7-0.3-0.9s-0.5-0.3-0.7-0.3c-0.2,0-0.4,0-0.7,0.1l0.2-1.2c0.4,0,0.7-0.1,0.9-0.3s0.3-0.4,0.3-0.7
		c0-0.3-0.1-0.5-0.2-0.6S52.8,71,52.5,71c-0.2,0-0.5,0.1-0.7,0.3s-0.3,0.4-0.3,0.8l-1.4-0.2c0.1-0.5,0.2-0.8,0.4-1.1
		c0.2-0.3,0.5-0.5,0.8-0.7s0.7-0.2,1.2-0.2c0.7,0,1.3,0.2,1.8,0.7c0.4,0.4,0.5,0.8,0.5,1.3c0,0.7-0.4,1.2-1.1,1.6
		c0.4,0.1,0.8,0.3,1.1,0.6s0.4,0.7,0.4,1.2c0,0.7-0.2,1.3-0.7,1.7c-0.5,0.5-1.1,0.7-1.8,0.7c-0.7,0-1.3-0.2-1.7-0.6
		C50.4,76.7,50.2,76.2,50.1,75.5z"/>
</g>
<g class="st5">
	<path d="M53,101.6V100h-3.2v-1.3l3.4-4.9h1.2v4.9h1v1.3h-1v1.6H53z M53,98.7v-2.6l-1.8,2.6H53z"/>
</g>
<g class="st5">
	<path d="M50.2,123.6l1.5-0.2c0,0.3,0.2,0.6,0.4,0.8c0.2,0.2,0.5,0.3,0.7,0.3c0.3,0,0.6-0.1,0.8-0.4c0.2-0.2,0.3-0.6,0.3-1.1
		c0-0.5-0.1-0.8-0.3-1.1s-0.5-0.4-0.8-0.4c-0.4,0-0.8,0.2-1.2,0.6l-1.2-0.2l0.8-4H55v1.4h-2.8l-0.2,1.3c0.3-0.2,0.7-0.2,1-0.2
		c0.7,0,1.2,0.2,1.7,0.7s0.7,1.1,0.7,1.9c0,0.6-0.2,1.2-0.5,1.7c-0.5,0.7-1.2,1-2.1,1c-0.7,0-1.3-0.2-1.8-0.6
		C50.5,124.8,50.2,124.2,50.2,123.6z"/>
</g>
<g class="st5">
	<path d="M55.2,143.8l-1.4,0.2c0-0.3-0.1-0.5-0.3-0.6c-0.2-0.1-0.3-0.2-0.6-0.2c-0.3,0-0.6,0.1-0.8,0.4c-0.2,0.3-0.3,0.9-0.4,1.8
		c0.4-0.4,0.8-0.6,1.4-0.6c0.6,0,1.2,0.2,1.6,0.7s0.7,1.1,0.7,1.8c0,0.8-0.2,1.4-0.7,1.9s-1.1,0.7-1.8,0.7c-0.8,0-1.4-0.3-1.9-0.9
		c-0.5-0.6-0.8-1.6-0.8-3c0-1.4,0.3-2.4,0.8-3.1c0.5-0.6,1.2-0.9,2-0.9c0.6,0,1.1,0.2,1.5,0.5C54.8,142.6,55.1,143.1,55.2,143.8z
		 M51.8,147c0,0.5,0.1,0.9,0.3,1.1c0.2,0.3,0.5,0.4,0.8,0.4c0.3,0,0.5-0.1,0.7-0.3c0.2-0.2,0.3-0.6,0.3-1.1c0-0.5-0.1-0.9-0.3-1.1
		c-0.2-0.2-0.4-0.4-0.7-0.4c-0.3,0-0.5,0.1-0.7,0.3C51.9,146.2,51.8,146.6,51.8,147z"/>
</g>
<line class="st3" x1="381" y1="145.6" x2="365" y2="145.6"/>
<line class="st3" x1="369" y1="149.6" x2="361" y2="141.6"/>
<line class="st3" x1="361" y1="149.6" x2="369" y2="141.6"/>
<g>
	<line class="st3" x1="60.8" y1="25.5" x2="76.8" y2="25.5"/>
	<line class="st3" x1="72.8" y1="21.5" x2="80.8" y2="29.5"/>
	<line class="st3" x1="80.8" y1="21.5" x2="72.8" y2="29.5"/>
</g>
<g id="arrow">
	<path d="M358.3,25.5l1.7-2.8l-0.1-0.1l-4.6,1.8c-1.6,0.3-3.2,0.7-4.7,1c1.6,0.3,3.2,0.7,4.7,1l4.6,1.8l0.1-0.1L358.3,25.5z"/>
</g>
<g id="s_diod">
	<g>
		<path class="st3" d="M373,19.5v12l-7.6-6L373,19.5z"/>
		<polyline class="st3" points="361,31.9 365,31.9 365,19.1 369,19.1 		"/>
	</g>
</g>
<g class="st5">
	<path d="M403.8,27.5l1.5-0.1c0,0.3,0.2,0.6,0.4,0.8c0.2,0.2,0.5,0.3,0.7,0.3c0.3,0,0.6-0.1,0.8-0.4c0.2-0.2,0.3-0.6,0.3-1.1
		c0-0.5-0.1-0.8-0.3-1.1c-0.2-0.2-0.5-0.4-0.8-0.4c-0.4,0-0.8,0.2-1.1,0.6l-1.2-0.2l0.8-4h3.9v1.4h-2.8l-0.2,1.3
		c0.3-0.2,0.7-0.2,1-0.2c0.7,0,1.2,0.2,1.7,0.7c0.5,0.5,0.7,1.1,0.7,1.9c0,0.6-0.2,1.2-0.5,1.7c-0.5,0.7-1.2,1-2.1,1
		c-0.7,0-1.3-0.2-1.8-0.6C404.2,28.7,403.9,28.2,403.8,27.5z"/>
	<path d="M412.1,29.5l-2.8-7.7h1.7l2,5.7l1.9-5.7h1.7l-2.8,7.7H412.1z"/>
</g>
<g>
	<line class="st3" x1="60" y1="145.6" x2="76" y2="145.6"/>
	<line class="st2" x1="76" y1="153.6" x2="76" y2="137.6"/>
</g>
<path d="M373.3,72.7l-1.7-2.8l0.1-0.1l4.6,1.8c1.6,0.3,3.2,0.7,4.7,1c-1.6,0.3-3.2,0.7-4.7,1l-4.6,1.8l-0.1-0.1L373.3,72.7z"/>
<path d="M280,73.9L280,73.9l-4.6-1.8c-1.6-0.3-3.2-0.7-4.7-1c1.6-0.3,3.2-0.7,4.7-1l4.6-1.8l0.1,0.1l-1.7,2.8L280,73.9z"/>
<path d="M280,121.9L280,121.9l-4.6-1.8c-1.6-0.3-3.2-0.7-4.7-1c1.6-0.3,3.2-0.7,4.7-1l4.6-1.8l0.1,0.1l-1.7,2.8L280,121.9z"/>
<path d="M280,145.8L280,145.8l-4.6-1.8c-1.6-0.3-3.2-0.7-4.7-1c1.6-0.3,3.2-0.7,4.7-1l4.6-1.8l0.1,0.1l-1.7,2.8L280,145.8z"/>
<g class="st5">
	<path d="M308,47.1v-6.4h-2.3v-1.3h6.1v1.3h-2.3v6.4H308z"/>
	<path d="M312.1,47.1l2.6-4l-2.4-3.7h1.8l1.5,2.5l1.5-2.5h1.8l-2.4,3.8l2.6,4h-1.9l-1.7-2.7l-1.7,2.7
		C313.9,47.1,312.1,47.1,312.1,47.1z"/>
</g>
<g class="st5">
	<path d="M70.5,44.3l1.5,0.5c-0.2,0.8-0.6,1.5-1.2,1.9s-1.2,0.6-2.1,0.6c-1,0-1.9-0.3-2.5-1c-0.7-0.7-1-1.7-1-2.9c0-1.3,0.3-2.3,1-3
		c0.7-0.7,1.5-1.1,2.6-1.1c0.9,0,1.7,0.3,2.3,0.8c0.3,0.3,0.6,0.8,0.8,1.4l-1.6,0.4c-0.1-0.4-0.3-0.7-0.6-1s-0.6-0.3-1.1-0.3
		c-0.6,0-1,0.2-1.4,0.6s-0.5,1.1-0.5,2c0,1,0.2,1.7,0.5,2.1s0.8,0.6,1.4,0.6c0.4,0,0.8-0.1,1.1-0.4C70.2,45.3,70.4,44.8,70.5,44.3z"
		/>
	<path d="M73.4,47.1v-7.7H75v3H78v-3h1.6v7.7H78v-3.4H75v3.4C75,47.1,73.4,47.1,73.4,47.1z"/>
	<path d="M84.7,47.1h-1.5v-5.6c-0.5,0.5-1.2,0.9-1.9,1.1v-1.3c0.4-0.1,0.8-0.4,1.3-0.7c0.4-0.3,0.8-0.8,0.9-1.2h1.2L84.7,47.1
		L84.7,47.1z"/>
</g>
<g class="st5">
	<path d="M306.3,71.1v-7.7h3.3c0.8,0,1.4,0.1,1.8,0.2c0.4,0.1,0.7,0.4,0.9,0.7c0.2,0.4,0.3,0.8,0.3,1.2c0,0.6-0.2,1.1-0.5,1.4
		c-0.3,0.4-0.9,0.6-1.5,0.7c0.3,0.2,0.6,0.4,0.8,0.7s0.5,0.7,0.9,1.3l0.9,1.5h-1.9l-1.1-1.7c-0.4-0.6-0.7-1-0.8-1.1
		c-0.1-0.2-0.3-0.3-0.5-0.3s-0.4-0.1-0.8-0.1h-0.3v3.2L306.3,71.1L306.3,71.1z M307.8,66.7h1.2c0.8,0,1.2,0,1.4-0.1
		c0.2-0.1,0.3-0.2,0.4-0.3s0.2-0.3,0.2-0.6c0-0.3-0.1-0.5-0.2-0.6c-0.1-0.2-0.3-0.3-0.6-0.3c-0.1,0-0.5,0-1.1,0h-1.2V66.7z"/>
	<path d="M313.3,71.1l2.6-4l-2.4-3.7h1.8l1.5,2.5l1.5-2.5h1.8l-2.4,3.8l2.6,4h-1.9l-1.7-2.7l-1.7,2.7H313.3z"/>
</g>
<g class="st5">
	<path d="M306.3,95.2v-7.7h3.3c0.8,0,1.4,0.1,1.8,0.2s0.7,0.4,0.9,0.7c0.2,0.4,0.3,0.8,0.3,1.2c0,0.6-0.2,1.1-0.5,1.4
		s-0.9,0.6-1.5,0.7c0.3,0.2,0.6,0.4,0.8,0.7s0.5,0.7,0.9,1.3l0.9,1.5h-1.9l-1.1-1.7c-0.4-0.6-0.7-1-0.8-1.1s-0.3-0.3-0.5-0.3
		s-0.4-0.1-0.8-0.1h-0.3v3.2L306.3,95.2L306.3,95.2z M307.8,90.7h1.2c0.8,0,1.2,0,1.4-0.1c0.2-0.1,0.3-0.2,0.4-0.3
		c0.1-0.2,0.2-0.3,0.2-0.6c0-0.3-0.1-0.5-0.2-0.6c-0.1-0.2-0.3-0.3-0.6-0.3c-0.1,0-0.5,0-1.1,0h-1.2V90.7z"/>
	<path d="M315.8,95.2v-6.4h-2.3v-1.3h6.1v1.3h-2.3v6.4H315.8z"/>
	<path d="M320.3,92.6l1.5-0.2c0.1,0.5,0.3,0.9,0.6,1.1s0.7,0.4,1.1,0.4c0.5,0,0.9-0.1,1.1-0.3c0.2-0.2,0.4-0.5,0.4-0.8
		c0-0.2,0-0.3-0.2-0.5c-0.1-0.1-0.3-0.2-0.6-0.3c-0.2-0.1-0.6-0.2-1.2-0.3c-0.8-0.2-1.4-0.5-1.8-0.8c-0.5-0.4-0.7-0.9-0.7-1.6
		c0-0.4,0.1-0.8,0.3-1.1c0.2-0.3,0.5-0.6,1-0.8s0.9-0.3,1.5-0.3c1,0,1.7,0.2,2.2,0.6s0.8,1,0.8,1.7l-1.6,0.1
		c-0.1-0.4-0.2-0.7-0.4-0.9s-0.5-0.3-1-0.3c-0.5,0-0.8,0.1-1.1,0.3c-0.2,0.1-0.2,0.3-0.2,0.5c0,0.2,0.1,0.3,0.2,0.5
		c0.2,0.2,0.7,0.3,1.4,0.5s1.3,0.4,1.7,0.6s0.6,0.4,0.9,0.8c0.2,0.3,0.3,0.7,0.3,1.2c0,0.4-0.1,0.9-0.4,1.2s-0.6,0.7-1,0.9
		s-1,0.3-1.7,0.3c-1,0-1.7-0.2-2.2-0.7C320.7,94.2,320.4,93.5,320.3,92.6z"/>
</g>
<g>
	<path d="M306.2,119.2v-7.7h2.3l1.4,5.3l1.4-5.3h2.3v7.7h-1.5v-6.1l-1.5,6.1h-1.5l-1.5-6.1v6.1H306.2z"/>
	<path d="M320.2,116.3l1.5,0.5c-0.2,0.8-0.6,1.5-1.2,1.9c-0.5,0.4-1.2,0.6-2,0.6c-1,0-1.9-0.3-2.5-1.1s-1-1.7-1-2.9
		c0-1.3,0.3-2.3,1-3s1.5-1.1,2.6-1.1c1,0,1.7,0.3,2.3,0.8c0.4,0.3,0.6,0.8,0.8,1.4l-1.5,0.4c-0.1-0.4-0.3-0.7-0.6-0.9
		s-0.6-0.3-1.1-0.3c-0.6,0-1,0.2-1.4,0.6s-0.5,1.1-0.5,2c0,1,0.2,1.7,0.5,2.1s0.8,0.6,1.4,0.6c0.4,0,0.8-0.1,1.1-0.4
		S320.1,116.9,320.2,116.3z"/>
	<path d="M323.1,119.2v-7.7h1.6v6.4h3.9v1.3C328.5,119.2,323.1,119.2,323.1,119.2z"/>
	<path d="M329.7,119.2v-7.7h3.3c0.8,0,1.4,0.1,1.8,0.2s0.7,0.4,0.9,0.7c0.2,0.4,0.3,0.8,0.3,1.2c0,0.6-0.2,1.1-0.5,1.4
		s-0.9,0.6-1.5,0.7c0.3,0.2,0.6,0.4,0.8,0.7s0.5,0.7,0.9,1.3l0.9,1.5h-1.9l-1.1-1.7c-0.4-0.6-0.7-1-0.8-1.1s-0.3-0.3-0.5-0.3
		s-0.4-0.1-0.8-0.1h-0.3v3.2L329.7,119.2L329.7,119.2z M331.2,114.7h1.2c0.8,0,1.2,0,1.4-0.1c0.2-0.1,0.3-0.2,0.4-0.3
		c0.1-0.2,0.2-0.3,0.2-0.6c0-0.3-0.1-0.5-0.2-0.6c-0.1-0.2-0.3-0.3-0.6-0.3c-0.1,0-0.5,0-1.1,0h-1.2V114.7z"/>
</g>
<g class="st5">
	<path d="M70.5,68.3l1.5,0.5c-0.2,0.8-0.6,1.5-1.2,1.9c-0.5,0.4-1.2,0.6-2.1,0.6c-1,0-1.9-0.3-2.5-1.1c-0.7-0.7-1-1.7-1-2.9
		c0-1.3,0.3-2.3,1-3c0.7-0.7,1.5-1.1,2.6-1.1c0.9,0,1.7,0.3,2.3,0.8c0.3,0.3,0.6,0.8,0.8,1.4l-1.6,0.4c-0.1-0.4-0.3-0.7-0.6-0.9
		c-0.3-0.2-0.6-0.3-1.1-0.3c-0.6,0-1,0.2-1.4,0.6s-0.5,1.1-0.5,2c0,1,0.2,1.7,0.5,2.1s0.8,0.6,1.4,0.6c0.4,0,0.8-0.1,1.1-0.4
		C70.2,69.3,70.4,68.9,70.5,68.3z"/>
	<path d="M73.4,71.1v-7.7H75v3H78v-3h1.6v7.7H78v-3.4H75v3.4H73.4z"/>
	<path d="M85.9,69.8v1.4h-5.2c0.1-0.5,0.2-1,0.5-1.5s0.8-1.1,1.7-1.8c0.7-0.6,1.1-1,1.2-1.3c0.2-0.3,0.3-0.6,0.3-0.9
		c0-0.3-0.1-0.6-0.3-0.8s-0.4-0.3-0.7-0.3c-0.3,0-0.6,0.1-0.7,0.3s-0.3,0.5-0.3,0.9l-1.5-0.2c0.1-0.8,0.4-1.4,0.8-1.8s1-0.5,1.7-0.5
		c0.8,0,1.4,0.2,1.8,0.6c0.4,0.4,0.7,0.9,0.7,1.5c0,0.3-0.1,0.7-0.2,1c-0.1,0.3-0.3,0.6-0.6,1c-0.2,0.2-0.5,0.6-1,1
		s-0.8,0.7-0.9,0.8c-0.1,0.1-0.2,0.3-0.3,0.4C82.9,69.8,85.9,69.8,85.9,69.8z"/>
</g>
<g class="st5">
	<path d="M70.5,92.3l1.5,0.5c-0.2,0.8-0.6,1.5-1.2,1.9c-0.5,0.4-1.2,0.6-2.1,0.6c-1,0-1.9-0.3-2.5-1.1c-0.7-0.7-1-1.7-1-2.9
		c0-1.3,0.3-2.3,1-3c0.7-0.7,1.5-1.1,2.6-1.1c0.9,0,1.7,0.3,2.3,0.8c0.3,0.3,0.6,0.8,0.8,1.4l-1.6,0.4c-0.1-0.4-0.3-0.7-0.6-0.9
		c-0.3-0.2-0.6-0.3-1.1-0.3c-0.6,0-1,0.2-1.4,0.6s-0.5,1.1-0.5,2c0,1,0.2,1.7,0.5,2.1s0.8,0.6,1.4,0.6c0.4,0,0.8-0.1,1.1-0.4
		C70.2,93.3,70.4,92.9,70.5,92.3z"/>
	<path d="M73.4,95.2v-7.7H75v3H78v-3h1.6v7.7H78v-3.4H75v3.4H73.4z"/>
	<path d="M80.8,93.1l1.4-0.2c0.1,0.4,0.2,0.7,0.4,0.8s0.4,0.3,0.7,0.3c0.3,0,0.6-0.1,0.8-0.3c0.2-0.2,0.3-0.5,0.3-0.9
		c0-0.4-0.1-0.7-0.3-0.9c-0.2-0.2-0.4-0.3-0.7-0.3c-0.2,0-0.4,0-0.7,0.1l0.2-1.2c0.4,0,0.7-0.1,0.9-0.3c0.2-0.2,0.3-0.4,0.3-0.7
		c0-0.3-0.1-0.5-0.2-0.6s-0.4-0.2-0.6-0.2c-0.2,0-0.5,0.1-0.7,0.3c-0.2,0.2-0.3,0.4-0.3,0.8l-1.4-0.2c0.1-0.5,0.2-0.8,0.4-1.1
		c0.2-0.3,0.5-0.5,0.8-0.7c0.3-0.2,0.7-0.2,1.2-0.2c0.7,0,1.3,0.2,1.8,0.7c0.4,0.4,0.5,0.8,0.5,1.3c0,0.7-0.4,1.2-1.1,1.6
		c0.4,0.1,0.8,0.3,1.1,0.6s0.4,0.7,0.4,1.2c0,0.7-0.2,1.3-0.7,1.7s-1.1,0.7-1.8,0.7c-0.7,0-1.3-0.2-1.7-0.6
		C81.2,94.3,80.9,93.8,80.8,93.1z"/>
</g>
<g class="st5">
	<path d="M70.5,116.3l1.5,0.5c-0.2,0.8-0.6,1.5-1.2,1.9c-0.5,0.4-1.2,0.6-2.1,0.6c-1,0-1.9-0.3-2.5-1.1c-0.7-0.7-1-1.7-1-2.9
		c0-1.3,0.3-2.3,1-3c0.7-0.7,1.5-1.1,2.6-1.1c0.9,0,1.7,0.3,2.3,0.8c0.3,0.3,0.6,0.8,0.8,1.4l-1.6,0.4c-0.1-0.4-0.3-0.7-0.6-0.9
		c-0.3-0.2-0.6-0.3-1.1-0.3c-0.6,0-1,0.2-1.4,0.6s-0.5,1.1-0.5,2c0,1,0.2,1.7,0.5,2.1s0.8,0.6,1.4,0.6c0.4,0,0.8-0.1,1.1-0.4
		C70.2,117.3,70.4,116.9,70.5,116.3z"/>
	<path d="M73.4,119.2v-7.7H75v3H78v-3h1.6v7.7H78v-3.4H75v3.4H73.4z"/>
	<path d="M83.8,119.2v-1.6h-3.2v-1.3l3.4-4.9h1.2v4.9h1v1.3h-1v1.6H83.8z M83.8,116.3v-2.6l-1.8,2.6H83.8z"/>
</g>
<rect x="127.6" y="62.3" class="st4" width="64" height="89.1"/>
<g class="st5">
	<path d="M203.6,139.7l1.5-0.1c0.1,0.5,0.3,0.9,0.6,1.1s0.7,0.4,1.1,0.4c0.5,0,0.9-0.1,1.1-0.3s0.4-0.5,0.4-0.8
		c0-0.2-0.1-0.3-0.2-0.5s-0.3-0.2-0.6-0.3c-0.2-0.1-0.6-0.2-1.2-0.3c-0.8-0.2-1.4-0.5-1.8-0.8c-0.5-0.4-0.7-0.9-0.7-1.6
		c0-0.4,0.1-0.8,0.3-1.1c0.2-0.3,0.5-0.6,1-0.8s0.9-0.3,1.5-0.3c1,0,1.7,0.2,2.2,0.6s0.8,1,0.8,1.7l-1.6,0.1
		c-0.1-0.4-0.2-0.7-0.4-0.9s-0.6-0.3-1-0.3c-0.4,0-0.8,0.1-1.1,0.3c-0.2,0.1-0.2,0.3-0.2,0.5c0,0.2,0.1,0.3,0.2,0.5
		c0.2,0.2,0.7,0.3,1.4,0.5s1.3,0.4,1.7,0.6c0.4,0.2,0.6,0.4,0.9,0.8c0.2,0.3,0.3,0.7,0.3,1.2c0,0.4-0.1,0.9-0.4,1.2s-0.6,0.7-1,0.9
		s-1,0.3-1.7,0.3c-1,0-1.7-0.2-2.2-0.7C204.1,141.2,203.8,140.6,203.6,139.7z"/>
	<path d="M211.2,142.2v-7.7h2.5c0.9,0,1.6,0,1.9,0.1c0.4,0.1,0.8,0.4,1.1,0.8s0.4,0.9,0.4,1.5c0,0.5-0.1,0.9-0.3,1.2
		c-0.2,0.3-0.4,0.6-0.7,0.8s-0.5,0.3-0.8,0.4c-0.4,0.1-0.9,0.1-1.6,0.1h-1v2.9L211.2,142.2L211.2,142.2z M212.8,135.8v2.2h0.9
		c0.6,0,1,0,1.2-0.1c0.2-0.1,0.4-0.2,0.5-0.4c0.1-0.2,0.2-0.4,0.2-0.6c0-0.3-0.1-0.5-0.2-0.7c-0.2-0.2-0.4-0.3-0.6-0.3
		c-0.2,0-0.6-0.1-1.1-0.1L212.8,135.8L212.8,135.8z"/>
	<path d="M218.4,142.2v-7.7h1.6v7.7H218.4z"/>
</g>
<g class="st5">
	<path d="M141.8,16.4v-2h-2V13h2v-2h1.4v2h2v1.4h-2v2H141.8z"/>
	<path d="M149.9,17.5h-1.5V12c-0.5,0.5-1.2,0.9-1.9,1.1v-1.4c0.4-0.1,0.8-0.4,1.3-0.7s0.8-0.8,0.9-1.2h1.2L149.9,17.5L149.9,17.5z"
		/>
	<path d="M155,17.5V16h-3.2v-1.3l3.4-4.9h1.2v4.9h1V16h-1v1.6L155,17.5L155,17.5z M155,14.7V12l-1.8,2.6H155z"/>
	<path d="M160.4,17.5l-2.8-7.7h1.7l2,5.7l1.9-5.7h1.7l-2.8,7.7H160.4z"/>
</g>
<g class="st5">
	<path d="M142.7,39.5V38h2.9v1.5H142.7z"/>
	<path d="M149.9,41.5h-1.5v-5.6c-0.5,0.5-1.2,0.9-1.9,1.1v-1.3c0.4-0.1,0.8-0.4,1.3-0.7c0.4-0.3,0.8-0.8,0.9-1.2h1.2L149.9,41.5
		L149.9,41.5z"/>
	<path d="M155,41.5V40h-3.2v-1.3l3.4-4.9h1.2v4.9h1V40h-1v1.6H155z M155,38.7V36l-1.8,2.6H155z"/>
	<path d="M160.4,41.5l-2.8-7.7h1.7l2,5.7l1.9-5.7h1.7l-2.8,7.7C162.1,41.5,160.4,41.5,160.4,41.5z"/>
</g>
<g>
	<g class="st5">
		<path d="M147.6,95.8h-1.7l-0.7-1.8h-3.1l-0.6,1.8h-1.7l3-7.7h1.6L147.6,95.8z M144.7,92.7l-1.1-2.9l-1,2.9H144.7z"/>
		<path d="M148.4,88.1h2.9c0.6,0,1.1,0.1,1.5,0.2c0.4,0.1,0.8,0.4,1.2,0.7c0.3,0.3,0.6,0.8,0.7,1.2s0.2,1.1,0.2,1.8
			c0,0.6-0.1,1.2-0.2,1.7c-0.2,0.6-0.5,1-0.8,1.4c-0.3,0.3-0.6,0.5-1.1,0.6c-0.3,0.1-0.8,0.2-1.4,0.2h-2.9L148.4,88.1L148.4,88.1z
			 M150,89.4v5.1h1.2c0.4,0,0.8,0,0.9-0.1c0.2-0.1,0.5-0.2,0.6-0.3s0.3-0.4,0.4-0.8s0.2-0.8,0.2-1.4s-0.1-1.1-0.2-1.4
			s-0.2-0.6-0.4-0.8s-0.4-0.3-0.7-0.4c-0.2-0.1-0.6-0.1-1.3-0.1C150.7,89.4,150,89.4,150,89.4z"/>
		<path d="M155.9,89.6v-1.4h5.1v1.1c-0.4,0.4-0.8,1-1.3,1.8c-0.4,0.8-0.8,1.6-1,2.5s-0.3,1.6-0.3,2.3H157c0-1.1,0.2-2.2,0.7-3.3
			c0.4-1.1,1-2.1,1.7-3H155.9z"/>
		<path d="M161.9,93.8l1.4-0.2c0.1,0.4,0.2,0.7,0.4,0.8s0.4,0.3,0.7,0.3c0.3,0,0.6-0.1,0.8-0.3c0.2-0.2,0.3-0.5,0.3-0.9
			c0-0.4-0.1-0.7-0.3-0.9s-0.4-0.3-0.7-0.3c-0.2,0-0.4,0-0.7,0.1l0.2-1.2c0.4,0,0.7-0.1,0.9-0.3c0.2-0.2,0.3-0.4,0.3-0.7
			c0-0.3-0.1-0.5-0.2-0.6s-0.4-0.2-0.6-0.2c-0.2,0-0.5,0.1-0.6,0.3c-0.2,0.2-0.3,0.4-0.3,0.8L162,90c0.1-0.5,0.2-0.8,0.4-1.1
			c0.2-0.3,0.5-0.5,0.8-0.7s0.7-0.2,1.1-0.2c0.7,0,1.3,0.2,1.8,0.7c0.4,0.4,0.5,0.8,0.5,1.3c0,0.7-0.4,1.2-1.1,1.6
			c0.4,0.1,0.8,0.3,1.1,0.6s0.4,0.7,0.4,1.2c0,0.7-0.2,1.3-0.7,1.7s-1.1,0.7-1.9,0.7c-0.7,0-1.3-0.2-1.7-0.6
			C162.2,94.9,161.9,94.4,161.9,93.8z"/>
		<path d="M172.9,94.4v1.4h-5.2c0.1-0.5,0.2-1,0.5-1.5s0.8-1.1,1.7-1.8c0.7-0.6,1.1-1,1.2-1.3c0.2-0.3,0.3-0.6,0.3-0.9
			c0-0.3-0.1-0.6-0.3-0.8c-0.2-0.2-0.4-0.3-0.7-0.3c-0.3,0-0.6,0.1-0.7,0.3s-0.3,0.5-0.3,0.9l-1.5-0.2c0.1-0.8,0.4-1.4,0.8-1.8
			s1-0.5,1.7-0.5c0.8,0,1.4,0.2,1.8,0.6s0.6,0.9,0.6,1.5c0,0.3-0.1,0.7-0.2,1c-0.1,0.3-0.3,0.6-0.6,1c-0.2,0.2-0.5,0.6-1,1
			s-0.8,0.7-0.9,0.8s-0.2,0.3-0.3,0.4C170,94.4,172.9,94.4,172.9,94.4z"/>
		<path d="M173.9,93.8l1.4-0.2c0.1,0.4,0.2,0.7,0.4,0.8s0.4,0.3,0.7,0.3c0.3,0,0.6-0.1,0.8-0.3c0.2-0.2,0.3-0.5,0.3-0.9
			c0-0.4-0.1-0.7-0.3-0.9s-0.4-0.3-0.7-0.3c-0.2,0-0.4,0-0.7,0.1l0.2-1.2c0.4,0,0.7-0.1,0.9-0.3c0.2-0.2,0.3-0.4,0.3-0.7
			c0-0.3-0.1-0.5-0.2-0.6s-0.4-0.2-0.6-0.2c-0.2,0-0.5,0.1-0.6,0.3c-0.2,0.2-0.3,0.4-0.3,0.8l-1.4-0.2c0.1-0.5,0.2-0.8,0.4-1.1
			c0.2-0.3,0.5-0.5,0.8-0.7s0.7-0.2,1.1-0.2c0.7,0,1.3,0.2,1.8,0.7c0.4,0.4,0.5,0.8,0.5,1.3c0,0.7-0.4,1.2-1.1,1.6
			c0.4,0.1,0.8,0.3,1.1,0.6s0.4,0.7,0.4,1.2c0,0.7-0.2,1.3-0.7,1.7s-1.1,0.7-1.9,0.7c-0.7,0-1.3-0.2-1.7-0.6
			C174.2,94.9,174,94.4,173.9,93.8z"/>
	</g>
	<g class="st5">
		<path d="M137.2,109.4v-1.6H134v-1.3l3.4-4.9h1.2v4.9h1v1.3h-1v1.6H137.2z M137.2,106.6v-2.6l-1.8,2.6H137.2z"/>
		<path d="M140.5,107.4v-1.5h2.9v1.5H140.5z"/>
		<path d="M149.2,106.6l1.5,0.5c-0.2,0.8-0.6,1.5-1.2,1.9c-0.5,0.4-1.2,0.6-2.1,0.6c-1,0-1.9-0.3-2.5-1.1c-0.7-0.7-1-1.7-1-2.9
			c0-1.3,0.3-2.3,1-3c0.7-0.7,1.5-1.1,2.6-1.1c0.9,0,1.7,0.3,2.3,0.8c0.4,0.3,0.6,0.8,0.8,1.4l-1.6,0.4c-0.1-0.4-0.3-0.7-0.6-0.9
			c-0.3-0.2-0.6-0.3-1.1-0.3c-0.6,0-1,0.2-1.4,0.6s-0.5,1.1-0.5,2c0,1,0.2,1.7,0.5,2.1s0.8,0.6,1.4,0.6c0.4,0,0.8-0.1,1.1-0.4
			C148.9,107.6,149.1,107.2,149.2,106.6z"/>
		<path d="M152.1,109.4v-7.7h1.6v3h3.1v-3h1.6v7.7h-1.6v-3.4h-3.1v3.4H152.1z"/>
		<path d="M169.4,109.4h-1.7l-0.7-1.8H164l-0.6,1.8h-1.7l3-7.7h1.6L169.4,109.4z M166.6,106.4l-1.1-2.9l-1,2.9H166.6z"/>
		<path d="M170.2,101.7h2.9c0.6,0,1.1,0.1,1.5,0.2c0.4,0.1,0.8,0.4,1.2,0.7c0.3,0.3,0.6,0.8,0.7,1.2s0.2,1.1,0.2,1.8
			c0,0.6-0.1,1.2-0.2,1.7c-0.2,0.6-0.5,1-0.8,1.4c-0.3,0.3-0.6,0.5-1.1,0.6c-0.3,0.1-0.8,0.2-1.4,0.2h-2.9L170.2,101.7L170.2,101.7z
			 M171.8,103v5.1h1.2c0.4,0,0.8,0,0.9-0.1c0.2-0.1,0.5-0.2,0.6-0.3s0.3-0.4,0.4-0.8s0.2-0.8,0.2-1.4s-0.1-1.1-0.2-1.4
			s-0.2-0.6-0.4-0.8s-0.4-0.3-0.7-0.4c-0.2-0.1-0.6-0.1-1.3-0.1C172.5,103,171.8,103,171.8,103z"/>
		<path d="M183,106.6l1.5,0.5c-0.2,0.8-0.6,1.5-1.2,1.9c-0.5,0.4-1.2,0.6-2.1,0.6c-1,0-1.9-0.3-2.5-1.1c-0.7-0.7-1-1.7-1-2.9
			c0-1.3,0.3-2.3,1-3c0.7-0.7,1.5-1.1,2.6-1.1c0.9,0,1.7,0.3,2.3,0.8c0.4,0.3,0.6,0.8,0.8,1.4l-1.6,0.4c-0.1-0.4-0.3-0.7-0.6-0.9
			c-0.3-0.2-0.6-0.3-1.1-0.3c-0.6,0-1,0.2-1.4,0.6s-0.5,1.1-0.5,2c0,1,0.2,1.7,0.5,2.1s0.8,0.6,1.4,0.6c0.4,0,0.8-0.1,1.1-0.4
			C182.7,107.6,182.9,107.2,183,106.6z"/>
	</g>
	<g class="st5">
		<path d="M147.9,125.3h-1c-0.5-0.8-0.9-1.7-1.2-2.5c-0.3-0.9-0.4-1.7-0.4-2.5c0-1,0.2-2,0.5-2.9c0.3-0.8,0.7-1.5,1.1-2.2h1
			c-0.5,1.1-0.8,2-1,2.7s-0.3,1.5-0.3,2.4c0,0.6,0.1,1.2,0.2,1.8s0.2,1.2,0.4,1.7C147.4,124.2,147.6,124.7,147.9,125.3z"/>
		<path d="M148.6,120.6l1.5-0.2c0.1,0.5,0.3,0.9,0.6,1.1s0.7,0.4,1.1,0.4c0.5,0,0.9-0.1,1.1-0.3s0.4-0.5,0.4-0.8
			c0-0.2-0.1-0.3-0.2-0.5c-0.1-0.1-0.3-0.2-0.6-0.3c-0.2-0.1-0.6-0.2-1.2-0.3c-0.8-0.2-1.4-0.5-1.8-0.8c-0.5-0.4-0.7-0.9-0.7-1.6
			c0-0.4,0.1-0.8,0.3-1.1c0.2-0.3,0.5-0.6,1-0.8s0.9-0.3,1.5-0.3c1,0,1.7,0.2,2.2,0.6s0.8,1,0.8,1.7l-1.6,0.1
			c-0.1-0.4-0.2-0.7-0.4-0.9s-0.6-0.3-1-0.3c-0.4,0-0.8,0.1-1.1,0.3c-0.2,0.1-0.2,0.3-0.2,0.5c0,0.2,0.1,0.3,0.2,0.5
			c0.2,0.2,0.7,0.3,1.4,0.5s1.3,0.4,1.7,0.6c0.4,0.2,0.6,0.4,0.9,0.8c0.2,0.3,0.3,0.7,0.3,1.2c0,0.4-0.1,0.9-0.4,1.2s-0.6,0.7-1,0.9
			s-1,0.3-1.7,0.3c-1,0-1.7-0.2-2.2-0.7C149.1,122.1,148.8,121.4,148.6,120.6z"/>
		<path d="M163.2,123.1h-1.7l-0.7-1.8h-3.1l-0.6,1.8h-1.7l3-7.7h1.6L163.2,123.1z M160.4,120l-1.1-2.9l-1,2.9H160.4z"/>
		<path d="M164.1,123.1v-7.7h3.3c0.8,0,1.4,0.1,1.8,0.2s0.7,0.4,0.9,0.7s0.3,0.8,0.3,1.2c0,0.6-0.2,1.1-0.5,1.4s-0.9,0.6-1.5,0.7
			c0.3,0.2,0.6,0.4,0.8,0.7s0.5,0.7,0.9,1.3l0.9,1.5h-1.9l-1.1-1.7c-0.4-0.6-0.7-1-0.8-1.1c-0.1-0.2-0.3-0.3-0.5-0.3
			s-0.4-0.1-0.8-0.1h-0.3v3.2L164.1,123.1L164.1,123.1z M165.6,118.6h1.2c0.8,0,1.2,0,1.4-0.1c0.2-0.1,0.3-0.2,0.4-0.3
			c0.1-0.2,0.2-0.3,0.2-0.6c0-0.3-0.1-0.5-0.2-0.6c-0.1-0.2-0.3-0.3-0.6-0.3c-0.1,0-0.5,0-1.1,0h-1.2V118.6z"/>
		<path d="M171.4,125.3c0.3-0.6,0.5-1.1,0.6-1.4s0.2-0.7,0.3-1.2s0.2-0.8,0.2-1.2s0.1-0.8,0.1-1.2c0-0.8-0.1-1.6-0.3-2.4
			c-0.2-0.8-0.5-1.7-1-2.7h1c0.5,0.8,0.9,1.6,1.2,2.4c0.3,0.8,0.4,1.7,0.4,2.6c0,0.7-0.1,1.5-0.4,2.4c-0.3,0.9-0.7,1.9-1.3,2.8
			L171.4,125.3L171.4,125.3z"/>
	</g>
</g>
<rect x="223.4" y="62.3" class="st4" width="48" height="89.1"/>
<path class="st3" d="M140.6,19.1"/>
<path class="st3" d="M245.6-38"/>
<polyline class="st3" points="274.6,143 282.9,143 304.3,121.6 381,121.6 "/>
<polyline class="st3" points="274.6,119.1 282.9,119.1 304.3,97.6 381,97.6 "/>
<polyline class="st3" points="381,72.7 304.3,72.7 282.8,94.3 271.4,94.3 "/>
<polyline class="st3" points="381,49.5 304.3,49.5 282.8,71.1 274.6,71.1 "/>
<polyline class="st3" points="127.6,143 111.3,143 89.9,121.6 60.8,121.6 "/>
<polyline class="st3" points="127.6,119.1 111.3,119.1 89.9,97.6 60.8,97.6 "/>
<polyline class="st3" points="60.8,72.7 89.9,72.7 111.4,94.3 127.6,94.3 "/>
<polyline class="st3" points="60.8,49.5 89.9,49.5 111.4,71.1 127.6,71.1 "/>
<g class="st5">
	<path d="M251.6,136.4h-7.7v-2.5c0-0.9,0-1.6,0.1-1.9c0.1-0.4,0.4-0.8,0.8-1.1s0.9-0.4,1.5-0.4c0.5,0,0.9,0.1,1.2,0.3
		c0.3,0.2,0.6,0.4,0.8,0.7s0.3,0.5,0.4,0.8c0.1,0.4,0.1,0.9,0.1,1.6v1h2.9L251.6,136.4L251.6,136.4z M245.2,134.8h2.2V134
		c0-0.6,0-1-0.1-1.2c-0.1-0.2-0.2-0.4-0.4-0.5s-0.4-0.2-0.6-0.2c-0.3,0-0.5,0.1-0.7,0.2s-0.3,0.4-0.3,0.6c0,0.2-0.1,0.6-0.1,1.1
		L245.2,134.8L245.2,134.8z"/>
	<path d="M251.6,129.2h-7.7v-1.6h7.7V129.2z"/>
	<path d="M248.8,121.2l0.5-1.5c0.8,0.2,1.5,0.6,1.9,1.2s0.6,1.2,0.6,2.1c0,1-0.4,1.9-1.1,2.5c-0.7,0.7-1.7,1-2.9,1
		c-1.3,0-2.3-0.3-3-1s-1.1-1.5-1.1-2.6c0-0.9,0.3-1.7,0.8-2.3c0.3-0.3,0.8-0.6,1.4-0.8l0.4,1.6c-0.4,0.1-0.7,0.3-0.9,0.6
		s-0.4,0.6-0.4,1.1c0,0.6,0.2,1,0.6,1.4c0.4,0.4,1.1,0.5,2,0.5c1,0,1.7-0.2,2.1-0.5s0.6-0.8,0.6-1.4c0-0.4-0.1-0.8-0.4-1.1
		C249.8,121.6,249.4,121.4,248.8,121.2z"/>
	<path d="M251.6,114.9v1.5h-5.6c0.5,0.5,0.9,1.2,1.1,1.9h-1.4c-0.1-0.4-0.4-0.8-0.7-1.3c-0.4-0.4-0.8-0.8-1.2-0.9v-1.2L251.6,114.9
		L251.6,114.9z"/>
	<path d="M245.8,107.7l0.2,1.4c-0.3,0-0.5,0.1-0.6,0.3c-0.1,0.2-0.2,0.3-0.2,0.6c0,0.3,0.1,0.6,0.4,0.8c0.3,0.2,0.9,0.3,1.8,0.4
		c-0.4-0.4-0.6-0.8-0.6-1.4c0-0.6,0.2-1.2,0.7-1.6c0.5-0.4,1.1-0.7,1.8-0.7c0.8,0,1.4,0.2,1.9,0.7c0.5,0.5,0.7,1.1,0.7,1.8
		c0,0.8-0.3,1.4-0.9,1.9s-1.6,0.8-3,0.8c-1.4,0-2.4-0.3-3.1-0.8s-0.9-1.2-0.9-2c0-0.6,0.2-1.1,0.5-1.5
		C244.7,108,245.2,107.8,245.8,107.7z M249.1,111c0.5,0,0.9-0.1,1.1-0.3s0.4-0.5,0.4-0.8c0-0.3-0.1-0.5-0.3-0.7
		c-0.2-0.2-0.6-0.3-1.1-0.3c-0.5,0-0.9,0.1-1.1,0.3c-0.2,0.2-0.4,0.4-0.4,0.7c0,0.3,0.1,0.5,0.3,0.7
		C248.3,110.9,248.6,111,249.1,111z"/>
	<path d="M251.6,106.3h-7.7V101h1.3v3.7h1.8v-3.2h1.3v3.2h3.3L251.6,106.3L251.6,106.3z"/>
	<path d="M251.6,96.3v1.5h-5.6c0.5,0.5,0.9,1.2,1.1,1.9h-1.4c-0.1-0.4-0.4-0.8-0.7-1.3c-0.4-0.4-0.8-0.8-1.2-0.9v-1.2L251.6,96.3
		L251.6,96.3z"/>
	<path d="M247.5,92.8c-0.2,0.4-0.4,0.7-0.7,0.8s-0.6,0.3-0.9,0.3c-0.6,0-1.1-0.2-1.4-0.6c-0.4-0.4-0.6-1-0.6-1.7s0.2-1.3,0.6-1.7
		s0.9-0.6,1.4-0.6c0.4,0,0.7,0.1,1,0.3s0.5,0.4,0.6,0.8c0.2-0.4,0.4-0.8,0.8-1s0.7-0.3,1.1-0.3c0.7,0,1.3,0.2,1.7,0.7
		c0.4,0.5,0.7,1.1,0.7,1.8c0,0.7-0.2,1.3-0.6,1.8c-0.4,0.6-1,0.8-1.8,0.8c-0.4,0-0.8-0.1-1.1-0.3C247.9,93.6,247.7,93.2,247.5,92.8z
		 M246,92.5c0.3,0,0.5-0.1,0.7-0.2c0.2-0.2,0.2-0.4,0.2-0.7s-0.1-0.5-0.2-0.7s-0.4-0.2-0.7-0.2c-0.3,0-0.5,0.1-0.7,0.2
		s-0.2,0.4-0.2,0.7c0,0.3,0.1,0.5,0.2,0.7S245.7,92.5,246,92.5z M249.3,92.6c0.4,0,0.7-0.1,1-0.3c0.2-0.2,0.3-0.5,0.3-0.8
		s-0.1-0.6-0.3-0.8c-0.2-0.2-0.5-0.3-0.9-0.3c-0.4,0-0.6,0.1-0.9,0.3s-0.3,0.5-0.3,0.8c0,0.4,0.1,0.6,0.4,0.8S249,92.6,249.3,92.6z"
		/>
	<path d="M250.3,83.1h1.4v5.2c-0.5-0.1-1-0.2-1.5-0.5c-0.5-0.3-1.1-0.8-1.9-1.7c-0.6-0.7-1-1.1-1.3-1.2c-0.3-0.2-0.6-0.3-0.9-0.3
		c-0.3,0-0.6,0.1-0.8,0.3s-0.3,0.4-0.3,0.7c0,0.3,0.1,0.6,0.3,0.7s0.5,0.3,0.9,0.3l-0.1,1.5c-0.8-0.1-1.4-0.4-1.8-0.8
		c-0.4-0.5-0.5-1-0.5-1.7c0-0.8,0.2-1.4,0.6-1.8c0.4-0.4,0.9-0.7,1.5-0.7c0.4,0,0.7,0.1,1,0.2c0.3,0.1,0.6,0.3,1,0.6
		c0.2,0.2,0.6,0.5,1,1s0.7,0.8,0.9,0.9c0.1,0.1,0.3,0.2,0.4,0.3L250.3,83.1L250.3,83.1z"/>
	<path d="M249.7,82l-0.1-1.5c0.3,0,0.6-0.2,0.8-0.4c0.2-0.2,0.3-0.4,0.3-0.7c0-0.3-0.1-0.6-0.4-0.8c-0.2-0.2-0.6-0.3-1.1-0.3
		c-0.5,0-0.8,0.1-1.1,0.3s-0.4,0.5-0.4,0.8c0,0.4,0.2,0.8,0.6,1.2l-0.2,1.2l-4-0.8v-3.9h1.4V80l1.3,0.2c-0.2-0.3-0.2-0.7-0.2-1
		c0-0.7,0.2-1.2,0.7-1.7c0.5-0.5,1.1-0.7,1.9-0.7c0.6,0,1.2,0.2,1.7,0.6c0.7,0.5,1,1.2,1,2.1c0,0.7-0.2,1.3-0.6,1.8
		C250.8,81.7,250.3,81.9,249.7,82z"/>
</g>
<g>
	<rect x="341" y="41.5" class="st4" width="16" height="16"/>
	<rect x="343.4" y="43.9" class="st6" width="11.2" height="11.2"/>
</g>
<g>
	<rect x="341" y="65.5" class="st4" width="16" height="16"/>
	<rect x="343.4" y="67.9" class="st7" width="11.2" height="11.2"/>
</g>
<g>
	<rect x="341" y="89.6" class="st4" width="16" height="16"/>
	<rect x="343.4" y="92" class="st6" width="11.2" height="11.2"/>
</g>
<g>
	<rect x="341" y="113.6" class="st4" width="16" height="16"/>
	<rect x="343.4" y="116" class="st6" width="11.2" height="11.2"/>
</g>
<rect x="168.7" y="11.6" class="st4" width="114.2" height="40.7"/>
<polyline class="st3" points="135.6,62.3 135.6,20 168.7,20 "/>
<polyline class="st3" points="144.3,62.3 144.3,43.8 168.7,43.8 "/>
<g class="st5">
	<path d="M195.7,27.7V20h1.6v6.4h3.9v1.3H195.7z"/>
	<path d="M202,23.9c0-0.8,0.1-1.5,0.4-2c0.2-0.4,0.4-0.8,0.7-1.1s0.6-0.5,1-0.7c0.5-0.2,1-0.3,1.7-0.3c1.1,0,2.1,0.4,2.7,1.1
		s1,1.7,1,3c0,1.2-0.3,2.2-1,2.9c-0.7,0.7-1.6,1.1-2.7,1.1c-1.1,0-2.1-0.4-2.7-1C202.3,26.1,202,25.1,202,23.9z M203.6,23.8
		c0,0.9,0.2,1.5,0.6,2c0.4,0.5,0.9,0.7,1.5,0.7s1.1-0.2,1.5-0.7s0.6-1.1,0.6-2c0-0.9-0.2-1.5-0.6-2c-0.4-0.4-0.9-0.6-1.6-0.6
		c-0.6,0-1.2,0.2-1.6,0.7C203.8,22.3,203.6,22.9,203.6,23.8z"/>
	<path d="M211.8,27.7l-1.9-7.7h1.6l1.2,5.3l1.4-5.3h1.9l1.4,5.4l1.2-5.4h1.6l-1.9,7.7h-1.7l-1.5-5.8l-1.5,5.8H211.8z"/>
	<path d="M223.9,27.7V20h1.5l3.2,5.2V20h1.4v7.7h-1.6l-3.1-5v5H223.9z"/>
	<path d="M231.4,23.9c0-0.8,0.1-1.5,0.4-2c0.2-0.4,0.4-0.8,0.7-1.1s0.6-0.5,1-0.7c0.5-0.2,1-0.3,1.7-0.3c1.1,0,2.1,0.4,2.7,1.1
		s1,1.7,1,3c0,1.2-0.3,2.2-1,2.9c-0.7,0.7-1.6,1.1-2.7,1.1c-1.1,0-2.1-0.4-2.7-1C231.7,26.1,231.4,25.1,231.4,23.9z M233,23.8
		c0,0.9,0.2,1.5,0.6,2c0.4,0.5,0.9,0.7,1.5,0.7s1.1-0.2,1.5-0.7s0.6-1.1,0.6-2c0-0.9-0.2-1.5-0.6-2c-0.4-0.4-0.9-0.6-1.6-0.6
		c-0.6,0-1.2,0.2-1.6,0.7C233.2,22.3,233,22.9,233,23.8z"/>
	<path d="M240.1,27.7V20h1.6v7.7H240.1z"/>
	<path d="M242.7,25.2l1.5-0.1c0.1,0.5,0.3,0.9,0.6,1.1c0.3,0.2,0.7,0.4,1.1,0.4c0.5,0,0.9-0.1,1.1-0.3c0.2-0.2,0.4-0.5,0.4-0.8
		c0-0.2-0.1-0.3-0.2-0.5s-0.3-0.2-0.6-0.3c-0.2-0.1-0.6-0.2-1.2-0.3c-0.8-0.2-1.4-0.5-1.8-0.8c-0.5-0.4-0.7-0.9-0.7-1.6
		c0-0.4,0.1-0.8,0.3-1.1c0.2-0.3,0.5-0.6,1-0.8c0.4-0.2,0.9-0.3,1.5-0.3c1,0,1.7,0.2,2.2,0.6s0.8,1,0.8,1.7l-1.6,0.1
		c-0.1-0.4-0.2-0.7-0.4-0.9c-0.2-0.2-0.6-0.3-1-0.3c-0.4,0-0.8,0.1-1.1,0.3c-0.2,0.1-0.2,0.3-0.2,0.5c0,0.2,0.1,0.3,0.2,0.5
		c0.2,0.2,0.7,0.3,1.4,0.5c0.8,0.2,1.3,0.4,1.7,0.6c0.4,0.2,0.6,0.5,0.9,0.8c0.2,0.3,0.3,0.7,0.3,1.2c0,0.4-0.1,0.9-0.4,1.2
		s-0.6,0.7-1,0.9s-1,0.3-1.7,0.3c-1,0-1.7-0.2-2.2-0.7C243.1,26.7,242.8,26,242.7,25.2z"/>
	<path d="M250.3,27.7V20h5.7v1.3h-4.2V23h3.9v1.3h-3.9v2.1h4.3v1.3C256.2,27.7,250.3,27.7,250.3,27.7z"/>
</g>
<rect x="89.3" y="11.6" class="st4" width="23.9" height="139.8"/>
<g class="st5">
	<path d="M105.4,139.9v1.5h-5.6c0.5,0.5,0.9,1.2,1.1,1.9h-1.3c-0.1-0.4-0.4-0.8-0.7-1.3s-0.8-0.8-1.2-0.9v-1.2L105.4,139.9
		L105.4,139.9z"/>
	<path d="M101.3,137.1h-1.5v-1.5h1.5C101.3,135.6,101.3,137.1,101.3,137.1z M105.4,137.1h-1.5v-1.5h1.5V137.1z"/>
	<path d="M105.4,130.3v1.5h-5.6c0.5,0.5,0.9,1.2,1.1,1.9h-1.3c-0.1-0.4-0.4-0.8-0.7-1.3s-0.8-0.8-1.2-0.9v-1.2L105.4,130.3
		L105.4,130.3z"/>
	<path d="M97.6,125.6c0-0.8,0.3-1.3,0.8-1.8c0.6-0.5,1.7-0.8,3.2-0.8c1.5,0,2.5,0.2,3.2,0.8c0.5,0.4,0.8,1,0.8,1.8s-0.3,1.4-0.9,1.8
		s-1.6,0.7-3.1,0.7c-1.5,0-2.5-0.2-3.2-0.8C97.9,126.9,97.6,126.3,97.6,125.6z M98.9,125.6c0,0.2,0.1,0.3,0.2,0.5s0.3,0.2,0.6,0.3
		c0.4,0.1,1,0.2,1.9,0.2s1.5-0.1,1.9-0.1c0.3-0.1,0.6-0.2,0.7-0.3s0.2-0.3,0.2-0.5s-0.1-0.3-0.2-0.5s-0.3-0.2-0.6-0.3
		c-0.4-0.1-1-0.2-1.9-0.2s-1.5,0.1-1.9,0.1c-0.3,0.1-0.6,0.2-0.7,0.3C98.9,125.3,98.9,125.4,98.9,125.6z"/>
	<path d="M105.4,118.8h-7.7v-3.3c0-0.8,0.1-1.4,0.2-1.8c0.1-0.4,0.4-0.7,0.7-0.9c0.4-0.2,0.8-0.3,1.2-0.3c0.6,0,1.1,0.2,1.4,0.5
		c0.4,0.3,0.6,0.8,0.7,1.5c0.2-0.3,0.4-0.6,0.7-0.8c0.2-0.2,0.7-0.5,1.3-0.9l1.5-0.9v1.9l-1.7,1.1c-0.6,0.4-1,0.7-1.1,0.8
		c-0.2,0.2-0.3,0.3-0.3,0.5s-0.1,0.4-0.1,0.8v0.3h3.2L105.4,118.8L105.4,118.8z M100.9,117.2V116c0-0.8,0-1.2-0.1-1.4
		c-0.1-0.2-0.2-0.3-0.3-0.4s-0.3-0.2-0.6-0.2c-0.3,0-0.5,0.1-0.6,0.2c-0.2,0.1-0.3,0.3-0.3,0.6c0,0.1,0,0.5,0,1.1v1.2L100.9,117.2
		L100.9,117.2z"/>
	<path d="M105.4,111h-7.7v-5.7H99v4.2h1.7v-3.9h1.3v3.9h2.1v-4.3h1.3C105.4,105.1,105.4,111,105.4,111z"/>
	<path d="M102.9,104.2l-0.2-1.5c0.5-0.1,0.9-0.3,1.1-0.6c0.2-0.3,0.4-0.7,0.4-1.1c0-0.5-0.1-0.9-0.3-1.1c-0.2-0.2-0.5-0.4-0.8-0.4
		c-0.2,0-0.3,0.1-0.5,0.2c-0.1,0.1-0.2,0.3-0.3,0.6c-0.1,0.2-0.2,0.6-0.3,1.2c-0.2,0.8-0.5,1.4-0.8,1.8c-0.4,0.5-0.9,0.7-1.6,0.7
		c-0.4,0-0.8-0.1-1.1-0.3c-0.3-0.2-0.6-0.6-0.8-1s-0.3-0.9-0.3-1.5c0-1,0.2-1.7,0.6-2.2c0.4-0.5,1-0.8,1.7-0.8l0.1,1.6
		c-0.4,0.1-0.7,0.2-0.9,0.4c-0.2,0.2-0.3,0.6-0.3,1c0,0.4,0.1,0.8,0.3,1.1c0.1,0.2,0.3,0.2,0.5,0.2c0.2,0,0.3-0.1,0.5-0.2
		c0.2-0.2,0.3-0.7,0.5-1.4s0.4-1.3,0.6-1.7s0.4-0.7,0.8-0.9c0.3-0.2,0.7-0.3,1.2-0.3c0.4,0,0.9,0.1,1.2,0.4s0.7,0.6,0.9,1
		c0.2,0.4,0.3,1,0.3,1.7c0,1-0.2,1.7-0.7,2.2C104.4,103.7,103.8,104.1,102.9,104.2z"/>
	<path d="M105.4,96.6h-1.5v-1.5h1.5V96.6z"/>
	<path d="M105.4,84v1.7l-1.8,0.7v3.1l1.8,0.6v1.7l-7.7-3v-1.7L105.4,84z M102.3,86.8l-2.9,1.1l2.9,1V86.8z"/>
	<path d="M105.4,82.2H99v2.3h-1.3v-6.2H99v2.3h6.4V82.2z"/>
	<path d="M105.4,75.6H99v2.3h-1.3v-6.2H99V74h6.4V75.6z"/>
	<path d="M105.4,70.7h-7.7V65H99v4.2h1.7v-3.9h1.3v3.9h2.1v-4.3h1.3C105.4,64.8,105.4,70.7,105.4,70.7z"/>
	<path d="M105.4,63.5h-7.7V62l5.2-3.2h-5.2v-1.5h7.7v1.6l-5,3.1h5V63.5z"/>
	<path d="M97.7,55.7v-1.6h4.2c0.7,0,1.1,0,1.3-0.1c0.3-0.1,0.6-0.2,0.8-0.5s0.3-0.6,0.3-1c0-0.4-0.1-0.8-0.3-1
		c-0.2-0.2-0.4-0.4-0.7-0.4c-0.3,0-0.7-0.1-1.3-0.1h-4.3v-1.6h4.1c0.9,0,1.6,0,2,0.1c0.4,0.1,0.7,0.2,1,0.5s0.5,0.5,0.6,0.9
		c0.2,0.4,0.2,0.9,0.2,1.5c0,0.7-0.1,1.3-0.3,1.7c-0.2,0.4-0.4,0.7-0.7,0.9c-0.3,0.2-0.6,0.4-0.9,0.4c-0.4,0.1-1.1,0.2-2,0.2
		C101.8,55.7,97.7,55.7,97.7,55.7z"/>
	<path d="M105.4,41v1.7l-1.8,0.7v3.1l1.8,0.6v1.7l-7.7-3v-1.7L105.4,41z M102.3,43.8l-2.9,1.1l2.9,1V43.8z"/>
	<path d="M105.4,39.2H99v2.3h-1.3v-6.2H99v2.3h6.4V39.2z"/>
	<path d="M101.6,34.8c-0.8,0-1.4-0.1-2-0.3c-0.4-0.2-0.8-0.4-1.1-0.7c-0.3-0.3-0.5-0.6-0.7-1c-0.2-0.5-0.3-1-0.3-1.7
		c0-1.1,0.3-2,1.1-2.7s1.7-1,2.9-1c1.2,0,2.2,0.3,2.9,1c0.7,0.7,1.1,1.6,1.1,2.7c0,1.2-0.3,2.1-1.1,2.7
		C103.8,34.5,102.8,34.8,101.6,34.8z M101.5,33.2c0.9,0,1.5-0.2,2-0.6c0.4-0.4,0.7-0.9,0.7-1.5s-0.2-1.1-0.7-1.5
		c-0.4-0.4-1.1-0.6-2-0.6c-0.9,0-1.6,0.2-2,0.6c-0.4,0.4-0.7,0.9-0.7,1.5c0,0.6,0.2,1.2,0.7,1.6C100,33,100.6,33.2,101.5,33.2z"/>
	<path d="M105.4,26.1h-7.7v-3.3c0-0.8,0.1-1.4,0.2-1.8c0.1-0.4,0.4-0.7,0.7-0.9c0.4-0.2,0.8-0.3,1.2-0.3c0.6,0,1.1,0.2,1.4,0.5
		c0.4,0.3,0.6,0.9,0.7,1.5c0.2-0.3,0.4-0.6,0.7-0.8s0.7-0.5,1.3-0.9l1.5-0.9V21l-1.7,1.1c-0.6,0.4-1,0.7-1.1,0.8
		c-0.2,0.1-0.3,0.3-0.3,0.5s-0.1,0.4-0.1,0.8v0.3h3.2L105.4,26.1L105.4,26.1z M100.9,24.5v-1.2c0-0.8,0-1.2-0.1-1.4
		s-0.2-0.3-0.3-0.4s-0.3-0.2-0.6-0.2c-0.3,0-0.5,0.1-0.6,0.2c-0.2,0.1-0.3,0.3-0.3,0.6c0,0.1,0,0.5,0,1.1v1.2
		C99,24.5,100.9,24.5,100.9,24.5z"/>
</g>
<g class="st5">
	<path d="M173.8,36.2h2.9c0.6,0,1.1,0,1.5,0.2c0.4,0.1,0.8,0.4,1.2,0.7s0.6,0.8,0.7,1.2s0.2,1.1,0.2,1.8c0,0.6-0.1,1.2-0.2,1.7
		c-0.2,0.6-0.5,1-0.8,1.4c-0.3,0.3-0.6,0.5-1.1,0.6c-0.3,0.1-0.8,0.2-1.4,0.2h-2.9L173.8,36.2L173.8,36.2z M175.3,37.5v5.1h1.2
		c0.4,0,0.8,0,0.9-0.1c0.2-0.1,0.5-0.2,0.6-0.3s0.3-0.4,0.4-0.8s0.2-0.8,0.2-1.4s-0.1-1.1-0.2-1.4s-0.2-0.6-0.4-0.8
		s-0.4-0.3-0.7-0.4c-0.2,0-0.6-0.1-1.3-0.1H175.3z"/>
	<path d="M186.5,41.1l1.5,0.5c-0.2,0.8-0.6,1.5-1.2,1.9c-0.5,0.4-1.2,0.6-2.1,0.6c-1,0-1.9-0.3-2.5-1s-1-1.7-1-2.9
		c0-1.3,0.3-2.3,1-3c0.7-0.7,1.5-1.1,2.6-1.1c0.9,0,1.7,0.3,2.3,0.8c0.4,0.3,0.6,0.8,0.8,1.4l-1.6,0.4c-0.1-0.4-0.3-0.7-0.6-1
		c-0.3-0.2-0.6-0.3-1.1-0.3c-0.6,0-1,0.2-1.4,0.6s-0.5,1.1-0.5,2c0,1,0.2,1.7,0.5,2.1s0.8,0.6,1.4,0.6c0.4,0,0.8-0.1,1.1-0.4
		C186.2,42.1,186.4,41.7,186.5,41.1z"/>
	<path d="M189.2,41.9v-1.5h2.9v1.5H189.2z"/>
	<path d="M193,36.2h2.9c0.6,0,1.1,0,1.5,0.2c0.4,0.1,0.8,0.4,1.2,0.7s0.6,0.8,0.7,1.2s0.2,1.1,0.2,1.8c0,0.6-0.1,1.2-0.2,1.7
		c-0.2,0.6-0.5,1-0.8,1.4c-0.3,0.3-0.6,0.5-1.1,0.6c-0.3,0.1-0.8,0.2-1.4,0.2H193L193,36.2L193,36.2z M194.5,37.5v5.1h1.2
		c0.4,0,0.8,0,0.9-0.1c0.2-0.1,0.5-0.2,0.6-0.3s0.3-0.4,0.4-0.8s0.2-0.8,0.2-1.4s-0.1-1.1-0.2-1.4s-0.2-0.6-0.4-0.8
		s-0.4-0.3-0.7-0.4c-0.2,0-0.6-0.1-1.3-0.1H194.5z"/>
	<path d="M205.7,41.1l1.5,0.5c-0.2,0.8-0.6,1.5-1.2,1.9c-0.5,0.4-1.2,0.6-2.1,0.6c-1,0-1.9-0.3-2.5-1s-1-1.7-1-2.9
		c0-1.3,0.3-2.3,1-3c0.7-0.7,1.5-1.1,2.6-1.1c0.9,0,1.7,0.3,2.3,0.8c0.4,0.3,0.6,0.8,0.8,1.4l-1.6,0.4c-0.1-0.4-0.3-0.7-0.6-1
		c-0.3-0.2-0.6-0.3-1.1-0.3c-0.6,0-1,0.2-1.4,0.6s-0.5,1.1-0.5,2c0,1,0.2,1.7,0.5,2.1s0.8,0.6,1.4,0.6c0.4,0,0.8-0.1,1.1-0.4
		C205.4,42.1,205.6,41.7,205.7,41.1z"/>
	<path d="M216.5,41.1l1.5,0.5c-0.2,0.8-0.6,1.5-1.2,1.9c-0.5,0.4-1.2,0.6-2.1,0.6c-1,0-1.9-0.3-2.5-1s-1-1.7-1-2.9
		c0-1.3,0.3-2.3,1-3c0.7-0.7,1.5-1.1,2.6-1.1c0.9,0,1.7,0.3,2.3,0.8c0.4,0.3,0.6,0.8,0.8,1.4l-1.6,0.4c-0.1-0.4-0.3-0.7-0.6-1
		c-0.3-0.2-0.6-0.3-1.1-0.3c-0.6,0-1,0.2-1.4,0.6s-0.5,1.1-0.5,2c0,1,0.2,1.7,0.5,2.1s0.8,0.6,1.4,0.6c0.4,0,0.8-0.1,1.1-0.4
		C216.2,42.1,216.4,41.7,216.5,41.1z"/>
	<path d="M219.1,40.1c0-0.8,0.1-1.5,0.4-2c0.2-0.4,0.4-0.8,0.7-1.1s0.6-0.5,1-0.7c0.5-0.2,1-0.3,1.7-0.3c1.1,0,2.1,0.3,2.7,1.1
		s1,1.7,1,3c0,1.2-0.3,2.2-1,2.9c-0.7,0.7-1.6,1.1-2.7,1.1c-1.1,0-2.1-0.3-2.7-1C219.4,42.3,219.1,41.3,219.1,40.1z M220.7,40
		c0,0.9,0.2,1.5,0.6,2c0.4,0.5,0.9,0.7,1.5,0.7s1.1-0.2,1.5-0.7c0.4-0.5,0.6-1.1,0.6-2c0-0.9-0.2-1.5-0.6-2
		c-0.4-0.4-0.9-0.7-1.6-0.7c-0.6,0-1.2,0.2-1.6,0.7C220.9,38.5,220.7,39.2,220.7,40z"/>
	<path d="M227.8,43.9v-7.7h1.5l3.2,5.2v-5.2h1.4v7.7h-1.6l-3.1-5v5H227.8z"/>
	<path d="M237.6,43.9l-2.8-7.7h1.7l2,5.7l1.9-5.7h1.7l-2.8,7.7H237.6z"/>
	<path d="M242.8,43.9v-7.7h5.7v1.3h-4.2v1.7h3.9v1.3h-3.9v2.1h4.3v1.3C248.7,43.9,242.8,43.9,242.8,43.9z"/>
	<path d="M250,43.9v-7.7h3.3c0.8,0,1.4,0.1,1.8,0.2c0.4,0.1,0.7,0.4,0.9,0.7c0.2,0.4,0.3,0.8,0.3,1.2c0,0.6-0.2,1.1-0.5,1.4
		c-0.3,0.4-0.9,0.6-1.5,0.7c0.3,0.2,0.6,0.4,0.8,0.7s0.5,0.7,0.9,1.3l0.9,1.5h-1.9l-1.1-1.7c-0.4-0.6-0.7-1-0.8-1.1
		c-0.1-0.2-0.3-0.3-0.5-0.3s-0.4-0.1-0.8-0.1h-0.3v3.2H250z M251.6,39.5h1.2c0.8,0,1.2,0,1.4-0.1s0.3-0.2,0.4-0.3s0.2-0.3,0.2-0.6
		c0-0.3-0.1-0.5-0.2-0.6s-0.3-0.3-0.6-0.3c-0.1,0-0.5,0-1.1,0h-1.2V39.5z"/>
	<path d="M259.6,43.9v-6.4h-2.3v-1.3h6.1v1.3h-2.3v6.4H259.6z"/>
	<path d="M264.4,43.9v-7.7h5.7v1.3H266v1.7h3.9v1.3H266v2.1h4.3v1.3C270.3,43.9,264.4,43.9,264.4,43.9z"/>
	<path d="M271.6,43.9v-7.7h3.3c0.8,0,1.4,0.1,1.8,0.2s0.7,0.4,0.9,0.7c0.2,0.4,0.3,0.8,0.3,1.2c0,0.6-0.2,1.1-0.5,1.4
		c-0.3,0.4-0.9,0.6-1.5,0.7c0.3,0.2,0.6,0.4,0.8,0.7s0.5,0.7,0.9,1.3l0.9,1.5h-1.9l-1.1-1.7c-0.4-0.6-0.7-1-0.8-1.1
		c-0.1-0.2-0.3-0.3-0.5-0.3s-0.4-0.1-0.8-0.1h-0.3v3.2H271.6z M273.2,39.5h1.2c0.8,0,1.2,0,1.4-0.1s0.3-0.2,0.4-0.3s0.2-0.3,0.2-0.6
		c0-0.3-0.1-0.5-0.2-0.6c-0.1-0.2-0.3-0.3-0.6-0.3c-0.1,0-0.5,0-1.1,0h-1.2V39.5z"/>
</g>
<line class="st3" x1="357" y1="25.5" x2="282.9" y2="25.5"/>
<g>
	<line class="st3" x1="191.7" y1="80.5" x2="223.4" y2="80.5"/>
	<line class="st3" x1="191.7" y1="130.6" x2="223.4" y2="130.6"/>
</g>
<line class="st3" x1="217.8" y1="71.1" x2="197.3" y2="143"/>
<path class="st3" d="M-3.2-6.5"/>
<line class="st8" x1="306.2" y1="108.4" x2="336.3" y2="108.4"/>
<line class="st3" x1="357" y1="25.5" x2="364.3" y2="25.5"/>
<line class="st3" x1="373" y1="25.5" x2="380.3" y2="25.5"/>
</svg>
